%FSTAX23Y23*%
%MOIN*%
%SFA1B1*%

%IPPOS*%
%ADD24C,0.010000*%
%LNpcb1_legend_bot-1*%
%LPD*%
G36*
X00115Y00186D02*
X00116D01*
Y00185*
X00117*
Y00185*
X00118*
Y00185*
X00119*
Y00184*
X0012*
Y00184*
X0012*
Y00183*
X00121*
Y00183*
X00121*
Y00182*
X00121*
Y00182*
X00122*
Y00181*
X00122*
Y0018*
X00123*
Y0018*
X00123*
Y00179*
X00124*
Y00178*
X00124*
Y00176*
X00125*
Y0017*
X00125*
Y00165*
X00125*
Y00162*
X00126*
Y00161*
X00126*
Y00159*
X00127*
Y00158*
X00127*
Y00156*
X00128*
Y00155*
X00128*
Y00154*
X00129*
Y00153*
X00129*
Y00152*
X0013*
Y00151*
X0013*
Y0015*
X0013*
Y00149*
X00131*
Y00149*
X00131*
Y00148*
X00132*
Y00147*
X00132*
Y00147*
X00133*
Y00146*
X00133*
Y00146*
X00134*
Y00145*
X00134*
Y00144*
X00135*
Y00144*
X00135*
Y00143*
X00135*
Y00142*
X00136*
Y00142*
X00136*
Y00142*
X00137*
Y00141*
X00137*
Y00141*
X00138*
Y0014*
X00139*
Y00141*
X00139*
Y00142*
X00139*
Y00142*
X0014*
Y00143*
X0014*
Y00144*
X00141*
Y00144*
X00141*
Y00145*
X00142*
Y00145*
X00143*
Y00146*
X00144*
Y00146*
X00144*
Y00147*
X00145*
Y00147*
X00146*
Y00147*
X00149*
Y00148*
X00153*
Y00147*
X00156*
Y00147*
X00158*
Y00147*
X00159*
Y00146*
X0016*
Y00146*
X00161*
Y00145*
X00163*
Y00145*
X00163*
Y00144*
X00164*
Y00144*
X00165*
Y00143*
X00166*
Y00143*
X00167*
Y00142*
X00167*
Y00142*
X00168*
Y00142*
X00168*
Y00141*
X00169*
Y00141*
X0017*
Y0014*
X00171*
Y0014*
X00171*
Y00139*
X00172*
Y00139*
X00172*
Y00138*
X00173*
Y00138*
X00173*
Y00138*
X00174*
Y00137*
X00175*
Y00137*
X00175*
Y00136*
X00176*
Y00136*
X00176*
Y00135*
X00177*
Y00135*
X00177*
Y00134*
X00177*
Y00134*
X00178*
Y00133*
X00178*
Y00133*
X00179*
Y00133*
X00179*
Y00132*
X0018*
Y00132*
X00181*
Y00131*
X00181*
Y0013*
X00181*
Y0013*
X00182*
Y00129*
X00182*
Y00129*
X00183*
Y00128*
X00183*
Y00128*
X00184*
Y00128*
X00184*
Y00127*
X00185*
Y00127*
X00185*
Y00126*
X00186*
Y00125*
X00186*
Y00125*
X00186*
Y00124*
X00187*
Y00124*
X00187*
Y00123*
X00188*
Y00123*
X00188*
Y00122*
X00189*
Y00121*
X00189*
Y00121*
X0019*
Y00121*
X00191*
Y00122*
X00191*
Y00122*
X00191*
Y00123*
X00192*
Y00123*
X00192*
Y00124*
X00193*
Y00124*
X00193*
Y00124*
X00194*
Y00125*
X00194*
Y00125*
X00195*
Y00126*
X00195*
Y00126*
X00195*
Y00127*
X00196*
Y00127*
X00197*
Y00128*
X00197*
Y00128*
X00198*
Y00128*
X00199*
Y00129*
X00199*
Y00129*
X002*
Y0013*
X002*
Y0013*
X00201*
Y00131*
X00201*
Y00131*
X00202*
Y00132*
X00203*
Y00132*
X00203*
Y00133*
X00204*
Y00133*
X00205*
Y00133*
X00205*
Y00134*
X00206*
Y00134*
X00207*
Y00135*
X00208*
Y00135*
X00209*
Y00136*
X0021*
Y00136*
X0021*
Y00137*
X00211*
Y00137*
X00212*
Y00138*
X00214*
Y00138*
X00214*
Y00138*
X00216*
Y00139*
X00217*
Y00139*
X00218*
Y0014*
X00219*
Y0014*
X00221*
Y00141*
X00223*
Y00141*
X00224*
Y00142*
X00226*
Y00142*
X00227*
Y00142*
X00229*
Y00143*
X00232*
Y00143*
X00234*
Y00144*
X00238*
Y00144*
X00254*
Y00144*
X00258*
Y00143*
X00261*
Y00143*
X00263*
Y00142*
X00265*
Y00142*
X00266*
Y00142*
X00269*
Y00141*
X0027*
Y00141*
X00272*
Y0014*
X00273*
Y0014*
X00274*
Y00139*
X00276*
Y00139*
X00277*
Y00138*
X00278*
Y00138*
X00279*
Y00138*
X0028*
Y00137*
X00281*
Y00137*
X00282*
Y00136*
X00283*
Y00136*
X00284*
Y00135*
X00284*
Y00135*
X00285*
Y00134*
X00286*
Y00134*
X00287*
Y00133*
X00288*
Y00133*
X00289*
Y00133*
X00289*
Y00132*
X0029*
Y00132*
X00291*
Y00131*
X00292*
Y00131*
X00293*
Y0013*
X00293*
Y0013*
X00294*
Y00129*
X00294*
Y00129*
X00295*
Y00128*
X00296*
Y00128*
X00296*
Y00128*
X00297*
Y00127*
X00298*
Y00127*
X00298*
Y00126*
X00299*
Y00126*
X00299*
Y00125*
X003*
Y00125*
X003*
Y00124*
X00301*
Y00124*
X00302*
Y00124*
X00302*
Y00123*
X00303*
Y00123*
X00303*
Y00122*
X00303*
Y00122*
X00304*
Y00121*
X00305*
Y00121*
X00305*
Y0012*
X00306*
Y0012*
X00306*
Y00119*
X00307*
Y00119*
X00307*
Y00119*
X00308*
Y00118*
X00308*
Y00118*
X00308*
Y00117*
X00309*
Y00117*
X00309*
Y00116*
X0031*
Y00116*
X0031*
Y00115*
X00311*
Y00115*
X00311*
Y00114*
X00312*
Y00114*
X00312*
Y00113*
X00313*
Y00113*
X00313*
Y00112*
X00313*
Y00112*
X00314*
Y00111*
X00314*
Y0011*
X00315*
Y0011*
X00315*
Y0011*
X00316*
Y00109*
X00316*
Y00108*
X00317*
Y00108*
X00317*
Y00107*
X00317*
Y00106*
X00318*
Y00106*
X00318*
Y00105*
X00319*
Y00105*
X00319*
Y00104*
X0032*
Y00103*
X0032*
Y00102*
X00321*
Y00101*
X00321*
Y001*
X00322*
Y001*
X00322*
Y00099*
X00322*
Y00098*
X00323*
Y00097*
X00323*
Y00096*
X00324*
Y00096*
X00324*
Y00095*
X00325*
Y00094*
X00325*
Y00093*
X00326*
Y00092*
X00326*
Y00091*
X00327*
Y0009*
X00327*
Y00089*
X00327*
Y00087*
X00328*
Y00086*
X00328*
Y00085*
X00329*
Y00084*
X00329*
Y00083*
X0033*
Y00082*
X0033*
Y00081*
X00331*
Y00079*
X00331*
Y00078*
X00331*
Y00076*
X00332*
Y00075*
X00332*
Y00073*
X00333*
Y00071*
X00333*
Y00069*
X00334*
Y00067*
X00334*
Y00065*
X00335*
Y00063*
X00335*
Y0006*
X00336*
Y00056*
X00336*
Y0005*
X00336*
Y00037*
X00336*
Y00031*
X00336*
Y00028*
X00335*
Y00025*
X00335*
Y00022*
X00334*
Y0002*
X00334*
Y00018*
X00333*
Y00016*
X00333*
Y00014*
X00332*
Y00012*
X00332*
Y00011*
X00331*
Y00009*
X00331*
Y00008*
X00331*
Y00007*
X0033*
Y00005*
X0033*
Y00004*
X00329*
Y00002*
X00329*
Y00001*
X00328*
Y0*
X00328*
Y0*
X00327*
Y-00001*
X00327*
Y-00002*
X00327*
Y-00003*
X00326*
Y-00004*
X00326*
Y-00005*
X00325*
Y-00006*
X00325*
Y-00007*
X00324*
Y-00008*
X00324*
Y-00008*
X00323*
Y-00009*
X00323*
Y-0001*
X00322*
Y-00011*
X00322*
Y-00011*
X00322*
Y-00012*
X00321*
Y-00013*
X00321*
Y-00014*
X0032*
Y-00015*
X0032*
Y-00015*
X00319*
Y-00016*
X00319*
Y-00016*
X00318*
Y-00017*
X00318*
Y-00018*
X00317*
Y-00019*
X00317*
Y-00019*
X00317*
Y-0002*
X00316*
Y-00021*
X00316*
Y-00021*
X00315*
Y-00021*
X00315*
Y-00022*
X00314*
Y-00023*
X00314*
Y-00023*
X00313*
Y-00024*
X00313*
Y-00024*
X00313*
Y-00025*
X00312*
Y-00025*
X00312*
Y-00026*
X00311*
Y-00026*
X00311*
Y-00027*
X0031*
Y-00027*
X0031*
Y-00028*
X00309*
Y-00028*
X00309*
Y-00029*
X00308*
Y-00029*
X00308*
Y-0003*
X00308*
Y-0003*
X00307*
Y-0003*
X00307*
Y-00031*
X00306*
Y-00031*
X00306*
Y-00032*
X00305*
Y-00032*
X00305*
Y-00033*
X00304*
Y-00033*
X00303*
Y-00034*
X00303*
Y-00034*
X00303*
Y-00035*
X00302*
Y-00035*
X00301*
Y-00035*
X00301*
Y-00036*
X003*
Y-00036*
X003*
Y-00037*
X00299*
Y-00037*
X00298*
Y-00038*
X00298*
Y-00038*
X00297*
Y-00039*
X00297*
Y-00039*
X00296*
Y-00039*
X00295*
Y-0004*
X00294*
Y-0004*
X00294*
Y-00041*
X00293*
Y-00041*
X00292*
Y-00042*
X00291*
Y-00042*
X0029*
Y-00043*
X0029*
Y-00043*
X00289*
Y-00044*
X00288*
Y-00044*
X00287*
Y-00044*
X00286*
Y-00045*
X00285*
Y-00045*
X00284*
Y-00046*
X00283*
Y-00046*
X00282*
Y-00047*
X0028*
Y-00047*
X00279*
Y-00048*
X00278*
Y-00048*
X00276*
Y-00049*
X00275*
Y-00049*
X00272*
Y-00049*
X0027*
Y-0005*
X00268*
Y-0005*
X00264*
Y-00051*
X00258*
Y-00052*
X00257*
Y-00052*
X00258*
Y-00053*
X00258*
Y-00054*
X00259*
Y-00055*
X00259*
Y-00056*
X0026*
Y-00057*
X0026*
Y-00058*
X00261*
Y-00058*
X00261*
Y-00059*
X00261*
Y-0006*
X00262*
Y-0006*
X00262*
Y-00061*
X00263*
Y-00061*
X00263*
Y-00062*
X00264*
Y-00062*
X00264*
Y-00063*
X00265*
Y-00063*
X00265*
Y-00064*
X00266*
Y-00064*
X00266*
Y-00065*
X00267*
Y-00065*
X00267*
Y-00066*
X00268*
Y-00066*
X00268*
Y-00067*
X00269*
Y-00067*
X0027*
Y-00067*
X0027*
Y-00068*
X00271*
Y-00068*
X00271*
Y-00069*
X00272*
Y-00069*
X00273*
Y-0007*
X00273*
Y-0007*
X00274*
Y-00071*
X00275*
Y-00071*
X00276*
Y-00072*
X00277*
Y-00072*
X00278*
Y-00072*
X00278*
Y-00073*
X00279*
Y-00073*
X0028*
Y-00074*
X00281*
Y-00074*
X00283*
Y-00075*
X00284*
Y-00075*
X00284*
Y-00076*
X00285*
Y-00076*
X00286*
Y-00077*
X00287*
Y-00077*
X00288*
Y-00077*
X00288*
Y-00078*
X00289*
Y-00078*
X00289*
Y-00079*
X00289*
Y-00079*
X0029*
Y-0008*
X0029*
Y-0008*
X00291*
Y-00081*
X00291*
Y-00081*
X00292*
Y-00083*
X00292*
Y-00084*
X00293*
Y-00089*
X00292*
Y-00091*
X00292*
Y-00091*
X00291*
Y-00092*
X00291*
Y-00093*
X0029*
Y-00094*
X0029*
Y-00094*
X00289*
Y-00095*
X00289*
Y-00095*
X00289*
Y-00096*
X00288*
Y-00096*
X00288*
Y-00096*
X00287*
Y-00097*
X00287*
Y-00097*
X00286*
Y-00098*
X00286*
Y-00098*
X00285*
Y-00099*
X00285*
Y-00099*
X00284*
Y-001*
X00284*
Y-001*
X00283*
Y-001*
X00283*
Y-00101*
X00282*
Y-00101*
X00281*
Y-00102*
X0028*
Y-00102*
X0028*
Y-00103*
X00279*
Y-00103*
X00279*
Y-00104*
X00278*
Y-00104*
X00277*
Y-00105*
X00276*
Y-00105*
X00275*
Y-00105*
X00274*
Y-00106*
X00273*
Y-00106*
X00272*
Y-00107*
X00271*
Y-00107*
X0027*
Y-00108*
X00268*
Y-00108*
X00266*
Y-00109*
X00265*
Y-00109*
X00263*
Y-0011*
X00262*
Y-00112*
X00262*
Y-00115*
X00263*
Y-0013*
X00262*
Y-00133*
X00262*
Y-00136*
X00261*
Y-00138*
X00261*
Y-0014*
X00261*
Y-00141*
X0026*
Y-00142*
X0026*
Y-00143*
X00259*
Y-00144*
X00259*
Y-00145*
X00258*
Y-00145*
X00258*
Y-00146*
X00257*
Y-00146*
X00257*
Y-00147*
X00256*
Y-00147*
X00256*
Y-00147*
X00255*
Y-00148*
X00255*
Y-00148*
X00254*
Y-00149*
X00253*
Y-00149*
X00252*
Y-0015*
X00251*
Y-0015*
X00248*
Y-00151*
X00238*
Y-0015*
X00236*
Y-0015*
X00233*
Y-00149*
X00231*
Y-00149*
X0023*
Y-00149*
X00229*
Y-00153*
X00229*
Y-00155*
X00228*
Y-00156*
X00228*
Y-00157*
X00228*
Y-00157*
X00227*
Y-00158*
X00227*
Y-00158*
X00226*
Y-00159*
X00226*
Y-00159*
X00225*
Y-0016*
X00224*
Y-0016*
X00224*
Y-00161*
X00223*
Y-00161*
X00222*
Y-00161*
X00221*
Y-00162*
X0022*
Y-00162*
X00219*
Y-00163*
X00218*
Y-00163*
X00217*
Y-00164*
X00215*
Y-00164*
X00214*
Y-00166*
X00215*
Y-00166*
X00215*
Y-00167*
X00216*
Y-00169*
X00216*
Y-00169*
X00217*
Y-0017*
X00217*
Y-00171*
X00218*
Y-00171*
X00218*
Y-00172*
X00219*
Y-00173*
X00219*
Y-00174*
X00219*
Y-00174*
X0022*
Y-00175*
X0022*
Y-00175*
X00221*
Y-00176*
X00221*
Y-00176*
X00222*
Y-00177*
X00222*
Y-00178*
X00223*
Y-00178*
X00223*
Y-00179*
X00224*
Y-00179*
X00224*
Y-0018*
X00224*
Y-0018*
X00225*
Y-00181*
X00225*
Y-00181*
X00226*
Y-00182*
X00226*
Y-00182*
X00227*
Y-00183*
X00227*
Y-00183*
X00228*
Y-00184*
X00228*
Y-00184*
X00228*
Y-00185*
X00229*
Y-00185*
X00229*
Y-00185*
X0023*
Y-00186*
X0023*
Y-00186*
X00231*
Y-00187*
X00231*
Y-00187*
X00232*
Y-00188*
X00232*
Y-00188*
X00233*
Y-00189*
X00233*
Y-00189*
X00233*
Y-00189*
X00234*
Y-0019*
X00234*
Y-00191*
X00235*
Y-00192*
X00235*
Y-00193*
X00236*
Y-00197*
X00235*
Y-00199*
X00235*
Y-00199*
X00234*
Y-002*
X00234*
Y-00201*
X00233*
Y-00201*
X00233*
Y-00202*
X00233*
Y-00202*
X00232*
Y-00203*
X00231*
Y-00203*
X0023*
Y-00203*
X00229*
Y-00204*
X00227*
Y-00204*
X00224*
Y-00205*
X00223*
Y-00207*
X00223*
Y-00209*
X00224*
Y-0021*
X00224*
Y-00213*
X00224*
Y-00215*
X00225*
Y-00216*
X00225*
Y-00217*
X00226*
Y-00219*
X00226*
Y-0022*
X00227*
Y-00221*
X00227*
Y-00222*
X00228*
Y-00222*
X00228*
Y-00223*
X00228*
Y-00223*
X00229*
Y-00224*
X00229*
Y-00224*
X0023*
Y-00225*
X0023*
Y-00225*
X00231*
Y-00226*
X00231*
Y-00226*
X00232*
Y-00227*
X00233*
Y-00227*
X00233*
Y-00227*
X00233*
Y-00228*
X00234*
Y-00228*
X00235*
Y-00229*
X00235*
Y-00229*
X00236*
Y-0023*
X00236*
Y-0023*
X00237*
Y-00231*
X00238*
Y-00231*
X00238*
Y-00231*
X00238*
Y-00232*
X00239*
Y-00233*
X00239*
Y-00233*
X0024*
Y-00234*
X0024*
Y-00235*
X00241*
Y-00236*
X00241*
Y-0024*
X00241*
Y-00241*
X0024*
Y-00242*
X0024*
Y-00243*
X00239*
Y-00243*
X00239*
Y-00244*
X00238*
Y-00244*
X00238*
Y-00245*
X00238*
Y-00245*
X00237*
Y-00245*
X00236*
Y-00246*
X00236*
Y-00246*
X00235*
Y-00247*
X00234*
Y-00247*
X00233*
Y-00248*
X00232*
Y-00248*
X00231*
Y-00249*
X00229*
Y-00249*
X00228*
Y-0025*
X00225*
Y-0025*
X00224*
Y-0025*
X00224*
Y-00252*
X00224*
Y-00253*
X00227*
Y-00253*
X00239*
Y-00253*
X00244*
Y-00252*
X00247*
Y-00252*
X00249*
Y-00251*
X00251*
Y-00251*
X00252*
Y-0025*
X00254*
Y-0025*
X00255*
Y-0025*
X00256*
Y-00249*
X00257*
Y-00249*
X00258*
Y-00248*
X00259*
Y-00248*
X0026*
Y-00247*
X00261*
Y-00247*
X00262*
Y-00246*
X00262*
Y-00246*
X00263*
Y-00245*
X00264*
Y-00245*
X00265*
Y-00245*
X00266*
Y-00244*
X00266*
Y-00244*
X00266*
Y-00243*
X00267*
Y-00243*
X00268*
Y-00242*
X00268*
Y-00242*
X00269*
Y-00241*
X0027*
Y-00241*
X0027*
Y-00241*
X0027*
Y-0024*
X00271*
Y-0024*
X00271*
Y-00239*
X00272*
Y-00239*
X00272*
Y-00238*
X00273*
Y-00238*
X00273*
Y-00237*
X00274*
Y-00237*
X00274*
Y-00236*
X00275*
Y-00236*
X00275*
Y-00235*
X00275*
Y-00235*
X00276*
Y-00234*
X00276*
Y-00233*
X00277*
Y-00233*
X00277*
Y-00232*
X00278*
Y-00231*
X00278*
Y-00231*
X00279*
Y-0023*
X00279*
Y-0023*
X0028*
Y-00229*
X0028*
Y-00228*
X0028*
Y-00227*
X00281*
Y-00226*
X00281*
Y-00226*
X00282*
Y-00224*
X00282*
Y-00223*
X00283*
Y-00222*
X00283*
Y-00221*
X00284*
Y-0022*
X00284*
Y-00218*
X00284*
Y-00217*
X00285*
Y-00215*
X00285*
Y-00213*
X00286*
Y-00209*
X00286*
Y-00196*
X00286*
Y-00192*
X00285*
Y-00189*
X00285*
Y-00187*
X00284*
Y-00185*
X00284*
Y-00183*
X00284*
Y-00182*
X00283*
Y-0018*
X00283*
Y-00179*
X00282*
Y-00178*
X00282*
Y-00176*
X00281*
Y-00175*
X00281*
Y-00174*
X0028*
Y-00173*
X0028*
Y-00171*
X0028*
Y-0017*
X00279*
Y-00169*
X00279*
Y-00167*
X00278*
Y-00166*
X00278*
Y-00165*
X00277*
Y-00162*
X00277*
Y-0016*
X00276*
Y-00159*
X00277*
Y-00156*
X00277*
Y-00154*
X00278*
Y-00153*
X00278*
Y-00152*
X00279*
Y-00151*
X00279*
Y-00151*
X0028*
Y-0015*
X0028*
Y-0015*
X0028*
Y-00149*
X00281*
Y-00149*
X00281*
Y-00148*
X00282*
Y-00148*
X00282*
Y-00147*
X00283*
Y-00147*
X00284*
Y-00147*
X00284*
Y-00146*
X00285*
Y-00146*
X00287*
Y-00145*
X00289*
Y-00145*
X00292*
Y-00145*
X00295*
Y-00146*
X00297*
Y-00146*
X00298*
Y-00147*
X00299*
Y-00147*
X003*
Y-00147*
X003*
Y-00148*
X00301*
Y-00148*
X00302*
Y-00149*
X00303*
Y-00149*
X00303*
Y-0015*
X00304*
Y-0015*
X00304*
Y-00151*
X00305*
Y-00151*
X00305*
Y-00152*
X00306*
Y-00152*
X00307*
Y-00153*
X00308*
Y-00154*
X00308*
Y-00154*
X00308*
Y-00155*
X00309*
Y-00155*
X00309*
Y-00156*
X0031*
Y-00156*
X0031*
Y-00156*
X00311*
Y-00157*
X00311*
Y-00158*
X00312*
Y-00158*
X00312*
Y-00159*
X00313*
Y-0016*
X00313*
Y-0016*
X00313*
Y-00161*
X00314*
Y-00161*
X00314*
Y-00162*
X00315*
Y-00163*
X00315*
Y-00164*
X00316*
Y-00165*
X00316*
Y-00166*
X00317*
Y-00166*
X00317*
Y-00167*
X00317*
Y-00168*
X00318*
Y-00169*
X00318*
Y-0017*
X00319*
Y-0017*
X00319*
Y-00172*
X0032*
Y-00173*
X0032*
Y-00174*
X00321*
Y-00175*
X00321*
Y-00176*
X00322*
Y-00177*
X00322*
Y-00179*
X00322*
Y-0018*
X00323*
Y-00181*
X00323*
Y-00183*
X00324*
Y-00184*
X00324*
Y-00186*
X00325*
Y-00188*
X00325*
Y-00189*
X00326*
Y-00191*
X00326*
Y-00194*
X00327*
Y-00196*
X00327*
Y-00199*
X00327*
Y-00203*
X00328*
Y-00219*
X00327*
Y-00223*
X00327*
Y-00226*
X00327*
Y-00229*
X00326*
Y-00231*
X00326*
Y-00233*
X00325*
Y-00235*
X00325*
Y-00236*
X00324*
Y-00238*
X00324*
Y-00239*
X00323*
Y-00241*
X00323*
Y-00242*
X00322*
Y-00243*
X00322*
Y-00245*
X00322*
Y-00245*
X00321*
Y-00247*
X00321*
Y-00248*
X0032*
Y-00249*
X0032*
Y-0025*
X00319*
Y-00251*
X00319*
Y-00252*
X00318*
Y-00253*
X00318*
Y-00254*
X00317*
Y-00255*
X00317*
Y-00255*
X00317*
Y-00256*
X00316*
Y-00257*
X00316*
Y-00258*
X00315*
Y-00259*
X00315*
Y-0026*
X00314*
Y-0026*
X00314*
Y-00261*
X00313*
Y-00262*
X00313*
Y-00263*
X00313*
Y-00263*
X00312*
Y-00264*
X00312*
Y-00264*
X00311*
Y-00265*
X00311*
Y-00266*
X0031*
Y-00266*
X0031*
Y-00267*
X00309*
Y-00268*
X00309*
Y-00268*
X00308*
Y-00269*
X00308*
Y-00269*
X00308*
Y-0027*
X00307*
Y-00271*
X00307*
Y-00271*
X00306*
Y-00272*
X00306*
Y-00272*
X00305*
Y-00273*
X00305*
Y-00273*
X00304*
Y-00274*
X00304*
Y-00274*
X00303*
Y-00275*
X00303*
Y-00275*
X00303*
Y-00276*
X00302*
Y-00276*
X00302*
Y-00277*
X00301*
Y-00277*
X00301*
Y-00278*
X003*
Y-00278*
X003*
Y-00278*
X00299*
Y-00279*
X00299*
Y-00279*
X00298*
Y-0028*
X00298*
Y-0028*
X00298*
Y-00281*
X00297*
Y-00281*
X00297*
Y-00282*
X00296*
Y-00282*
X00295*
Y-00283*
X00295*
Y-00283*
X00294*
Y-00283*
X00294*
Y-00284*
X00293*
Y-00284*
X00293*
Y-00285*
X00292*
Y-00285*
X00291*
Y-00286*
X00291*
Y-00286*
X0029*
Y-00287*
X00289*
Y-00287*
X00289*
Y-00288*
X00288*
Y-00288*
X00288*
Y-00288*
X00287*
Y-00289*
X00286*
Y-00289*
X00285*
Y-0029*
X00284*
Y-0029*
X00284*
Y-00291*
X00283*
Y-00291*
X00282*
Y-00292*
X00281*
Y-00292*
X00281*
Y-00292*
X0028*
Y-00293*
X00279*
Y-00293*
X00278*
Y-00294*
X00277*
Y-00294*
X00276*
Y-00295*
X00275*
Y-00295*
X00274*
Y-00296*
X00273*
Y-00296*
X00272*
Y-00297*
X00271*
Y-00297*
X0027*
Y-00297*
X00269*
Y-00298*
X00267*
Y-00298*
X00266*
Y-00299*
X00265*
Y-00299*
X00263*
Y-003*
X00261*
Y-003*
X0026*
Y-00301*
X00258*
Y-00301*
X00255*
Y-00302*
X00253*
Y-00302*
X00251*
Y-00302*
X00247*
Y-00303*
X00244*
Y-00303*
X0024*
Y-00304*
X00233*
Y-00304*
X00217*
Y-00305*
X00216*
Y-00306*
X00216*
Y-00306*
X00217*
Y-00306*
X00218*
Y-00307*
X00219*
Y-00307*
X0022*
Y-00308*
X00221*
Y-00308*
X00222*
Y-00309*
X00223*
Y-00309*
X00224*
Y-0031*
X00224*
Y-0031*
X00224*
Y-00311*
X00225*
Y-00311*
X00225*
Y-00315*
X00225*
Y-00316*
X00224*
Y-00316*
X00224*
Y-00316*
X00224*
Y-00317*
X00223*
Y-00317*
X00222*
Y-00318*
X00221*
Y-00318*
X00219*
Y-00319*
X00218*
Y-00319*
X00215*
Y-0032*
X00214*
Y-0032*
X00213*
Y-0032*
X00213*
Y-00323*
X00213*
Y-00324*
X00214*
Y-00324*
X00216*
Y-00325*
X00218*
Y-00325*
X0022*
Y-00325*
X00221*
Y-00326*
X00222*
Y-00326*
X00223*
Y-00327*
X00224*
Y-00327*
X00224*
Y-00328*
X00224*
Y-00331*
X00224*
Y-00331*
X00224*
Y-00332*
X00223*
Y-00332*
X00222*
Y-00333*
X00221*
Y-00333*
X0022*
Y-00334*
X00219*
Y-00334*
X00216*
Y-00334*
X00213*
Y-00335*
X0021*
Y-00335*
X00203*
Y-00336*
X00193*
Y-00335*
X00189*
Y-00335*
X00179*
Y-00335*
X00175*
Y-00336*
X00171*
Y-00336*
X00168*
Y-00337*
X00166*
Y-00337*
X00163*
Y-00338*
X0016*
Y-00338*
X00157*
Y-00339*
X00153*
Y-00339*
X0015*
Y-00339*
X00146*
Y-0034*
X00141*
Y-0034*
X00132*
Y-00341*
X00119*
Y-0034*
X00108*
Y-0034*
X00101*
Y-00339*
X00096*
Y-00339*
X00092*
Y-00339*
X00088*
Y-00338*
X00084*
Y-00338*
X00081*
Y-00337*
X00077*
Y-00337*
X00073*
Y-00336*
X00068*
Y-00336*
X00047*
Y-00336*
X00041*
Y-00337*
X00038*
Y-00337*
X00034*
Y-00338*
X00031*
Y-00338*
X00027*
Y-00339*
X00023*
Y-00339*
X0002*
Y-00339*
X00016*
Y-0034*
X00012*
Y-0034*
X00008*
Y-00341*
X00002*
Y-00341*
X-00012*
Y-00341*
X-0002*
Y-0034*
X-00024*
Y-0034*
X-00028*
Y-00339*
X-00032*
Y-00339*
X-00034*
Y-00339*
X-00037*
Y-00338*
X-0004*
Y-00338*
X-00042*
Y-00337*
X-00044*
Y-00337*
X-00046*
Y-00336*
X-00047*
Y-00336*
X-00049*
Y-00335*
X-0005*
Y-00335*
X-00051*
Y-00334*
X-00052*
Y-00334*
X-00052*
Y-00334*
X-00053*
Y-00333*
X-00053*
Y-00333*
X-00054*
Y-0033*
X-00053*
Y-00329*
X-00053*
Y-00329*
X-00052*
Y-00328*
X-00052*
Y-00328*
X-00052*
Y-00327*
X-00051*
Y-00327*
X-00049*
Y-00326*
X-00047*
Y-00326*
X-00045*
Y-00325*
X-00044*
Y-00325*
X-00044*
Y-00325*
X-00044*
Y-00324*
X-00045*
Y-00324*
X-00045*
Y-00323*
X-00047*
Y-00323*
X-00049*
Y-00322*
X-00055*
Y-00322*
X-00061*
Y-00321*
X-00066*
Y-00321*
X-00068*
Y-0032*
X-00071*
Y-0032*
X-00072*
Y-0032*
X-00073*
Y-00319*
X-00075*
Y-00319*
X-00075*
Y-00318*
X-00076*
Y-00318*
X-00076*
Y-00317*
X-00077*
Y-00317*
X-00077*
Y-00316*
X-00078*
Y-00313*
X-00077*
Y-00312*
X-00077*
Y-00311*
X-00076*
Y-00311*
X-00076*
Y-0031*
X-00075*
Y-0031*
X-00075*
Y-00309*
X-00074*
Y-00309*
X-00073*
Y-00308*
X-00072*
Y-00308*
X-00071*
Y-00307*
X-0007*
Y-00307*
X-00068*
Y-00306*
X-00066*
Y-00306*
X-00064*
Y-00306*
X-00062*
Y-00305*
X-00059*
Y-00305*
X-00056*
Y-00304*
X-00052*
Y-00304*
X-00047*
Y-00303*
X-00041*
Y-00303*
X-00038*
Y-00302*
X-00038*
Y-00302*
X-00038*
Y-00302*
X-00038*
Y-00301*
X-00039*
Y-003*
X-00039*
Y-003*
X-0004*
Y-00299*
X-0004*
Y-00298*
X-00041*
Y-00298*
X-00041*
Y-00297*
X-00042*
Y-00297*
X-00042*
Y-00296*
X-00042*
Y-00295*
X-00043*
Y-00295*
X-00043*
Y-00294*
X-00044*
Y-00293*
X-00044*
Y-00292*
X-00045*
Y-00292*
X-00045*
Y-00291*
X-00046*
Y-00291*
X-00046*
Y-0029*
X-00047*
Y-00289*
X-00047*
Y-00288*
X-00047*
Y-00287*
X-00048*
Y-00287*
X-00049*
Y-00287*
X-0005*
Y-00288*
X-00051*
Y-00288*
X-00053*
Y-00288*
X-00057*
Y-00288*
X-0006*
Y-00288*
X-00061*
Y-00287*
X-00061*
Y-00287*
X-00062*
Y-00286*
X-00063*
Y-00286*
X-00063*
Y-00285*
X-00064*
Y-00285*
X-00064*
Y-00284*
X-00065*
Y-00283*
X-00065*
Y-00283*
X-00066*
Y-00281*
X-00066*
Y-00278*
X-00066*
Y-00276*
X-00065*
Y-00275*
X-00065*
Y-00274*
X-00064*
Y-00273*
X-00064*
Y-00273*
X-00063*
Y-00273*
X-00063*
Y-00272*
X-00062*
Y-00266*
X-00063*
Y-00262*
X-00063*
Y-00249*
X-00066*
Y-00249*
X-00068*
Y-00248*
X-0007*
Y-00248*
X-00071*
Y-00247*
X-00072*
Y-00247*
X-00073*
Y-00246*
X-00074*
Y-00246*
X-00075*
Y-00245*
X-00075*
Y-00245*
X-00076*
Y-00245*
X-00076*
Y-00244*
X-00077*
Y-00244*
X-00077*
Y-00243*
X-00078*
Y-00243*
X-00078*
Y-00242*
X-00079*
Y-00241*
X-00079*
Y-0024*
X-0008*
Y-00236*
X-00079*
Y-00235*
X-00079*
Y-00234*
X-00078*
Y-00233*
X-00078*
Y-00233*
X-00077*
Y-00232*
X-00077*
Y-00231*
X-00076*
Y-00231*
X-00076*
Y-00231*
X-00075*
Y-0023*
X-00075*
Y-0023*
X-00075*
Y-00229*
X-00074*
Y-00229*
X-00074*
Y-00228*
X-00073*
Y-00228*
X-00072*
Y-00227*
X-00072*
Y-00227*
X-00071*
Y-00227*
X-00071*
Y-00226*
X-0007*
Y-00226*
X-0007*
Y-00225*
X-00069*
Y-00225*
X-00069*
Y-00224*
X-00068*
Y-00224*
X-00068*
Y-00223*
X-00067*
Y-00223*
X-00067*
Y-00222*
X-00066*
Y-00222*
X-00066*
Y-00222*
X-00066*
Y-00221*
X-00065*
Y-00221*
X-00065*
Y-0022*
X-00064*
Y-00219*
X-00064*
Y-00219*
X-00063*
Y-00218*
X-00063*
Y-00217*
X-00062*
Y-00216*
X-00062*
Y-00215*
X-00061*
Y-00214*
X-00061*
Y-00213*
X-00061*
Y-00212*
X-0006*
Y-00211*
X-0006*
Y-00209*
X-00059*
Y-00208*
X-00059*
Y-00206*
X-00058*
Y-00203*
X-00058*
Y-002*
X-00057*
Y-00198*
X-00063*
Y-00197*
X-00067*
Y-00197*
X-00068*
Y-00196*
X-0007*
Y-00196*
X-00071*
Y-00195*
X-00072*
Y-00195*
X-00072*
Y-00194*
X-00073*
Y-00194*
X-00074*
Y-00194*
X-00074*
Y-00193*
X-00075*
Y-00193*
X-00075*
Y-00192*
X-00075*
Y-00192*
X-00076*
Y-00191*
X-00076*
Y-0019*
X-00077*
Y-00189*
X-00077*
Y-00187*
X-00078*
Y-00185*
X-00077*
Y-00184*
X-00077*
Y-00183*
X-00076*
Y-00182*
X-00076*
Y-00181*
X-00075*
Y-0018*
X-00075*
Y-0018*
X-00075*
Y-0018*
X-00074*
Y-00179*
X-00074*
Y-00179*
X-00073*
Y-00178*
X-00073*
Y-00178*
X-00072*
Y-00177*
X-00072*
Y-00177*
X-00071*
Y-00176*
X-00071*
Y-00176*
X-0007*
Y-00175*
X-0007*
Y-00175*
X-00069*
Y-00175*
X-00069*
Y-00174*
X-00068*
Y-00174*
X-00067*
Y-00173*
X-00067*
Y-00173*
X-00066*
Y-00172*
X-00066*
Y-00172*
X-00066*
Y-00171*
X-00065*
Y-00171*
X-00065*
Y-0017*
X-00064*
Y-0017*
X-00064*
Y-0017*
X-00063*
Y-00169*
X-00063*
Y-00168*
X-00062*
Y-00168*
X-00061*
Y-00167*
X-00061*
Y-00166*
X-00061*
Y-00166*
X-0006*
Y-00166*
X-0006*
Y-00165*
X-00059*
Y-00164*
X-00059*
Y-00164*
X-00058*
Y-00163*
X-00058*
Y-00162*
X-00057*
Y-00162*
X-00057*
Y-00161*
X-00056*
Y-00161*
X-00056*
Y-0016*
X-00056*
Y-00159*
X-00055*
Y-00158*
X-00055*
Y-00158*
X-00054*
Y-00157*
X-00054*
Y-00156*
X-00053*
Y-00155*
X-00053*
Y-00154*
X-00052*
Y-00153*
X-00052*
Y-00152*
X-00052*
Y-00151*
X-00051*
Y-0015*
X-00051*
Y-00149*
X-00051*
Y-00149*
X-00052*
Y-00148*
X-00054*
Y-00148*
X-00055*
Y-00147*
X-00056*
Y-00147*
X-00057*
Y-00147*
X-00058*
Y-00146*
X-00059*
Y-00146*
X-0006*
Y-00145*
X-00061*
Y-00145*
X-00061*
Y-00144*
X-00063*
Y-00144*
X-00064*
Y-00143*
X-00065*
Y-00143*
X-00066*
Y-00142*
X-00066*
Y-00142*
X-00067*
Y-00142*
X-00068*
Y-00141*
X-00069*
Y-00141*
X-0007*
Y-0014*
X-0007*
Y-0014*
X-00071*
Y-00139*
X-00071*
Y-00139*
X-00072*
Y-00138*
X-00073*
Y-00138*
X-00074*
Y-00138*
X-00075*
Y-00138*
X-00076*
Y-00138*
X-00077*
Y-00139*
X-00079*
Y-00139*
X-0008*
Y-0014*
X-00082*
Y-0014*
X-00084*
Y-00141*
X-0009*
Y-0014*
X-00091*
Y-0014*
X-00093*
Y-00139*
X-00094*
Y-00139*
X-00095*
Y-00138*
X-00096*
Y-00138*
X-00096*
Y-00138*
X-00097*
Y-00137*
X-00098*
Y-00137*
X-00098*
Y-00136*
X-00099*
Y-00136*
X-00099*
Y-00135*
X-00099*
Y-00134*
X-001*
Y-00133*
X-001*
Y-00133*
X-00101*
Y-00132*
X-00101*
Y-0013*
X-00102*
Y-00129*
X-00102*
Y-00127*
X-00103*
Y-00122*
X-00102*
Y-0012*
X-00102*
Y-00119*
X-00102*
Y-00119*
X-00103*
Y-00119*
X-00105*
Y-00119*
X-00106*
Y-0012*
X-00107*
Y-0012*
X-00109*
Y-00121*
X-00111*
Y-00121*
X-00113*
Y-00122*
X-00123*
Y-00121*
X-00125*
Y-00121*
X-00126*
Y-0012*
X-00127*
Y-0012*
X-00128*
Y-00119*
X-00128*
Y-00119*
X-00129*
Y-00119*
X-0013*
Y-00118*
X-0013*
Y-00118*
X-00131*
Y-00117*
X-00131*
Y-00117*
X-00131*
Y-00116*
X-00132*
Y-00115*
X-00132*
Y-00115*
X-00133*
Y-00114*
X-00133*
Y-00113*
X-00134*
Y-00112*
X-00134*
Y-00111*
X-00135*
Y-0011*
X-00135*
Y-00107*
X-00136*
Y-00104*
X-00136*
Y-00094*
X-00136*
Y-0009*
X-00135*
Y-00087*
X-00135*
Y-00086*
X-00134*
Y-00083*
X-00134*
Y-00081*
X-00133*
Y-00081*
X-00133*
Y-00079*
X-00132*
Y-00078*
X-00132*
Y-00077*
X-00131*
Y-00076*
X-00131*
Y-00075*
X-00131*
Y-00074*
X-00131*
Y-00073*
X-00133*
Y-00073*
X-00134*
Y-00072*
X-00135*
Y-00072*
X-00136*
Y-00072*
X-00136*
Y-00071*
X-00137*
Y-00071*
X-00138*
Y-0007*
X-00139*
Y-0007*
X-0014*
Y-00069*
X-0014*
Y-00069*
X-00141*
Y-00068*
X-00141*
Y-00068*
X-00142*
Y-00067*
X-00142*
Y-00067*
X-00143*
Y-00067*
X-00144*
Y-00066*
X-00144*
Y-00066*
X-00145*
Y-00065*
X-00145*
Y-00065*
X-00145*
Y-00064*
X-00146*
Y-00064*
X-00146*
Y-00063*
X-00147*
Y-00063*
X-00147*
Y-00063*
X-00148*
Y-00062*
X-00148*
Y-00061*
X-00149*
Y-00061*
X-00149*
Y-0006*
X-0015*
Y-00059*
X-0015*
Y-00059*
X-0015*
Y-00058*
X-00151*
Y-00058*
X-00151*
Y-00057*
X-00152*
Y-00056*
X-00152*
Y-00055*
X-00153*
Y-00054*
X-00153*
Y-00053*
X-00154*
Y-00053*
X-00154*
Y-00052*
X-00155*
Y-0005*
X-00155*
Y-00049*
X-00155*
Y-00048*
X-00156*
Y-00047*
X-00156*
Y-00045*
X-00157*
Y-00043*
X-00157*
Y-00039*
X-00157*
Y-00036*
X-00156*
Y-00035*
X-00156*
Y-00035*
X-00155*
Y-00034*
X-00155*
Y-00033*
X-00155*
Y-00033*
X-00154*
Y-00032*
X-00154*
Y-00032*
X-00153*
Y-00031*
X-00153*
Y-00031*
X-00152*
Y-0003*
X-00151*
Y-0003*
X-00151*
Y-0003*
X-0015*
Y-00029*
X-00148*
Y-00029*
X-00134*
Y-00028*
X-00131*
Y-00028*
X-00129*
Y-00027*
X-00127*
Y-00027*
X-00126*
Y-00026*
X-00124*
Y-00026*
X-00123*
Y-00025*
X-00122*
Y-00025*
X-00121*
Y-00025*
X-0012*
Y-00024*
X-00119*
Y-00024*
X-00118*
Y-00023*
X-00118*
Y-00023*
X-00117*
Y-00022*
X-00117*
Y-00022*
X-00116*
Y-00021*
X-00115*
Y-00021*
X-00115*
Y-00019*
X-00115*
Y-00018*
X-00116*
Y-00017*
X-00116*
Y-00016*
X-00117*
Y-00015*
X-00117*
Y-00013*
X-00117*
Y-0001*
X-00117*
Y-00007*
X-00117*
Y-00007*
X-00116*
Y-00005*
X-00116*
Y-00004*
X-00115*
Y-00003*
X-00115*
Y-00002*
X-00114*
Y-00002*
X-00114*
Y-00002*
X-00113*
Y-00001*
X-00113*
Y0*
X-00113*
Y0*
X-00114*
Y0*
X-00115*
Y0*
X-00116*
Y00001*
X-00117*
Y00001*
X-00118*
Y00002*
X-00119*
Y00002*
X-0012*
Y00002*
X-0012*
Y00003*
X-00121*
Y00003*
X-00122*
Y00004*
X-00122*
Y00004*
X-00123*
Y00005*
X-00124*
Y00005*
X-00124*
Y00006*
X-00125*
Y00006*
X-00126*
Y00007*
X-00126*
Y00007*
X-00127*
Y00007*
X-00127*
Y00008*
X-00128*
Y00008*
X-00128*
Y00009*
X-00129*
Y00009*
X-0013*
Y0001*
X-0013*
Y0001*
X-00131*
Y00011*
X-00131*
Y00011*
X-00131*
Y00011*
X-00132*
Y00012*
X-00132*
Y00012*
X-00133*
Y00013*
X-00133*
Y00013*
X-00134*
Y00014*
X-00134*
Y00014*
X-00135*
Y00015*
X-00135*
Y00015*
X-00136*
Y00016*
X-00136*
Y00016*
X-00136*
Y00017*
X-00137*
Y00017*
X-00137*
Y00018*
X-00138*
Y00019*
X-00138*
Y00019*
X-00139*
Y0002*
X-00139*
Y00021*
X-0014*
Y00021*
X-0014*
Y00022*
X-00141*
Y00022*
X-00141*
Y00023*
X-00141*
Y00024*
X-00142*
Y00025*
X-00142*
Y00025*
X-00143*
Y00026*
X-00143*
Y00027*
X-00144*
Y00028*
X-00144*
Y00028*
X-00145*
Y00029*
X-00145*
Y0003*
X-00145*
Y00031*
X-00146*
Y00032*
X-00146*
Y00033*
X-00147*
Y00034*
X-00147*
Y00035*
X-00148*
Y00036*
X-00148*
Y00037*
X-00149*
Y00038*
X-00149*
Y00039*
X-0015*
Y00041*
X-0015*
Y00042*
X-0015*
Y00044*
X-00151*
Y00045*
X-00151*
Y00046*
X-00152*
Y00048*
X-00152*
Y0005*
X-00153*
Y00052*
X-00153*
Y00055*
X-00154*
Y00058*
X-00154*
Y00062*
X-00155*
Y00081*
X-00154*
Y00086*
X-00154*
Y0009*
X-00153*
Y00093*
X-00153*
Y00095*
X-00152*
Y00097*
X-00152*
Y00099*
X-00151*
Y00101*
X-00151*
Y00103*
X-0015*
Y00104*
X-0015*
Y00106*
X-0015*
Y00108*
X-00149*
Y00109*
X-00149*
Y0011*
X-00148*
Y00111*
X-00148*
Y00112*
X-00147*
Y00114*
X-00147*
Y00115*
X-00146*
Y00116*
X-00146*
Y00117*
X-00145*
Y00118*
X-00145*
Y00119*
X-00145*
Y0012*
X-00144*
Y00121*
X-00144*
Y00122*
X-00143*
Y00123*
X-00143*
Y00124*
X-00142*
Y00125*
X-00142*
Y00125*
X-00141*
Y00126*
X-00141*
Y00127*
X-00141*
Y00128*
X-0014*
Y00129*
X-0014*
Y0013*
X-00139*
Y0013*
X-00139*
Y00131*
X-00138*
Y00132*
X-00138*
Y00133*
X-00137*
Y00133*
X-00137*
Y00134*
X-00136*
Y00135*
X-00136*
Y00135*
X-00136*
Y00136*
X-00135*
Y00137*
X-00135*
Y00138*
X-00134*
Y00138*
X-00134*
Y00139*
X-00133*
Y00139*
X-00133*
Y0014*
X-00132*
Y00141*
X-00132*
Y00141*
X-00131*
Y00142*
X-00131*
Y00142*
X-00131*
Y00143*
X-0013*
Y00143*
X-0013*
Y00144*
X-00129*
Y00144*
X-00129*
Y00145*
X-00128*
Y00145*
X-00128*
Y00146*
X-00127*
Y00147*
X-00127*
Y00147*
X-00127*
Y00147*
X-00126*
Y00148*
X-00126*
Y00149*
X-00125*
Y00149*
X-00125*
Y0015*
X-00124*
Y0015*
X-00124*
Y00151*
X-00123*
Y00151*
X-00123*
Y00152*
X-00122*
Y00152*
X-00122*
Y00152*
X-00122*
Y00153*
X-00121*
Y00153*
X-00121*
Y00154*
X-0012*
Y00154*
X-0012*
Y00155*
X-00119*
Y00155*
X-00119*
Y00156*
X-00118*
Y00156*
X-00118*
Y00156*
X-00117*
Y00157*
X-00117*
Y00157*
X-00116*
Y00158*
X-00116*
Y00158*
X-00115*
Y00159*
X-00115*
Y00159*
X-00114*
Y0016*
X-00113*
Y0016*
X-00113*
Y00161*
X-00113*
Y00161*
X-00112*
Y00161*
X-00112*
Y00162*
X-00111*
Y00162*
X-0011*
Y00163*
X-0011*
Y00163*
X-00109*
Y00164*
X-00108*
Y00164*
X-00108*
Y00165*
X-00107*
Y00165*
X-00107*
Y00166*
X-00106*
Y00166*
X-00105*
Y00166*
X-00105*
Y00167*
X-00104*
Y00167*
X-00103*
Y00168*
X-00103*
Y00168*
X-00102*
Y00169*
X-00101*
Y00169*
X-001*
Y0017*
X-00099*
Y0017*
X-00099*
Y0017*
X-00098*
Y00171*
X-00097*
Y00171*
X-00097*
Y00172*
X-00095*
Y00172*
X-00095*
Y00173*
X-00094*
Y00173*
X-00093*
Y00174*
X-00092*
Y00174*
X-00091*
Y00175*
X-0009*
Y00175*
X-00089*
Y00175*
X-00088*
Y00176*
X-00086*
Y00176*
X-00085*
Y00177*
X-00084*
Y00177*
X-00083*
Y00178*
X-00081*
Y00178*
X-0008*
Y00179*
X-00078*
Y00179*
X-00077*
Y0018*
X-00075*
Y0018*
X-00073*
Y0018*
X-00071*
Y00181*
X-00068*
Y00181*
X-00065*
Y00182*
X-00061*
Y00182*
X-00046*
Y00182*
X-00042*
Y00181*
X-00039*
Y00181*
X-00037*
Y0018*
X-00034*
Y0018*
X-00033*
Y0018*
X-00031*
Y00179*
X-00029*
Y00179*
X-00028*
Y00178*
X-00027*
Y00178*
X-00025*
Y00177*
X-00024*
Y00177*
X-00023*
Y00176*
X-00022*
Y00176*
X-00021*
Y00175*
X-00019*
Y00175*
X-00019*
Y00175*
X-00018*
Y00174*
X-00017*
Y00174*
X-00016*
Y00173*
X-00015*
Y00173*
X-00014*
Y00172*
X-00014*
Y00172*
X-00013*
Y00171*
X-00012*
Y00171*
X-00011*
Y0017*
X-0001*
Y0017*
X-0001*
Y0017*
X-00009*
Y00169*
X-00009*
Y00169*
X-00008*
Y00168*
X-00007*
Y00168*
X-00006*
Y00167*
X-00006*
Y00167*
X-00005*
Y00166*
X-00005*
Y00166*
X-00004*
Y00166*
X-00004*
Y00165*
X-00003*
Y00165*
X-00002*
Y00164*
X-00002*
Y00164*
X-00001*
Y00163*
X-00001*
Y00163*
X0*
Y00162*
X0*
Y00162*
X0*
Y00161*
X0*
Y00161*
X0*
Y00161*
X00001*
Y0016*
X00001*
Y0016*
X00002*
Y00159*
X00002*
Y00159*
X00003*
Y00158*
X00003*
Y00158*
X00003*
Y00157*
X00004*
Y00157*
X00004*
Y00156*
X00005*
Y00156*
X00005*
Y00156*
X00006*
Y00155*
X00006*
Y00154*
X00007*
Y00154*
X00007*
Y00153*
X00008*
Y00153*
X00008*
Y00152*
X0001*
Y00153*
X00012*
Y00153*
X00015*
Y00154*
X00019*
Y00154*
X00023*
Y00155*
X00043*
Y00154*
X00047*
Y00154*
X0005*
Y00153*
X00053*
Y00153*
X00055*
Y00152*
X00058*
Y00152*
X0006*
Y00152*
X00062*
Y00151*
X00064*
Y00151*
X00065*
Y0015*
X00067*
Y0015*
X00069*
Y00149*
X0007*
Y00149*
X00071*
Y00148*
X00073*
Y00148*
X00074*
Y00147*
X00075*
Y00147*
X00076*
Y00147*
X00078*
Y00151*
X00078*
Y00154*
X00079*
Y00156*
X00079*
Y00158*
X0008*
Y0016*
X0008*
Y00161*
X00081*
Y00162*
X00081*
Y00164*
X00082*
Y00165*
X00082*
Y00166*
X00083*
Y00166*
X00083*
Y00167*
X00083*
Y00168*
X00084*
Y00169*
X00084*
Y00169*
X00085*
Y0017*
X00085*
Y0017*
X00086*
Y00171*
X00086*
Y00172*
X00087*
Y00172*
X00087*
Y00173*
X00088*
Y00173*
X00088*
Y00174*
X00088*
Y00175*
X00089*
Y00175*
X00089*
Y00175*
X0009*
Y00176*
X0009*
Y00176*
X00091*
Y00177*
X00092*
Y00177*
X00092*
Y00178*
X00092*
Y00178*
X00093*
Y00179*
X00093*
Y00179*
X00094*
Y0018*
X00095*
Y0018*
X00096*
Y0018*
X00096*
Y00181*
X00097*
Y00181*
X00098*
Y00182*
X00098*
Y00182*
X00099*
Y00183*
X001*
Y00183*
X00101*
Y00184*
X00102*
Y00184*
X00103*
Y00185*
X00104*
Y00185*
X00106*
Y00185*
X00107*
Y00186*
X00109*
Y00186*
X00115*
Y00186*
G37*
G36*
X-001Y-00151D02*
X-001D01*
Y-00152*
X-00099*
Y-00152*
X-00099*
Y-00156*
X-00099*
Y-00158*
X-001*
Y-0016*
X-001*
Y-00162*
X-00101*
Y-00164*
X-00101*
Y-00167*
X-00102*
Y-0017*
X-00101*
Y-00172*
X-00101*
Y-00173*
X-001*
Y-00174*
X-001*
Y-00174*
X-00099*
Y-00175*
X-00099*
Y-00175*
X-00097*
Y-00175*
X-00095*
Y-00175*
X-00094*
Y-00175*
X-00093*
Y-00174*
X-00093*
Y-00174*
X-00092*
Y-00173*
X-00092*
Y-00172*
X-00091*
Y-00171*
X-00091*
Y-00166*
X-00091*
Y-00162*
X-00092*
Y-00155*
X-00091*
Y-00154*
X-00091*
Y-00154*
X-0009*
Y-00153*
X-00089*
Y-00154*
X-00088*
Y-00155*
X-00088*
Y-00155*
X-00087*
Y-00156*
X-00087*
Y-00158*
X-00086*
Y-00159*
X-00086*
Y-00161*
X-00085*
Y-00163*
X-00085*
Y-00165*
X-00085*
Y-00167*
X-00084*
Y-00169*
X-00084*
Y-00175*
X-00084*
Y-00176*
X-00085*
Y-00177*
X-00085*
Y-00178*
X-00085*
Y-00178*
X-00086*
Y-00179*
X-00086*
Y-0018*
X-00087*
Y-0018*
X-00087*
Y-0018*
X-00088*
Y-00181*
X-00088*
Y-00181*
X-00089*
Y-00182*
X-0009*
Y-00182*
X-0009*
Y-00183*
X-00092*
Y-00183*
X-00094*
Y-00184*
X-00099*
Y-00183*
X-00101*
Y-00183*
X-00102*
Y-00182*
X-00103*
Y-00182*
X-00103*
Y-00181*
X-00104*
Y-00181*
X-00105*
Y-0018*
X-00105*
Y-0018*
X-00106*
Y-0018*
X-00106*
Y-00179*
X-00107*
Y-00179*
X-00107*
Y-00178*
X-00108*
Y-00177*
X-00108*
Y-00177*
X-00108*
Y-00175*
X-00109*
Y-00174*
X-00109*
Y-00168*
X-00109*
Y-00166*
X-00108*
Y-00165*
X-00108*
Y-00163*
X-00108*
Y-00162*
X-00107*
Y-00161*
X-00107*
Y-00159*
X-00106*
Y-00159*
Y-00158*
Y-00158*
X-00106*
Y-00157*
X-00105*
Y-00156*
X-00105*
Y-00154*
X-00104*
Y-00153*
X-00104*
Y-00152*
X-00103*
Y-00152*
X-00103*
Y-00152*
X-00103*
Y-00151*
X-00102*
Y-00151*
X-001*
Y-00151*
G37*
G36*
X-00099Y-00311D02*
X-00095D01*
Y-00311*
X-00094*
Y-00312*
X-00092*
Y-00312*
X-0009*
Y-00313*
X-00089*
Y-00313*
X-00088*
Y-00314*
X-00088*
Y-00314*
X-00087*
Y-00315*
X-00086*
Y-00315*
X-00086*
Y-00316*
X-00085*
Y-00317*
X-00085*
Y-00319*
X-00085*
Y-0032*
X-00086*
Y-00321*
X-00086*
Y-00322*
X-00087*
Y-00322*
X-00088*
Y-00323*
X-00088*
Y-00323*
X-00089*
Y-00324*
X-0009*
Y-00324*
X-00092*
Y-00325*
X-00094*
Y-00325*
X-00097*
Y-00325*
X-00112*
Y-00325*
X-00115*
Y-00325*
X-00117*
Y-00324*
X-00119*
Y-00324*
X-0012*
Y-00323*
X-00121*
Y-00323*
X-00122*
Y-00322*
X-00122*
Y-00322*
X-00123*
Y-00321*
X-00123*
Y-00321*
X-00124*
Y-0032*
X-00124*
Y-00316*
X-00124*
Y-00316*
X-00123*
Y-00315*
X-00123*
Y-00315*
X-00122*
Y-00314*
X-00122*
Y-00314*
X-00121*
Y-00313*
X-0012*
Y-00313*
X-00119*
Y-00312*
X-00118*
Y-00312*
X-00116*
Y-00311*
X-00114*
Y-00311*
X-0011*
Y-00311*
X-00099*
Y-00311*
G37*
G36*
X00263Y-0031D02*
X00267D01*
Y-00311*
X0027*
Y-00311*
X00272*
Y-00311*
X00274*
Y-00312*
X00276*
Y-00312*
X00277*
Y-00313*
X00278*
Y-00313*
X00279*
Y-00314*
X0028*
Y-00314*
X00281*
Y-00315*
X00281*
Y-00315*
X00282*
Y-00316*
X00282*
Y-00316*
X00283*
Y-00316*
X00283*
Y-00317*
X00284*
Y-00318*
X00284*
Y-00321*
X00284*
Y-00322*
X00283*
Y-00323*
X00283*
Y-00323*
X00282*
Y-00324*
X00282*
Y-00324*
X00281*
Y-00325*
X0028*
Y-00325*
X0028*
Y-00325*
X00278*
Y-00326*
X00277*
Y-00326*
X00276*
Y-00327*
X00274*
Y-00327*
X00271*
Y-00328*
X00269*
Y-00328*
X00266*
Y-00329*
X00248*
Y-00328*
X00245*
Y-00328*
X00242*
Y-00327*
X0024*
Y-00327*
X00238*
Y-00326*
X00237*
Y-00326*
X00235*
Y-00325*
X00234*
Y-00325*
X00233*
Y-00325*
X00233*
Y-00324*
X00232*
Y-00324*
X00231*
Y-00323*
X00231*
Y-00323*
X0023*
Y-00322*
X00229*
Y-00321*
X00229*
Y-00317*
X00229*
Y-00317*
X0023*
Y-00316*
X0023*
Y-00316*
X00231*
Y-00315*
X00231*
Y-00315*
X00232*
Y-00314*
X00233*
Y-00314*
X00233*
Y-00313*
X00234*
Y-00313*
X00236*
Y-00312*
X00237*
Y-00312*
X00238*
Y-00311*
X00241*
Y-00311*
X00243*
Y-00311*
X00247*
Y-0031*
X00251*
Y-0031*
X00263*
Y-0031*
G37*
G36*
X-00084Y-00331D02*
X-00082D01*
Y-00331*
X-00081*
Y-00332*
X-00081*
Y-00332*
X-0008*
Y-00333*
X-0008*
Y-00336*
X-0008*
Y-00336*
X-00081*
Y-00337*
X-00082*
Y-00337*
X-00084*
Y-00338*
X-00091*
Y-00337*
X-00092*
Y-00337*
X-00093*
Y-00336*
X-00093*
Y-00336*
X-00094*
Y-00335*
X-00094*
Y-00333*
X-00094*
Y-00332*
X-00093*
Y-00332*
X-00092*
Y-00331*
X-00092*
Y-00331*
X-0009*
Y-0033*
X-00084*
Y-00331*
G37*
%LNpcb1_legend_bot-2*%
%LPC*%
G36*
X-00047Y00167D02*
X-00059D01*
Y00166*
X-00064*
Y00166*
X-00067*
Y00166*
X-0007*
Y00165*
X-00071*
Y00164*
X-00067*
Y00164*
X-00066*
Y00163*
X-00064*
Y00163*
X-00062*
Y00162*
X-0006*
Y00162*
X-00059*
Y00161*
X-00057*
Y00161*
X-00056*
Y00161*
X-00055*
Y0016*
X-00054*
Y0016*
X-00053*
Y00159*
X-00052*
Y00159*
X-00051*
Y00158*
X-0005*
Y00158*
X-00049*
Y00157*
X-00048*
Y00157*
X-00048*
Y00156*
X-00047*
Y00156*
X-00046*
Y00156*
X-00046*
Y00155*
X-00045*
Y00155*
X-00044*
Y00154*
X-00044*
Y00154*
X-00043*
Y00153*
X-00042*
Y00153*
X-00042*
Y00152*
X-00041*
Y00152*
X-00041*
Y00152*
X-0004*
Y00151*
X-00039*
Y00151*
X-00039*
Y0015*
X-00038*
Y0015*
X-00038*
Y00149*
X-00038*
Y00149*
X-00037*
Y00148*
X-00037*
Y00148*
X-00036*
Y00147*
X-00036*
Y00147*
X-00035*
Y00147*
X-00035*
Y00146*
X-00034*
Y00146*
X-00034*
Y00145*
X-00033*
Y00145*
X-00033*
Y00144*
X-00033*
Y00144*
X-00032*
Y00143*
X-00032*
Y00143*
X-00031*
Y00142*
X-0003*
Y00142*
X-00028*
Y00142*
X-00028*
Y00142*
X-00027*
Y00143*
X-00025*
Y00143*
X-00024*
Y00144*
X-00024*
Y00144*
X-00022*
Y00145*
X-00021*
Y00145*
X-0002*
Y00146*
X-00019*
Y00146*
X-00017*
Y00147*
X-00015*
Y00147*
X-00014*
Y00147*
X-00012*
Y00148*
X-0001*
Y00148*
X-00009*
Y00149*
X-0001*
Y00149*
X-0001*
Y0015*
X-0001*
Y0015*
X-00011*
Y00151*
X-00011*
Y00151*
X-00012*
Y00152*
X-00013*
Y00152*
X-00013*
Y00152*
X-00014*
Y00153*
X-00014*
Y00153*
X-00015*
Y00154*
X-00015*
Y00154*
X-00016*
Y00155*
X-00017*
Y00155*
X-00017*
Y00156*
X-00018*
Y00156*
X-00019*
Y00156*
X-00019*
Y00157*
X-0002*
Y00157*
X-00021*
Y00158*
X-00022*
Y00158*
X-00023*
Y00159*
X-00024*
Y00159*
X-00024*
Y0016*
X-00025*
Y0016*
X-00026*
Y00161*
X-00027*
Y00161*
X-00028*
Y00161*
X-00029*
Y00162*
X-0003*
Y00162*
X-00031*
Y00163*
X-00032*
Y00163*
X-00034*
Y00164*
X-00035*
Y00164*
X-00036*
Y00165*
X-00038*
Y00165*
X-00039*
Y00166*
X-00042*
Y00166*
X-00043*
Y00166*
X-00047*
Y00167*
G37*
G36*
X00109Y00169D02*
X00108D01*
Y00169*
X00107*
Y00168*
X00106*
Y00168*
X00105*
Y00167*
X00104*
Y00167*
X00103*
Y00166*
X00102*
Y00166*
X00102*
Y00166*
X00101*
Y00165*
X00101*
Y00165*
X001*
Y00164*
X001*
Y00164*
X00099*
Y00163*
X00099*
Y00163*
X00098*
Y00162*
X00098*
Y00161*
X00097*
Y00161*
X00097*
Y0016*
X00097*
Y00159*
X00096*
Y00159*
X00096*
Y00158*
X00095*
Y00156*
X00095*
Y00156*
X00094*
Y00154*
X00094*
Y00152*
X00093*
Y0015*
X00093*
Y00142*
X00093*
Y0014*
X00094*
Y00138*
X00094*
Y00136*
X00095*
Y00134*
X00095*
Y00133*
X00096*
Y00132*
X00096*
Y00131*
X00097*
Y00129*
X00097*
Y00129*
X00097*
Y00128*
X00098*
Y00127*
X00098*
Y00126*
X00099*
Y00125*
X00099*
Y00125*
X001*
Y00124*
X001*
Y00124*
X00101*
Y00123*
X00101*
Y00122*
X00102*
Y00121*
X00102*
Y00121*
X00102*
Y0012*
X00103*
Y00119*
X00103*
Y00119*
X00104*
Y00118*
X00104*
Y00118*
X00105*
Y00117*
X00103*
Y00117*
X00102*
Y00118*
X00101*
Y00118*
X00101*
Y00119*
X00099*
Y00119*
X00098*
Y00119*
X00097*
Y0012*
X00097*
Y0012*
X00096*
Y00121*
X00094*
Y00121*
X00093*
Y00122*
X00092*
Y00122*
X00092*
Y00123*
X00091*
Y00123*
X0009*
Y00124*
X00089*
Y00124*
X00088*
Y00124*
X00087*
Y00125*
X00086*
Y00125*
X00085*
Y00126*
X00084*
Y00126*
X00083*
Y00127*
X00082*
Y00127*
X00081*
Y00128*
X0008*
Y00128*
X00079*
Y00128*
X00078*
Y00129*
X00077*
Y00129*
X00076*
Y0013*
X00075*
Y0013*
X00074*
Y00131*
X00072*
Y00131*
X00071*
Y00132*
X0007*
Y00132*
X00069*
Y00133*
X00068*
Y00133*
X00066*
Y00133*
X00065*
Y00134*
X00064*
Y00134*
X00062*
Y00135*
X00061*
Y00135*
X00059*
Y00136*
X00057*
Y00136*
X00055*
Y00137*
X00053*
Y00137*
X00051*
Y00138*
X00048*
Y00138*
X00046*
Y00138*
X00042*
Y00139*
X0002*
Y00138*
X00016*
Y00138*
X00012*
Y00138*
X00009*
Y00137*
X00007*
Y00137*
X00004*
Y00136*
X00003*
Y00136*
X0*
Y00135*
X-00001*
Y00135*
X-00002*
Y00134*
X-00005*
Y00134*
X-00006*
Y00133*
X-00008*
Y00133*
X-0001*
Y00133*
X-00011*
Y00132*
X-00012*
Y00132*
X-00014*
Y00131*
X-00015*
Y00131*
X-00017*
Y0013*
X-00019*
Y0013*
X-00019*
Y00129*
X-00021*
Y00129*
X-00022*
Y00128*
X-00023*
Y00128*
X-00024*
Y00128*
X-00025*
Y00127*
X-00026*
Y00127*
X-00028*
Y00126*
X-00028*
Y00126*
X-0003*
Y00125*
X-00031*
Y00125*
X-00032*
Y00124*
X-00033*
Y00124*
X-00034*
Y00123*
X-00033*
Y00123*
X-00033*
Y00122*
X-00032*
Y00122*
X-00031*
Y00121*
X-0003*
Y00121*
X-00029*
Y0012*
X-00028*
Y0012*
X-00028*
Y00119*
X-00026*
Y00119*
X-00026*
Y00119*
X-00024*
Y00118*
X-00024*
Y00118*
X-00022*
Y00117*
X-00021*
Y00117*
X-00019*
Y00116*
X-00018*
Y00116*
X-00016*
Y00115*
X-00014*
Y00115*
X-00012*
Y00114*
X-00009*
Y00114*
X-00006*
Y00114*
X-00003*
Y00113*
X0*
Y00113*
X00003*
Y00112*
X00005*
Y00112*
X00005*
Y00111*
X00005*
Y00111*
X00004*
Y0011*
X00003*
Y0011*
X00001*
Y0011*
X0*
Y00109*
X-00001*
Y00109*
X-00002*
Y00108*
X-00004*
Y00108*
X-00005*
Y00107*
X-00006*
Y00107*
X-00008*
Y00106*
X-0001*
Y00106*
X-0001*
Y00105*
X-00012*
Y00105*
X-00013*
Y00105*
X-00014*
Y00104*
X-00016*
Y00104*
X-00017*
Y00103*
X-00018*
Y00103*
X-00019*
Y00102*
X-0002*
Y00102*
X-00022*
Y00101*
X-00023*
Y00101*
X-00024*
Y001*
X-00025*
Y001*
X-00026*
Y001*
X-00028*
Y00099*
X-00028*
Y00099*
X-00029*
Y00098*
X-00031*
Y00098*
X-00032*
Y00097*
X-00033*
Y00097*
X-00034*
Y00096*
X-00035*
Y00096*
X-00036*
Y00096*
X-00037*
Y00095*
X-00038*
Y00095*
X-00039*
Y00094*
X-0004*
Y00094*
X-00041*
Y00093*
X-00042*
Y00093*
X-00043*
Y00092*
X-00044*
Y00092*
X-00045*
Y00091*
X-00046*
Y00091*
X-00047*
Y00091*
X-00047*
Y0009*
X-00049*
Y0009*
X-0005*
Y00089*
X-00051*
Y00089*
X-00052*
Y00088*
X-00052*
Y00088*
X-00053*
Y00087*
X-00054*
Y00087*
X-00055*
Y00086*
X-00056*
Y00086*
X-00056*
Y00086*
X-00057*
Y00085*
X-00058*
Y00085*
X-00059*
Y00084*
X-0006*
Y00084*
X-0006*
Y00083*
X-00061*
Y00083*
X-00062*
Y00082*
X-00062*
Y00082*
X-00063*
Y00081*
X-00064*
Y00081*
X-00065*
Y00081*
X-00066*
Y0008*
X-00066*
Y0008*
X-00067*
Y00079*
X-00068*
Y00079*
X-00068*
Y00078*
X-00069*
Y00078*
X-0007*
Y00077*
X-0007*
Y00077*
X-00071*
Y00077*
X-00071*
Y00076*
X-00072*
Y00076*
X-00073*
Y00075*
X-00073*
Y00075*
X-00074*
Y00074*
X-00075*
Y00074*
X-00075*
Y00073*
X-00075*
Y00073*
X-00076*
Y00072*
X-00076*
Y00072*
X-00077*
Y00072*
X-00078*
Y00071*
X-00078*
Y00071*
X-00079*
Y0007*
X-00079*
Y0007*
X-0008*
Y00069*
X-0008*
Y00069*
X-00081*
Y00068*
X-00081*
Y00068*
X-00082*
Y00067*
X-00082*
Y00067*
X-00083*
Y00067*
X-00083*
Y00066*
X-00084*
Y00066*
X-00084*
Y00065*
X-00085*
Y00065*
X-00085*
Y00064*
X-00085*
Y00064*
X-00086*
Y00063*
X-00086*
Y00063*
X-00087*
Y00062*
X-00087*
Y00062*
X-00088*
Y00061*
X-00088*
Y00061*
X-00089*
Y0006*
X-00089*
Y0006*
X-00089*
Y00059*
X-0009*
Y00058*
X-0009*
Y00058*
X-00091*
Y00057*
X-00091*
Y00057*
X-00092*
Y00056*
X-00092*
Y00055*
X-00093*
Y00055*
X-00093*
Y00054*
X-00094*
Y00053*
X-00094*
Y00052*
X-00094*
Y00052*
X-00095*
Y00051*
X-00095*
Y0005*
X-00096*
Y00049*
X-00096*
Y00048*
X-00097*
Y00047*
X-00097*
Y00046*
X-00098*
Y00045*
X-00098*
Y00044*
X-00099*
Y00043*
X-00099*
Y00041*
X-00099*
Y00041*
X-00098*
Y00041*
X-00097*
Y00042*
X-00097*
Y00042*
X-00096*
Y00043*
X-00095*
Y00043*
X-00095*
Y00044*
X-00094*
Y00044*
X-00094*
Y00044*
X-00093*
Y00045*
X-00093*
Y00045*
X-00092*
Y00046*
X-00091*
Y00046*
X-0009*
Y00047*
X-0009*
Y00047*
X-00089*
Y00048*
X-00088*
Y00048*
X-00088*
Y00049*
X-00087*
Y00049*
X-00086*
Y00049*
X-00085*
Y0005*
X-00084*
Y0005*
X-00084*
Y00051*
X-00083*
Y00051*
X-00082*
Y00052*
X-00081*
Y00052*
X-0008*
Y00053*
X-00079*
Y00053*
X-00078*
Y00053*
X-00077*
Y00054*
X-00076*
Y00054*
X-00075*
Y00055*
X-00074*
Y00055*
X-00073*
Y00056*
X-00072*
Y00056*
X-00071*
Y00057*
X-00069*
Y00057*
X-00067*
Y00058*
X-00066*
Y00058*
X-00061*
Y00058*
X-00061*
Y00057*
X-0006*
Y00054*
X-00061*
Y00054*
X-00061*
Y00053*
X-00061*
Y00053*
X-00062*
Y00053*
X-00063*
Y00052*
X-00063*
Y00052*
X-00064*
Y00051*
X-00064*
Y00051*
X-00065*
Y0005*
X-00065*
Y0005*
X-00066*
Y00049*
X-00066*
Y00049*
X-00066*
Y00048*
X-00067*
Y00048*
X-00067*
Y00047*
X-00068*
Y00047*
X-00068*
Y00046*
X-00069*
Y00046*
X-00069*
Y00045*
X-0007*
Y00045*
X-0007*
Y00044*
X-00071*
Y00044*
X-00071*
Y00043*
X-00071*
Y00042*
X-00072*
Y00042*
X-00072*
Y00041*
X-00073*
Y0004*
X-00073*
Y0004*
X-00074*
Y00039*
X-00074*
Y00039*
X-00075*
Y00038*
X-00075*
Y00037*
X-00075*
Y00036*
X-00076*
Y00035*
X-00076*
Y00035*
X-00077*
Y00034*
X-00077*
Y00033*
X-00078*
Y00032*
X-00078*
Y00031*
X-00079*
Y0003*
X-00079*
Y0003*
X-0008*
Y00029*
X-0008*
Y00028*
X-0008*
Y00027*
X-00081*
Y00025*
X-00081*
Y00025*
X-00082*
Y00024*
X-00082*
Y00022*
X-00083*
Y00021*
X-00083*
Y0002*
X-00084*
Y00019*
X-00084*
Y00018*
X-00085*
Y00016*
X-00085*
Y00015*
X-00085*
Y00013*
X-00086*
Y00012*
X-00086*
Y00011*
X-00087*
Y00009*
X-00087*
Y00007*
X-00088*
Y00005*
X-00088*
Y00003*
X-00089*
Y00001*
X-00089*
Y-00001*
X-00089*
Y-00003*
X-0009*
Y-00006*
X-0009*
Y-00009*
X-00091*
Y-00011*
X-00091*
Y-00016*
X-00092*
Y-00022*
X-00092*
Y-00026*
X-00093*
Y-00029*
X-00093*
Y-0003*
X-00094*
Y-0003*
X-00094*
Y-00031*
X-00097*
Y-0003*
X-00098*
Y-0003*
X-00098*
Y-0003*
X-00099*
Y-00029*
X-00099*
Y-00027*
X-00099*
Y-00027*
X-001*
Y-00027*
X-00101*
Y-00028*
X-00101*
Y-00029*
X-00102*
Y-00029*
X-00103*
Y-0003*
X-00103*
Y-0003*
X-00103*
Y-0003*
X-00104*
Y-00031*
X-00105*
Y-00031*
X-00105*
Y-00032*
X-00106*
Y-00032*
X-00106*
Y-00033*
X-00107*
Y-00033*
X-00108*
Y-00034*
X-00108*
Y-00034*
X-00109*
Y-00035*
X-00109*
Y-00035*
X-0011*
Y-00035*
X-00111*
Y-00036*
X-00112*
Y-00036*
X-00112*
Y-00037*
X-00113*
Y-00037*
X-00113*
Y-00038*
X-00114*
Y-00038*
X-00115*
Y-00039*
X-00116*
Y-00039*
X-00117*
Y-00039*
X-00118*
Y-0004*
X-00119*
Y-0004*
X-0012*
Y-00041*
X-00122*
Y-00041*
X-00123*
Y-00042*
X-00124*
Y-00042*
X-00126*
Y-00043*
X-00128*
Y-00043*
X-00131*
Y-00044*
X-00136*
Y-00044*
X-00137*
Y-00044*
X-00141*
Y-00044*
X-00141*
Y-00045*
X-00141*
Y-00046*
X-0014*
Y-00047*
X-0014*
Y-00048*
X-00139*
Y-00049*
X-00139*
Y-00049*
X-00138*
Y-0005*
X-00138*
Y-00051*
X-00137*
Y-00051*
X-00137*
Y-00052*
X-00136*
Y-00053*
X-00136*
Y-00053*
X-00136*
Y-00053*
X-00135*
Y-00054*
X-00135*
Y-00054*
X-00134*
Y-00055*
X-00134*
Y-00055*
X-00133*
Y-00056*
X-00133*
Y-00056*
X-00132*
Y-00057*
X-00131*
Y-00057*
X-00131*
Y-00058*
X-0013*
Y-00058*
X-0013*
Y-00058*
X-00129*
Y-00059*
X-00128*
Y-00059*
X-00127*
Y-0006*
X-00126*
Y-0006*
X-00124*
Y-00061*
X-00123*
Y-00061*
X-0012*
Y-00062*
X-00113*
Y-00061*
X-00112*
Y-00058*
X-00111*
Y-00057*
X-00111*
Y-00056*
X-0011*
Y-00056*
X-0011*
Y-00055*
X-00109*
Y-00055*
X-00109*
Y-00054*
X-00108*
Y-00054*
X-00108*
Y-00053*
X-00108*
Y-00053*
X-00107*
Y-00053*
X-00106*
Y-00052*
X-00105*
Y-00052*
X-00104*
Y-00051*
X-00103*
Y-00051*
X-00102*
Y-0005*
X-001*
Y-0005*
X-00097*
Y-0005*
X-00096*
Y-00051*
X-00096*
Y-00051*
X-00095*
Y-00053*
X-00096*
Y-00053*
X-00096*
Y-00054*
X-00097*
Y-00054*
X-00099*
Y-00055*
X-001*
Y-00055*
X-00101*
Y-00056*
X-00102*
Y-00056*
X-00103*
Y-00057*
X-00103*
Y-00057*
X-00104*
Y-00058*
X-00105*
Y-00058*
X-00105*
Y-00058*
X-00106*
Y-00059*
X-00106*
Y-00062*
X-00106*
Y-00063*
X-00105*
Y-00063*
X-00103*
Y-00063*
X-00101*
Y-00062*
X-001*
Y-00062*
X-00097*
Y-00062*
X-00097*
Y-00063*
X-00096*
Y-00064*
X-00097*
Y-00064*
X-00097*
Y-00065*
X-00098*
Y-00065*
X-00098*
Y-00066*
X-00099*
Y-00066*
X-00099*
Y-00067*
X-001*
Y-00067*
X-00101*
Y-00067*
X-00102*
Y-00068*
X-00104*
Y-00068*
X-00107*
Y-00068*
X-00108*
Y-00067*
X-00109*
Y-00068*
X-0011*
Y-00068*
X-0011*
Y-00069*
X-00111*
Y-00069*
X-00111*
Y-0007*
X-00112*
Y-0007*
X-00112*
Y-00071*
X-00113*
Y-00072*
X-00113*
Y-00072*
X-00113*
Y-00073*
X-00114*
Y-00074*
X-00114*
Y-00074*
X-00115*
Y-00075*
X-00115*
Y-00076*
X-00116*
Y-00077*
X-00116*
Y-00078*
X-00117*
Y-00079*
X-00117*
Y-0008*
X-00117*
Y-00081*
X-00118*
Y-00081*
X-00118*
Y-00083*
X-00119*
Y-00084*
X-00119*
Y-00086*
X-0012*
Y-00087*
X-0012*
Y-00089*
X-00121*
Y-00091*
X-00121*
Y-00102*
X-00121*
Y-00105*
X-0012*
Y-00106*
X-0012*
Y-00107*
X-00119*
Y-00107*
X-00115*
Y-00107*
X-00113*
Y-00106*
X-00112*
Y-00106*
X-00111*
Y-00105*
X-0011*
Y-00105*
X-00109*
Y-00105*
X-00108*
Y-00104*
X-00108*
Y-00104*
X-00107*
Y-00103*
X-00106*
Y-00103*
X-00105*
Y-00102*
X-00105*
Y-00101*
X-00105*
Y-001*
X-00106*
Y-00099*
X-00106*
Y-00098*
X-00107*
Y-00096*
X-00107*
Y-00096*
X-00108*
Y-00094*
X-00108*
Y-00092*
X-00108*
Y-00087*
X-00108*
Y-00086*
X-00108*
Y-00085*
X-00107*
Y-00085*
X-00107*
Y-00084*
X-00106*
Y-00083*
X-00102*
Y-00084*
X-00101*
Y-00084*
X-00101*
Y-00085*
X-001*
Y-00085*
X-001*
Y-00086*
X-00099*
Y-00086*
X-00099*
Y-00087*
X-00099*
Y-00088*
X-00098*
Y-0009*
X-00098*
Y-00091*
X-00097*
Y-00092*
X-00097*
Y-00094*
X-00096*
Y-00095*
X-00096*
Y-00096*
X-00095*
Y-00097*
X-00095*
Y-00098*
X-00094*
Y-00099*
X-00094*
Y-001*
X-00094*
Y-001*
X-00093*
Y-00101*
X-00093*
Y-00102*
X-00092*
Y-00102*
X-00092*
Y-00103*
X-00091*
Y-00104*
X-00091*
Y-00105*
X-0009*
Y-00105*
X-0009*
Y-00105*
X-00089*
Y-00106*
X-00089*
Y-00107*
X-00089*
Y-00107*
X-00088*
Y-00108*
X-00088*
Y-00109*
X-00087*
Y-00109*
X-00087*
Y-0011*
X-00086*
Y-0011*
X-00086*
Y-0011*
X-00085*
Y-00111*
X-00085*
Y-00111*
X-00085*
Y-00112*
X-00084*
Y-00112*
X-00084*
Y-00113*
X-00083*
Y-00113*
X-00083*
Y-00114*
X-00082*
Y-00114*
X-00082*
Y-00114*
X-00081*
Y-00115*
X-00081*
Y-00115*
X-0008*
Y-00116*
X-0008*
Y-00116*
X-00079*
Y-00117*
X-00079*
Y-00117*
X-00078*
Y-00118*
X-00078*
Y-00118*
X-00077*
Y-00119*
X-00076*
Y-00119*
X-00076*
Y-00119*
X-00075*
Y-0012*
X-00075*
Y-0012*
X-00074*
Y-00121*
X-00073*
Y-00121*
X-00073*
Y-00122*
X-00072*
Y-00122*
X-00071*
Y-00123*
X-00071*
Y-00123*
X-0007*
Y-00124*
X-00069*
Y-00124*
X-00068*
Y-00124*
X-00068*
Y-00125*
X-00067*
Y-00125*
X-00066*
Y-00126*
X-00066*
Y-00126*
X-00065*
Y-00127*
X-00064*
Y-00127*
X-00063*
Y-00128*
X-00062*
Y-00128*
X-00061*
Y-00128*
X-00061*
Y-00129*
X-0006*
Y-00129*
X-00059*
Y-0013*
X-00058*
Y-0013*
X-00057*
Y-00131*
X-00056*
Y-00131*
X-00056*
Y-00132*
X-00055*
Y-00132*
X-00054*
Y-00133*
X-00052*
Y-00133*
X-00052*
Y-00133*
X-0005*
Y-00134*
X-00049*
Y-00134*
X-00048*
Y-00135*
X-00047*
Y-00135*
X-00046*
Y-00136*
X-00044*
Y-00136*
X-00043*
Y-00137*
X-00042*
Y-00137*
X-0004*
Y-00138*
X-00038*
Y-00138*
X-00037*
Y-00138*
X-00035*
Y-00139*
X-00034*
Y-00139*
X-00032*
Y-0014*
X-0003*
Y-0014*
X-00028*
Y-00141*
X-00026*
Y-00141*
X-00024*
Y-00142*
X-00021*
Y-00142*
X-0002*
Y-00142*
X-00019*
Y-00143*
X-00019*
Y-00143*
X-00018*
Y-00144*
X-00018*
Y-00144*
X-00017*
Y-00145*
X-00017*
Y-00146*
X-00016*
Y-00148*
X-00017*
Y-00149*
X-00017*
Y-0015*
X-00018*
Y-00151*
X-00018*
Y-00151*
X-00019*
Y-00152*
X-00019*
Y-00152*
X-0002*
Y-00152*
X-00021*
Y-00153*
X-00029*
Y-00152*
X-00032*
Y-00152*
X-00036*
Y-00153*
X-00036*
Y-00154*
X-00037*
Y-00154*
X-00037*
Y-00155*
X-00038*
Y-00156*
X-00038*
Y-00157*
X-00038*
Y-00158*
X-00039*
Y-00159*
X-00039*
Y-00159*
X-0004*
Y-0016*
X-0004*
Y-00161*
X-00041*
Y-00161*
X-00041*
Y-00162*
X-00042*
Y-00163*
X-00042*
Y-00164*
X-00042*
Y-00165*
X-00043*
Y-00166*
X-00043*
Y-00166*
X-00044*
Y-00167*
X-00044*
Y-00168*
X-00045*
Y-00168*
X-00045*
Y-00169*
X-00046*
Y-0017*
X-00046*
Y-0017*
X-00047*
Y-00171*
X-00047*
Y-00171*
X-00047*
Y-00172*
X-00048*
Y-00173*
X-00048*
Y-00174*
X-00049*
Y-00174*
X-00049*
Y-00175*
X-0005*
Y-00175*
X-0005*
Y-00176*
X-00051*
Y-00176*
X-00051*
Y-00177*
X-00052*
Y-00177*
X-00052*
Y-00178*
X-00052*
Y-00179*
X-00053*
Y-00179*
X-00053*
Y-0018*
X-00054*
Y-0018*
X-00054*
Y-0018*
X-00055*
Y-00181*
X-00055*
Y-00182*
X-00054*
Y-00181*
X-00051*
Y-00181*
X-00051*
Y-0018*
X-0005*
Y-0018*
X-00049*
Y-0018*
X-00049*
Y-00179*
X-00048*
Y-00179*
X-00048*
Y-00178*
X-00047*
Y-00178*
X-00047*
Y-00177*
X-00046*
Y-00177*
X-00045*
Y-00176*
X-00044*
Y-00177*
X-00043*
Y-00178*
X-00043*
Y-00178*
X-00043*
Y-0018*
X-00044*
Y-00181*
X-00044*
Y-00184*
X-00045*
Y-00187*
X-00045*
Y-00194*
X-00045*
Y-00196*
X-00044*
Y-00198*
X-00044*
Y-00199*
X-00043*
Y-00201*
X-00043*
Y-00202*
X-00042*
Y-00203*
X-00042*
Y-00203*
X-00042*
Y-00204*
X-00041*
Y-00205*
X-00041*
Y-00206*
X-0004*
Y-00206*
X-0004*
Y-00207*
X-00039*
Y-00208*
X-00039*
Y-00208*
X-00038*
Y-00208*
X-00038*
Y-00209*
X-00038*
Y-00209*
X-00037*
Y-0021*
X-00037*
Y-0021*
X-00036*
Y-00211*
X-00036*
Y-00211*
X-00035*
Y-00212*
X-00034*
Y-00212*
X-00034*
Y-00213*
X-00033*
Y-00213*
X-00033*
Y-00213*
X-00032*
Y-00214*
X-00031*
Y-00214*
X-0003*
Y-00215*
X-00029*
Y-00215*
X-00028*
Y-00216*
X-00026*
Y-00216*
X-00025*
Y-00217*
X-00022*
Y-00217*
X-00019*
Y-00217*
X-00017*
Y-00216*
X-00016*
Y-00216*
X-00015*
Y-00215*
X-00015*
Y-00215*
X-00014*
Y-00214*
X-00014*
Y-00213*
X-00014*
Y-00212*
X-00013*
Y-00205*
X-00014*
Y-00203*
X-00014*
Y-00201*
X-00014*
Y-00199*
X-00015*
Y-00198*
X-00015*
Y-00197*
X-00016*
Y-00196*
X-00016*
Y-00194*
X-00017*
Y-00194*
X-00017*
Y-00192*
X-00018*
Y-00192*
X-00018*
Y-0019*
X-00019*
Y-00189*
X-00019*
Y-00189*
X-00019*
Y-00188*
X-0002*
Y-00187*
X-0002*
Y-00185*
X-00021*
Y-00184*
X-00021*
Y-00181*
X-00021*
Y-0018*
X-0002*
Y-00179*
X-0002*
Y-00178*
X-00019*
Y-00177*
X-00019*
Y-00177*
X-00019*
Y-00176*
X-00018*
Y-00176*
X-00016*
Y-00175*
X-00013*
Y-00176*
X-00012*
Y-00176*
X-00011*
Y-00177*
X-00011*
Y-00177*
X-0001*
Y-00178*
X-0001*
Y-00178*
X-00009*
Y-00179*
X-00009*
Y-0018*
X-00008*
Y-0018*
X-00008*
Y-00181*
X-00007*
Y-00182*
X-00007*
Y-00183*
X-00006*
Y-00184*
X-00006*
Y-00185*
X-00005*
Y-00185*
X-00005*
Y-00186*
X-00005*
Y-00187*
X-00004*
Y-00189*
X-00004*
Y-00189*
X-00003*
Y-00191*
X-00003*
Y-00192*
X-00002*
Y-00193*
X-00002*
Y-00195*
X-00001*
Y-00196*
X-00001*
Y-00198*
X0*
Y-00199*
X0*
Y-00202*
X0*
Y-00204*
X0*
Y-00213*
X0*
Y-00215*
X0*
Y-00217*
X0*
Y-00217*
X-00001*
Y-00219*
X-00001*
Y-0022*
X-00002*
Y-00221*
X-00002*
Y-00221*
X-00003*
Y-00222*
X-00003*
Y-00222*
X-00004*
Y-00223*
X-00004*
Y-00223*
X-00005*
Y-00224*
X-00005*
Y-00225*
X-00006*
Y-00225*
X-00006*
Y-00226*
X-00007*
Y-00226*
X-00007*
Y-00227*
X-00008*
Y-00227*
X-00009*
Y-00227*
X-0001*
Y-00228*
X-0001*
Y-00228*
X-00011*
Y-00229*
X-00013*
Y-00229*
X-00014*
Y-0023*
X-00017*
Y-0023*
X-00026*
Y-0023*
X-00028*
Y-00229*
X-0003*
Y-00229*
X-00032*
Y-00228*
X-00033*
Y-00228*
X-00034*
Y-00227*
X-00035*
Y-00227*
X-00036*
Y-00227*
X-00037*
Y-00226*
X-00038*
Y-00226*
X-00038*
Y-00225*
X-00039*
Y-00225*
X-0004*
Y-00224*
X-0004*
Y-00224*
X-00041*
Y-00223*
X-00042*
Y-00223*
X-00042*
Y-00222*
X-00042*
Y-00222*
X-00043*
Y-00222*
X-00043*
Y-00221*
X-00044*
Y-00221*
X-00044*
Y-0022*
X-00045*
Y-0022*
X-00045*
Y-00219*
X-00046*
Y-00219*
X-00046*
Y-00218*
X-00047*
Y-00218*
X-00047*
Y-00218*
X-00048*
Y-00219*
X-00048*
Y-00221*
X-00049*
Y-00222*
X-00049*
Y-00222*
X-0005*
Y-00223*
X-0005*
Y-00224*
X-00051*
Y-00225*
X-00051*
Y-00226*
X-00052*
Y-00226*
X-00052*
Y-00227*
X-00052*
Y-00228*
X-00053*
Y-00228*
X-00053*
Y-00229*
X-00054*
Y-0023*
X-00054*
Y-0023*
X-00055*
Y-00231*
X-00055*
Y-00231*
X-00056*
Y-00232*
X-00056*
Y-00232*
X-00056*
Y-00233*
X-00057*
Y-00233*
X-00057*
Y-00234*
X-00058*
Y-00235*
X-00054*
Y-00234*
X-00053*
Y-00234*
X-00052*
Y-00233*
X-00052*
Y-00233*
X-00051*
Y-00232*
X-00051*
Y-00232*
X-0005*
Y-00231*
X-00049*
Y-00231*
X-00049*
Y-00231*
X-00048*
Y-0023*
X-00048*
Y-0023*
X-00047*
Y-00229*
X-00047*
Y-00229*
X-00047*
Y-00228*
X-00046*
Y-00228*
X-00045*
Y-00228*
X-00045*
Y-00229*
X-00044*
Y-00229*
X-00044*
Y-00231*
X-00044*
Y-00232*
X-00045*
Y-00233*
X-00045*
Y-00234*
X-00046*
Y-00235*
X-00046*
Y-00236*
X-00047*
Y-00237*
X-00047*
Y-00238*
X-00047*
Y-0024*
X-00048*
Y-00241*
X-00048*
Y-00242*
X-00049*
Y-00244*
X-00049*
Y-00246*
X-0005*
Y-00255*
X-00049*
Y-00259*
X-00049*
Y-00259*
X-00047*
Y-00259*
X-00047*
Y-00258*
X-00047*
Y-00256*
X-00046*
Y-00255*
X-00046*
Y-00255*
X-00045*
Y-00254*
X-00045*
Y-00253*
X-00044*
Y-00252*
X-00044*
Y-00251*
X-00043*
Y-0025*
X-00043*
Y-0025*
X-00042*
Y-0025*
X-00041*
Y-0025*
X-00041*
Y-00251*
X-00041*
Y-0026*
X-00041*
Y-00265*
X-0004*
Y-00268*
X-0004*
Y-0027*
X-00039*
Y-00271*
X-00039*
Y-00273*
X-00038*
Y-00275*
X-00038*
Y-00276*
X-00038*
Y-00277*
X-00037*
Y-00278*
X-00037*
Y-00279*
X-00036*
Y-0028*
X-00036*
Y-00281*
X-00035*
Y-00282*
X-00035*
Y-00283*
X-00034*
Y-00284*
X-00034*
Y-00285*
X-00033*
Y-00286*
X-00033*
Y-00286*
X-00033*
Y-00287*
X-00032*
Y-00288*
X-00032*
Y-00288*
X-00031*
Y-00289*
X-00031*
Y-0029*
X-0003*
Y-00291*
X-0003*
Y-00291*
X-00029*
Y-00292*
X-00029*
Y-00292*
X-00028*
Y-00292*
X-00028*
Y-00293*
X-00028*
Y-00294*
X-00027*
Y-00294*
X-00026*
Y-00295*
X-00026*
Y-00292*
X-00025*
Y-00291*
X-00025*
Y-00291*
X-00024*
Y-0029*
X-00024*
Y-00288*
X-00024*
Y-00287*
X-00025*
Y-00286*
X-00025*
Y-00283*
X-00026*
Y-00282*
X-00025*
Y-00278*
X-00025*
Y-00276*
X-00024*
Y-00274*
X-00024*
Y-00273*
X-00024*
Y-00273*
X-00023*
Y-00272*
X-00023*
Y-00272*
X-00021*
Y-00272*
X-0002*
Y-00273*
X-0002*
Y-00278*
X-0002*
Y-00283*
X-0002*
Y-00285*
X-00019*
Y-00286*
X-00019*
Y-00286*
X-00018*
Y-00287*
X-00016*
Y-00286*
X-00015*
Y-00286*
X-00015*
Y-00285*
X-00014*
Y-00283*
X-00015*
Y-0028*
X-00014*
Y-00279*
X-00014*
Y-00278*
X-00013*
Y-00278*
X-00012*
Y-00279*
X-00011*
Y-00279*
X-00011*
Y-0028*
X-0001*
Y-00281*
X-0001*
Y-00284*
X-0001*
Y-00286*
X-0001*
Y-00288*
X-0001*
Y-00288*
X-00011*
Y-00289*
X-00011*
Y-0029*
X-00012*
Y-0029*
X-00013*
Y-00291*
X-00013*
Y-00291*
X-00014*
Y-00292*
X-00015*
Y-00292*
X-00019*
Y-00292*
X-0002*
Y-00291*
X-00021*
Y-00291*
X-00022*
Y-0029*
X-00022*
Y-00292*
X-00022*
Y-00293*
X-00021*
Y-00294*
X-00021*
Y-00294*
X-0002*
Y-00295*
X-0002*
Y-00295*
X-0001*
Y-00296*
X-00006*
Y-00296*
X-00003*
Y-00297*
X-00001*
Y-00297*
X0*
Y-00297*
X00003*
Y-00298*
X00004*
Y-00298*
X00005*
Y-00299*
X00007*
Y-00299*
X00008*
Y-003*
X00009*
Y-003*
X00011*
Y-00301*
X00012*
Y-00301*
X00013*
Y-00302*
X00014*
Y-00302*
X00015*
Y-00302*
X00017*
Y-00303*
X00019*
Y-00302*
X00018*
Y-00301*
X00018*
Y-003*
X00017*
Y-003*
X00017*
Y-00299*
X00017*
Y-00299*
X00016*
Y-00298*
X00016*
Y-00297*
X00015*
Y-00297*
X00015*
Y-00296*
X00014*
Y-00296*
X00014*
Y-00295*
X00013*
Y-00295*
X00013*
Y-00294*
X00013*
Y-00293*
X00012*
Y-00293*
X00012*
Y-00292*
X00011*
Y-00292*
X00011*
Y-00291*
X0001*
Y-0029*
X0001*
Y-00289*
X00009*
Y-00289*
X00009*
Y-00288*
X00008*
Y-00288*
X00008*
Y-00287*
X00008*
Y-00286*
X00007*
Y-00285*
X00007*
Y-00284*
X00006*
Y-00282*
X00007*
Y-00281*
X00007*
Y-00281*
X00008*
Y-0028*
X00009*
Y-00281*
X0001*
Y-00281*
X00011*
Y-00282*
X00011*
Y-00282*
X00012*
Y-00283*
X00012*
Y-00283*
X00013*
Y-00283*
X00013*
Y-00284*
X00013*
Y-00284*
X00014*
Y-00285*
X00014*
Y-00285*
X00015*
Y-00286*
X00015*
Y-00286*
X00016*
Y-00287*
X00016*
Y-00287*
X00017*
Y-00288*
X00017*
Y-00288*
X00018*
Y-00288*
X00018*
Y-00289*
X00019*
Y-00289*
X0002*
Y-0029*
X00021*
Y-0029*
X00022*
Y-00291*
X00022*
Y-00291*
X00023*
Y-00292*
X00024*
Y-00292*
X00025*
Y-00292*
X00026*
Y-00293*
X00027*
Y-00293*
X00028*
Y-00294*
X0003*
Y-00294*
X00031*
Y-00295*
X00032*
Y-00295*
X00034*
Y-00296*
X00036*
Y-00296*
X00038*
Y-00297*
X0004*
Y-00297*
X00042*
Y-00297*
X00045*
Y-00298*
X00048*
Y-00298*
X00052*
Y-00299*
X00059*
Y-00299*
X00078*
Y-00299*
X00085*
Y-00298*
X00089*
Y-00298*
X00092*
Y-00297*
X00093*
Y-00293*
X00094*
Y-00291*
X00094*
Y-00289*
X00095*
Y-00288*
X00095*
Y-00287*
X00096*
Y-00286*
X00096*
Y-00285*
X00097*
Y-00284*
X00097*
Y-00283*
X00097*
Y-00283*
X00098*
Y-00282*
X00098*
Y-00281*
X00099*
Y-00281*
X00099*
Y-0028*
X001*
Y-0028*
X001*
Y-00279*
X00101*
Y-00279*
X00101*
Y-00278*
X00102*
Y-00278*
X00102*
Y-00278*
X00103*
Y-00277*
X00105*
Y-00278*
X00106*
Y-00278*
X00106*
Y-00281*
X00106*
Y-00282*
X00105*
Y-00283*
X00105*
Y-00283*
X00104*
Y-00283*
X00104*
Y-00284*
X00103*
Y-00285*
X00103*
Y-00286*
X00102*
Y-00287*
X00102*
Y-00288*
X00102*
Y-0029*
X00101*
Y-00297*
X00102*
Y-00299*
X00102*
Y-00301*
X00102*
Y-00301*
X00105*
Y-003*
X00105*
Y-00297*
X00106*
Y-00295*
X00106*
Y-00294*
X00106*
Y-00293*
X00107*
Y-00292*
X00107*
Y-00292*
X00108*
Y-00291*
X00108*
Y-00291*
X00109*
Y-0029*
X00109*
Y-0029*
X00111*
Y-0029*
X00112*
Y-00291*
X00112*
Y-00294*
X00112*
Y-00295*
X00111*
Y-00296*
X00111*
Y-00298*
X00111*
Y-00302*
X0011*
Y-00304*
X00111*
Y-00306*
X00112*
Y-00306*
X00113*
Y-00306*
X00114*
Y-00305*
X00114*
Y-00305*
X00115*
Y-00304*
X00116*
Y-00304*
X00117*
Y-00303*
X00119*
Y-00303*
X0012*
Y-00302*
X00121*
Y-00302*
X00123*
Y-00302*
X00125*
Y-00301*
X00128*
Y-00301*
X0013*
Y-003*
X00144*
Y-00301*
X00148*
Y-00301*
X0015*
Y-00302*
X00152*
Y-00302*
X00154*
Y-00302*
X00155*
Y-00303*
X00156*
Y-00303*
X00158*
Y-00304*
X00158*
Y-00304*
X0016*
Y-00305*
X00161*
Y-00305*
X00161*
Y-00306*
X00162*
Y-00306*
X00163*
Y-00306*
X00163*
Y-00307*
X00163*
Y-00307*
X00165*
Y-00307*
X00166*
Y-00306*
X00166*
Y-00306*
X00167*
Y-00305*
X00167*
Y-00305*
X00167*
Y-00304*
X00168*
Y-00303*
X00168*
Y-00303*
X00169*
Y-00302*
X00169*
Y-00302*
X0017*
Y-00301*
X0017*
Y-003*
X00171*
Y-00299*
X00171*
Y-00298*
X00172*
Y-00298*
X00172*
Y-00297*
X00172*
Y-00296*
X00173*
Y-00295*
X00173*
Y-00294*
X00174*
Y-00293*
X00174*
Y-00292*
X00175*
Y-00291*
X00175*
Y-0029*
X00176*
Y-00289*
X00176*
Y-00288*
X00177*
Y-00287*
X00177*
Y-00286*
X00177*
Y-00285*
X00178*
Y-00284*
X00178*
Y-00283*
X00179*
Y-00283*
X00179*
Y-00283*
X00181*
Y-00283*
X00181*
Y-00283*
X00182*
Y-00284*
X00182*
Y-00288*
X00182*
Y-0029*
X00181*
Y-00291*
X00181*
Y-00292*
X00181*
Y-00293*
X0018*
Y-00294*
X0018*
Y-00296*
X0018*
Y-00295*
X00181*
Y-00295*
X00182*
Y-00294*
X00182*
Y-00294*
X00183*
Y-00293*
X00184*
Y-00293*
X00185*
Y-00292*
X00186*
Y-00292*
X00186*
Y-00292*
X00187*
Y-00291*
X00187*
Y-00291*
X00188*
Y-0029*
X00188*
Y-0029*
X00189*
Y-00289*
X00189*
Y-00289*
X0019*
Y-00288*
X0019*
Y-00288*
X00191*
Y-00288*
X00191*
Y-00287*
X00191*
Y-00287*
X00192*
Y-00286*
X00192*
Y-00286*
X00193*
Y-00285*
X00193*
Y-00284*
X00194*
Y-00283*
X00194*
Y-00283*
X00195*
Y-00282*
X00195*
Y-00281*
X00195*
Y-0028*
X00196*
Y-00279*
X00196*
Y-00278*
X00197*
Y-00278*
X00197*
Y-00276*
X00198*
Y-00276*
X00198*
Y-00275*
X002*
Y-00276*
X002*
Y-00276*
X002*
Y-00277*
X00201*
Y-00277*
X00201*
Y-00278*
X00202*
Y-00278*
X00202*
Y-00279*
X00203*
Y-00279*
X00204*
Y-0028*
X00205*
Y-0028*
X00205*
Y-00281*
X00208*
Y-00281*
X00211*
Y-00281*
X00212*
Y-0028*
X00211*
Y-00279*
X00211*
Y-00278*
X0021*
Y-00278*
X0021*
Y-00277*
X0021*
Y-00276*
X00209*
Y-00276*
X00209*
Y-00274*
X00208*
Y-00273*
X00208*
Y-00273*
X00207*
Y-00272*
X00207*
Y-00271*
X00206*
Y-0027*
X00206*
Y-00269*
X00205*
Y-00268*
X00205*
Y-00266*
X00205*
Y-00265*
X00204*
Y-00264*
X00204*
Y-00262*
X00203*
Y-00261*
X00203*
Y-00259*
X00202*
Y-00258*
X00202*
Y-00257*
X00201*
Y-00256*
X00201*
Y-00255*
X00201*
Y-00255*
X00203*
Y-00255*
X00204*
Y-00256*
X00204*
Y-00256*
X00205*
Y-00257*
X00205*
Y-00257*
X00205*
Y-00258*
X00206*
Y-00258*
X00206*
Y-00259*
X00207*
Y-00259*
X00207*
Y-00259*
X00208*
Y-0026*
X00209*
Y-00259*
X00209*
Y-00258*
X0021*
Y-00257*
X0021*
Y-00246*
X0021*
Y-00245*
X00209*
Y-00243*
X00209*
Y-00242*
X00208*
Y-00241*
X00208*
Y-0024*
X00207*
Y-00239*
X00207*
Y-00238*
X00206*
Y-00237*
X00206*
Y-00235*
X00206*
Y-00234*
X00208*
Y-00235*
X00209*
Y-00235*
X00209*
Y-00236*
X0021*
Y-00236*
X0021*
Y-00236*
X0021*
Y-00237*
X00211*
Y-00237*
X00211*
Y-00238*
X00212*
Y-00238*
X00213*
Y-00239*
X00214*
Y-00239*
X00219*
Y-00239*
X00221*
Y-00238*
X00223*
Y-00238*
X00223*
Y-00237*
X00222*
Y-00236*
X00222*
Y-00236*
X00221*
Y-00236*
X00221*
Y-00235*
X0022*
Y-00235*
X0022*
Y-00234*
X00219*
Y-00234*
X00219*
Y-00233*
X00219*
Y-00233*
X00218*
Y-00232*
X00218*
Y-00231*
X00217*
Y-00231*
X00217*
Y-00231*
X00216*
Y-0023*
X00216*
Y-00229*
X00215*
Y-00228*
X00215*
Y-00228*
X00214*
Y-00227*
X00214*
Y-00227*
X00214*
Y-00226*
X00213*
Y-00225*
X00213*
Y-00224*
X00212*
Y-00222*
X00212*
Y-00222*
X00211*
Y-0022*
X00211*
Y-00218*
X0021*
Y-00217*
X0021*
Y-00214*
X0021*
Y-00212*
X00209*
Y-0021*
X00209*
Y-00208*
X00208*
Y-00206*
X00208*
Y-00204*
X00207*
Y-00203*
X00207*
Y-00202*
X00206*
Y-002*
X00206*
Y-00199*
X00205*
Y-00197*
X00205*
Y-00196*
X00205*
Y-00195*
X00204*
Y-00194*
X00204*
Y-00193*
X00203*
Y-00192*
X00203*
Y-00191*
X00202*
Y-0019*
X00202*
Y-00189*
X00201*
Y-00188*
X00201*
Y-00187*
X002*
Y-00186*
X002*
Y-00186*
X002*
Y-00185*
X00199*
Y-00185*
X00199*
Y-00184*
X00198*
Y-00182*
X00199*
Y-00182*
X002*
Y-00182*
X00201*
Y-00183*
X00202*
Y-00183*
X00202*
Y-00184*
X00203*
Y-00184*
X00204*
Y-00185*
X00204*
Y-00185*
X00205*
Y-00185*
X00207*
Y-00186*
X00208*
Y-00186*
X0021*
Y-00187*
X0021*
Y-00185*
X0021*
Y-00185*
X00209*
Y-00184*
X00209*
Y-00183*
X00208*
Y-00183*
X00208*
Y-00182*
X00207*
Y-00181*
X00207*
Y-0018*
X00206*
Y-0018*
X00206*
Y-00179*
X00205*
Y-00179*
X00205*
Y-00178*
X00205*
Y-00177*
X00204*
Y-00176*
X00204*
Y-00175*
X00203*
Y-00175*
X00203*
Y-00174*
X00202*
Y-00173*
X00202*
Y-00172*
X00201*
Y-00171*
X00201*
Y-00171*
X002*
Y-0017*
X002*
Y-00169*
X002*
Y-00168*
X00199*
Y-00167*
X00199*
Y-00166*
X00198*
Y-00166*
X00191*
Y-00166*
X00188*
Y-00165*
X00186*
Y-00165*
X00185*
Y-00164*
X00183*
Y-00164*
X00182*
Y-00163*
X00181*
Y-00163*
X0018*
Y-00162*
X00179*
Y-00162*
X00178*
Y-00161*
X00177*
Y-00161*
X00176*
Y-00161*
X00175*
Y-0016*
X00174*
Y-0016*
X00174*
Y-00159*
X00173*
Y-00159*
X00172*
Y-00158*
X00172*
Y-00158*
X00171*
Y-00157*
X00171*
Y-00157*
X0017*
Y-00156*
X0017*
Y-00156*
X00169*
Y-00156*
X00169*
Y-00155*
X00168*
Y-00154*
X00168*
Y-00154*
X00167*
Y-00152*
X00167*
Y-00151*
X00167*
Y-00149*
X00168*
Y-00149*
X00168*
Y-00148*
X00169*
Y-00148*
X0017*
Y-00147*
X00172*
Y-00148*
X00174*
Y-00148*
X00175*
Y-00149*
X00176*
Y-00149*
X00177*
Y-0015*
X00178*
Y-0015*
X0018*
Y-00151*
X00181*
Y-00151*
X00183*
Y-00152*
X00185*
Y-00152*
X00187*
Y-00152*
X0019*
Y-00153*
X002*
Y-00152*
X00204*
Y-00152*
X00207*
Y-00152*
X00209*
Y-00151*
X0021*
Y-0015*
X00209*
Y-00149*
X00209*
Y-00148*
X00208*
Y-00148*
X00208*
Y-00147*
X00207*
Y-00147*
X00207*
Y-00146*
X00206*
Y-00146*
X00206*
Y-00145*
X00205*
Y-00144*
X00205*
Y-00144*
X00205*
Y-00143*
X00204*
Y-00142*
X00204*
Y-00142*
X00203*
Y-00141*
X00203*
Y-0014*
X00202*
Y-0014*
X00202*
Y-00139*
X00201*
Y-00138*
X00201*
Y-00138*
X002*
Y-00137*
X002*
Y-00137*
X002*
Y-00136*
X00199*
Y-00135*
X00199*
Y-00134*
X00198*
Y-00134*
X00198*
Y-00133*
X00197*
Y-00133*
X00197*
Y-00132*
X00196*
Y-00131*
X00196*
Y-0013*
X00195*
Y-0013*
X00195*
Y-00129*
X00195*
Y-00128*
X00194*
Y-00127*
X00194*
Y-00126*
X00194*
Y-00126*
X00195*
Y-00125*
X00195*
Y-00126*
X00196*
Y-00126*
X00197*
Y-00127*
X00197*
Y-00127*
X00198*
Y-00128*
X00199*
Y-00128*
X00199*
Y-00128*
X002*
Y-00129*
X002*
Y-00129*
X00201*
Y-0013*
X00202*
Y-0013*
X00203*
Y-00131*
X00207*
Y-0013*
X00208*
Y-0013*
X00208*
Y-00127*
X00208*
Y-00126*
X00207*
Y-00125*
X00207*
Y-00124*
X00206*
Y-00124*
X00206*
Y-00124*
X00205*
Y-00123*
X00205*
Y-00123*
X00205*
Y-00122*
X00204*
Y-00122*
X00204*
Y-00121*
X00203*
Y-00121*
X00202*
Y-0012*
X00201*
Y-0012*
X002*
Y-00119*
X002*
Y-00119*
X00199*
Y-00118*
X00198*
Y-00118*
X00199*
Y-00116*
X00199*
Y-00116*
X002*
Y-00115*
X00203*
Y-00116*
X00204*
Y-00116*
X00205*
Y-00117*
X00206*
Y-00117*
X00207*
Y-00118*
X00207*
Y-00118*
X00208*
Y-00119*
X00209*
Y-00119*
X00209*
Y-00119*
X0021*
Y-0012*
X0021*
Y-0012*
X0021*
Y-00121*
X00211*
Y-00122*
X00211*
Y-00123*
X00212*
Y-00124*
X00212*
Y-00124*
X00213*
Y-00125*
X00213*
Y-00126*
X00214*
Y-00126*
X00215*
Y-00127*
X00216*
Y-00127*
X00216*
Y-00128*
X00217*
Y-00128*
X00218*
Y-00128*
X00219*
Y-00129*
X00219*
Y-00129*
X0022*
Y-0013*
X00221*
Y-0013*
X00222*
Y-00131*
X00223*
Y-00131*
X00224*
Y-00132*
X00225*
Y-00132*
X00226*
Y-00133*
X00227*
Y-00133*
X00228*
Y-00133*
X0023*
Y-00134*
X00231*
Y-00134*
X00233*
Y-00135*
X00234*
Y-00135*
X00236*
Y-00136*
X00239*
Y-00136*
X00244*
Y-00137*
X00245*
Y-00136*
X00246*
Y-00136*
X00247*
Y-00134*
X00247*
Y-00132*
X00247*
Y-0013*
X00248*
Y-00127*
X00248*
Y-00116*
X00248*
Y-00113*
X00247*
Y-00111*
X00247*
Y-00109*
X00247*
Y-00107*
X00246*
Y-00106*
X00246*
Y-00105*
X00245*
Y-00103*
X00245*
Y-00102*
X00244*
Y-00101*
X00244*
Y-001*
X00243*
Y-00099*
X00243*
Y-00098*
X00242*
Y-00097*
X00242*
Y-00094*
X00242*
Y-00094*
X00243*
Y-00093*
X00245*
Y-00094*
X00246*
Y-00094*
X00247*
Y-00095*
X00247*
Y-00095*
X00248*
Y-00096*
X0025*
Y-00096*
X00258*
Y-00096*
X0026*
Y-00095*
X00262*
Y-00095*
X00263*
Y-00094*
X00265*
Y-00094*
X00266*
Y-00093*
X00266*
Y-00093*
X00268*
Y-00092*
X00269*
Y-00092*
X00269*
Y-00091*
X0027*
Y-00091*
X00271*
Y-00091*
X00272*
Y-0009*
X00272*
Y-0009*
X00273*
Y-00089*
X00274*
Y-00089*
X00274*
Y-00088*
X00275*
Y-00088*
X00274*
Y-00087*
X00273*
Y-00087*
X00272*
Y-00086*
X00271*
Y-00086*
X0027*
Y-00086*
X00269*
Y-00085*
X00268*
Y-00085*
X00267*
Y-00084*
X00266*
Y-00084*
X00266*
Y-00083*
X00265*
Y-00083*
X00264*
Y-00082*
X00264*
Y-00082*
X00263*
Y-00081*
X00262*
Y-00081*
X00262*
Y-00081*
X00261*
Y-0008*
X00261*
Y-0008*
X0026*
Y-00079*
X0026*
Y-00079*
X00259*
Y-00078*
X00258*
Y-00078*
X00258*
Y-00077*
X00257*
Y-00077*
X00257*
Y-00077*
X00256*
Y-00076*
X00256*
Y-00076*
X00256*
Y-00075*
X00255*
Y-00075*
X00255*
Y-00074*
X00254*
Y-00074*
X00254*
Y-00073*
X00253*
Y-00073*
X00253*
Y-00072*
X00252*
Y-00072*
X00252*
Y-00071*
X00252*
Y-00071*
X00251*
Y-0007*
X00251*
Y-00069*
X0025*
Y-00069*
X0025*
Y-00068*
X00249*
Y-00067*
X00249*
Y-00067*
X00248*
Y-00066*
X00248*
Y-00065*
X00247*
Y-00065*
X00247*
Y-00064*
X00247*
Y-00063*
X00246*
Y-00062*
X00246*
Y-00061*
X00245*
Y-0006*
X00245*
Y-00059*
X00244*
Y-00058*
X00244*
Y-00057*
X00243*
Y-00056*
X00243*
Y-00054*
X00242*
Y-00053*
X00242*
Y-00051*
X00242*
Y-00049*
X00241*
Y-00048*
X0024*
Y-00048*
X00239*
Y-00047*
X00238*
Y-00047*
X00237*
Y-00046*
X00236*
Y-00046*
X00235*
Y-00045*
X00234*
Y-00045*
X00233*
Y-00044*
X00233*
Y-00044*
X00232*
Y-00044*
X00232*
Y-00043*
X00231*
Y-00043*
X0023*
Y-00042*
X00229*
Y-00042*
X00229*
Y-00041*
X00228*
Y-00042*
X00228*
Y-00043*
X00227*
Y-00044*
X00227*
Y-00044*
X00226*
Y-00045*
X00226*
Y-00046*
X00225*
Y-00046*
X00225*
Y-00047*
X00224*
Y-00048*
X00224*
Y-00048*
X00224*
Y-00049*
X00223*
Y-00049*
X00223*
Y-0005*
X00222*
Y-0005*
X00222*
Y-00051*
X00221*
Y-00051*
X00221*
Y-00052*
X0022*
Y-00052*
X00219*
Y-00053*
X00219*
Y-00053*
X00219*
Y-00053*
X00218*
Y-00054*
X00217*
Y-00054*
X00217*
Y-00055*
X00216*
Y-00055*
X00215*
Y-00056*
X00214*
Y-00056*
X00214*
Y-00057*
X00213*
Y-00057*
X00212*
Y-00058*
X0021*
Y-00058*
X00209*
Y-00058*
X00207*
Y-00059*
X002*
Y-00058*
X00199*
Y-00058*
X00197*
Y-00058*
X00196*
Y-00057*
X00196*
Y-00057*
X00195*
Y-00056*
X00195*
Y-00056*
X00194*
Y-00055*
X00194*
Y-00055*
X00193*
Y-00054*
X00193*
Y-00053*
X00192*
Y-00052*
X00192*
Y-0005*
X00191*
Y-00039*
X00192*
Y-00017*
X00191*
Y-00012*
X00191*
Y-00009*
X00191*
Y-00007*
X0019*
Y-00005*
X0019*
Y-00002*
X00189*
Y-00001*
X00189*
Y0*
X00188*
Y00002*
X00188*
Y00003*
X00187*
Y00004*
X00187*
Y00006*
X00186*
Y00007*
X00186*
Y00008*
X00186*
Y0001*
X00185*
Y00011*
X00185*
Y00012*
X00184*
Y00014*
X00184*
Y00015*
X00183*
Y00016*
X00183*
Y00018*
X00183*
Y00018*
X00184*
Y00017*
X00185*
Y00016*
X00185*
Y00016*
X00186*
Y00016*
X00186*
Y00015*
X00186*
Y00014*
X00187*
Y00014*
X00187*
Y00013*
X00188*
Y00012*
X00188*
Y00012*
X00189*
Y00011*
X00189*
Y00011*
X0019*
Y0001*
X0019*
Y00009*
X00191*
Y00008*
X00191*
Y00008*
X00191*
Y00007*
X00192*
Y00006*
X00192*
Y00006*
X00193*
Y00005*
X00193*
Y00004*
X00194*
Y00003*
X00194*
Y00002*
X00195*
Y00002*
X00195*
Y0*
X00195*
Y0*
X00196*
Y-00001*
X00196*
Y-00002*
X00197*
Y-00002*
X00197*
Y-00003*
X00198*
Y-00005*
X00198*
Y-00006*
X00199*
Y-00007*
X00199*
Y-00008*
X002*
Y-00009*
X002*
Y-00011*
X002*
Y-00012*
X00201*
Y-00013*
X00201*
Y-00015*
X00202*
Y-00016*
X00202*
Y-00018*
X00203*
Y-0002*
X00203*
Y-00021*
X00204*
Y-00024*
X00204*
Y-00026*
X00205*
Y-0003*
X00205*
Y-00036*
X00205*
Y-00043*
X00205*
Y-00044*
X00205*
Y-00044*
X00207*
Y-00044*
X00208*
Y-00044*
X00209*
Y-00043*
X00209*
Y-00043*
X0021*
Y-00042*
X0021*
Y-00042*
X00211*
Y-00041*
X00211*
Y-0004*
X00212*
Y-0004*
X00212*
Y-00039*
X00213*
Y-00039*
X00213*
Y-00039*
X00214*
Y-00038*
X00214*
Y-00037*
X00214*
Y-00037*
X00215*
Y-00036*
X00215*
Y-00035*
X00216*
Y-00035*
X00216*
Y-00034*
X00217*
Y-00033*
X00217*
Y-00032*
X00218*
Y-00031*
X00218*
Y-0003*
X00219*
Y-0003*
X00219*
Y-00029*
X00219*
Y-00027*
X0022*
Y-00026*
X0022*
Y-00025*
X00221*
Y-00023*
X00221*
Y-00022*
X00222*
Y-0002*
X00222*
Y-00018*
X00223*
Y-00016*
X00223*
Y-00011*
X00224*
Y-00003*
X00223*
Y00002*
X00223*
Y00004*
X00222*
Y00006*
X00222*
Y00008*
X00221*
Y0001*
X00221*
Y00011*
X0022*
Y00012*
X0022*
Y00013*
X00219*
Y00015*
X00219*
Y00016*
X00219*
Y00017*
X00218*
Y00018*
X00218*
Y00019*
X00217*
Y0002*
X00217*
Y00021*
X00216*
Y00022*
X00216*
Y00023*
X00215*
Y00023*
X00215*
Y00024*
X00214*
Y00025*
X00214*
Y00026*
X00214*
Y00026*
X00213*
Y00027*
X00213*
Y00028*
X00212*
Y00029*
X00212*
Y0003*
X00211*
Y0003*
X00211*
Y00031*
X0021*
Y00031*
X0021*
Y00033*
X00211*
Y00032*
X00212*
Y00032*
X00213*
Y00031*
X00214*
Y00031*
X00215*
Y0003*
X00216*
Y0003*
X00218*
Y0003*
X00219*
Y00029*
X00222*
Y00029*
X0023*
Y00029*
X00232*
Y0003*
X00234*
Y00031*
X00233*
Y00031*
X00233*
Y00032*
X00232*
Y00032*
X00231*
Y00033*
X00231*
Y00033*
X0023*
Y00034*
X0023*
Y00034*
X00229*
Y00035*
X00228*
Y00035*
X00228*
Y00035*
X00228*
Y00036*
X00227*
Y00036*
X00226*
Y00037*
X00226*
Y00037*
X00225*
Y00038*
X00225*
Y00038*
X00224*
Y00039*
X00224*
Y00039*
X00224*
Y00039*
X00223*
Y0004*
X00223*
Y0004*
X00222*
Y00041*
X00222*
Y00041*
X00221*
Y00042*
X00221*
Y00042*
X0022*
Y00043*
X0022*
Y00043*
X00219*
Y00044*
X00219*
Y00044*
X00219*
Y00044*
X00218*
Y00045*
X00218*
Y00045*
X00217*
Y00046*
X00217*
Y00046*
X00216*
Y00047*
X00216*
Y00047*
X00215*
Y00048*
X00214*
Y00048*
X00214*
Y00049*
X00214*
Y00049*
X00213*
Y00049*
X00212*
Y0005*
X00212*
Y0005*
X00211*
Y00051*
X0021*
Y00051*
X0021*
Y00052*
X00209*
Y00052*
X00209*
Y00053*
X00208*
Y00053*
X00207*
Y00053*
X00207*
Y00056*
X00207*
Y00056*
X00208*
Y00057*
X00209*
Y00057*
X00212*
Y00057*
X00213*
Y00056*
X00214*
Y00057*
X00214*
Y00058*
X00215*
Y00058*
X00215*
Y00059*
X00216*
Y00061*
X00216*
Y00061*
X00217*
Y00062*
X00217*
Y00063*
X00218*
Y00064*
X00218*
Y00065*
X00219*
Y00066*
X00219*
Y00067*
X00219*
Y00067*
X0022*
Y00068*
X0022*
Y00069*
X00221*
Y0007*
X00221*
Y00071*
X00222*
Y00072*
X00222*
Y00072*
X00223*
Y00073*
X00223*
Y00074*
X00224*
Y00074*
X00224*
Y00075*
X00224*
Y00076*
X00225*
Y00077*
X00225*
Y00077*
X00226*
Y00078*
X00226*
Y00078*
X00227*
Y00079*
X00227*
Y0008*
X00228*
Y00081*
X00228*
Y00081*
X00228*
Y00081*
X00229*
Y00082*
X00229*
Y00083*
X0023*
Y00084*
X0023*
Y00084*
X00231*
Y00085*
X00231*
Y00085*
X00232*
Y00086*
X00232*
Y00086*
X00233*
Y00087*
X00233*
Y00087*
X00233*
Y00088*
X00234*
Y00088*
X00234*
Y00089*
X00235*
Y00089*
X00235*
Y0009*
X00236*
Y00091*
X00237*
Y00091*
X00237*
Y00091*
X00238*
Y00092*
X00238*
Y00092*
X00238*
Y00093*
X00239*
Y00093*
X00239*
Y00094*
X0024*
Y00094*
X0024*
Y00095*
X00241*
Y00095*
X00241*
Y00096*
X00242*
Y00096*
X00242*
Y00096*
X00243*
Y00097*
X00243*
Y00097*
X00244*
Y00098*
X00244*
Y00098*
X00245*
Y00099*
X00246*
Y00099*
X00246*
Y001*
X00247*
Y001*
X00247*
Y001*
X00248*
Y00101*
X00249*
Y00101*
X0025*
Y00102*
X0025*
Y00102*
X00251*
Y00103*
X00252*
Y00103*
X00252*
Y00104*
X00253*
Y00104*
X00254*
Y00105*
X00255*
Y00105*
X00256*
Y00105*
X00257*
Y00106*
X00258*
Y00106*
X0026*
Y00107*
X00261*
Y00107*
X00262*
Y00108*
X00263*
Y00108*
X00265*
Y00109*
X00266*
Y00109*
X00268*
Y0011*
X00269*
Y0011*
X00271*
Y0011*
X00275*
Y00111*
X00279*
Y00111*
X00283*
Y00111*
X00289*
Y0011*
X00292*
Y0011*
X00293*
Y00111*
X00292*
Y00111*
X00291*
Y00112*
X00291*
Y00112*
X0029*
Y00113*
X00289*
Y00113*
X00289*
Y00114*
X00289*
Y00114*
X00288*
Y00114*
X00287*
Y00115*
X00286*
Y00115*
X00286*
Y00116*
X00285*
Y00116*
X00284*
Y00117*
X00284*
Y00117*
X00283*
Y00118*
X00283*
Y00118*
X00282*
Y00119*
X00281*
Y00119*
X0028*
Y00119*
X0028*
Y0012*
X00279*
Y0012*
X00278*
Y00121*
X00277*
Y00121*
X00276*
Y00122*
X00275*
Y00122*
X00274*
Y00123*
X00273*
Y00123*
X00272*
Y00124*
X00271*
Y00124*
X0027*
Y00124*
X00269*
Y00125*
X00267*
Y00125*
X00266*
Y00126*
X00264*
Y00126*
X00263*
Y00127*
X00261*
Y00127*
X00258*
Y00128*
X00256*
Y00128*
X00253*
Y00128*
X00238*
Y00128*
X00235*
Y00128*
X00233*
Y00127*
X0023*
Y00127*
X00228*
Y00126*
X00227*
Y00126*
X00225*
Y00125*
X00224*
Y00125*
X00223*
Y00124*
X00222*
Y00124*
X00221*
Y00124*
X0022*
Y00123*
X00219*
Y00123*
X00218*
Y00122*
X00217*
Y00122*
X00216*
Y00121*
X00215*
Y00121*
X00214*
Y0012*
X00214*
Y0012*
X00213*
Y00119*
X00212*
Y00119*
X00212*
Y00119*
X00211*
Y00118*
X0021*
Y00118*
X0021*
Y00117*
X00209*
Y00117*
X00209*
Y00116*
X00208*
Y00116*
X00207*
Y00115*
X00207*
Y00115*
X00206*
Y00114*
X00206*
Y00114*
X00205*
Y00114*
X00205*
Y00113*
X00204*
Y00113*
X00204*
Y00112*
X00203*
Y00112*
X00203*
Y00111*
X00202*
Y00111*
X00202*
Y0011*
X00201*
Y0011*
X00201*
Y0011*
X002*
Y00109*
X002*
Y00109*
X002*
Y00108*
X00199*
Y00107*
X00199*
Y00107*
X00198*
Y00106*
X00198*
Y00105*
X00197*
Y00105*
X00197*
Y00105*
X00196*
Y00104*
X00196*
Y00103*
X00195*
Y00103*
X00195*
Y00102*
X00195*
Y00101*
X00194*
Y001*
X00194*
Y001*
X00193*
Y00099*
X00193*
Y00098*
X00192*
Y00098*
X00192*
Y00097*
X00191*
Y00096*
X00191*
Y00096*
X00191*
Y00095*
X0019*
Y00094*
X0019*
Y00093*
X00189*
Y00092*
X00189*
Y00091*
X00188*
Y0009*
X00188*
Y00089*
X00187*
Y00088*
X00187*
Y00086*
X00186*
Y00086*
X00186*
Y00085*
X00186*
Y00083*
X00185*
Y00082*
X00185*
Y00081*
X00184*
Y0008*
X00184*
Y00079*
X00183*
Y00078*
X00183*
Y00077*
X00182*
Y00077*
X00182*
Y00077*
X00181*
Y00076*
X0018*
Y00076*
X00177*
Y00076*
X00176*
Y00077*
X00175*
Y00077*
X00174*
Y00077*
X00174*
Y00078*
X00173*
Y00079*
X00173*
Y0008*
X00172*
Y00081*
X00172*
Y00082*
X00172*
Y00086*
X00172*
Y00089*
X00172*
Y00091*
X00173*
Y00092*
X00173*
Y00094*
X00174*
Y00095*
X00174*
Y00096*
X00175*
Y00097*
X00175*
Y00098*
X00176*
Y001*
X00176*
Y001*
X00177*
Y00101*
X00177*
Y00102*
X00177*
Y00103*
X00178*
Y00104*
X00178*
Y00105*
X00179*
Y00105*
X00179*
Y00107*
X00179*
Y00108*
X00178*
Y00109*
X00178*
Y0011*
X00177*
Y0011*
X00177*
Y00111*
X00177*
Y00112*
X00176*
Y00112*
X00176*
Y00113*
X00175*
Y00114*
X00175*
Y00114*
X00174*
Y00114*
X00174*
Y00115*
X00173*
Y00116*
X00173*
Y00116*
X00172*
Y00117*
X00172*
Y00118*
X00172*
Y00118*
X00171*
Y00119*
X00171*
Y00119*
X0017*
Y00119*
X0017*
Y0012*
X00169*
Y0012*
X00169*
Y00121*
X00168*
Y00121*
X00168*
Y00122*
X00167*
Y00122*
X00167*
Y00123*
X00167*
Y00123*
X00166*
Y00124*
X00166*
Y00124*
X00165*
Y00124*
X00165*
Y00125*
X00164*
Y00125*
X00163*
Y00126*
X00163*
Y00126*
X00163*
Y00127*
X00162*
Y00127*
X00162*
Y00128*
X00161*
Y00128*
X0016*
Y00128*
X0016*
Y00129*
X00159*
Y00129*
X00158*
Y0013*
X00158*
Y0013*
X00157*
Y00131*
X00156*
Y00131*
X00155*
Y00132*
X00153*
Y00132*
X00152*
Y00132*
X00151*
Y00127*
X00152*
Y00125*
X00152*
Y00122*
X00153*
Y0012*
X00153*
Y00118*
X00153*
Y00116*
X00154*
Y00114*
X00154*
Y00113*
X00155*
Y00111*
X00155*
Y0011*
X00156*
Y00109*
X00156*
Y00107*
X00157*
Y00106*
X00157*
Y00105*
X00158*
Y00104*
X00158*
Y00102*
X00158*
Y00101*
X00159*
Y00099*
X00158*
Y001*
X00158*
Y001*
X00157*
Y00101*
X00157*
Y00102*
X00156*
Y00102*
X00156*
Y00103*
X00155*
Y00103*
X00155*
Y00104*
X00154*
Y00104*
X00154*
Y00105*
X00153*
Y00105*
X00153*
Y00106*
X00153*
Y00106*
X00152*
Y00107*
X00152*
Y00107*
X00151*
Y00108*
X00151*
Y00108*
X0015*
Y00109*
X0015*
Y00109*
X00149*
Y0011*
X00149*
Y0011*
X00149*
Y0011*
X00148*
Y00111*
X00148*
Y00111*
X00147*
Y00112*
X00147*
Y00112*
X00146*
Y00113*
X00146*
Y00113*
X00145*
Y00114*
X00145*
Y00114*
X00144*
Y00114*
X00144*
Y00115*
X00143*
Y00115*
X00143*
Y00116*
X00142*
Y00116*
X00142*
Y00117*
X00141*
Y00117*
X00141*
Y00118*
X0014*
Y00118*
X00139*
Y00119*
X00139*
Y00119*
X00139*
Y00119*
X00138*
Y0012*
X00137*
Y0012*
X00137*
Y00121*
X00136*
Y00121*
X00136*
Y00122*
X00135*
Y00122*
X00135*
Y00123*
X00134*
Y00124*
X00133*
Y00124*
X00133*
Y00124*
X00132*
Y00125*
X00132*
Y00125*
X00131*
Y00126*
X00131*
Y00126*
X0013*
Y00127*
X0013*
Y00127*
X0013*
Y00128*
X00129*
Y00128*
X00129*
Y00128*
X00128*
Y00129*
X00128*
Y00129*
X00127*
Y0013*
X00127*
Y0013*
X00126*
Y00131*
X00126*
Y00131*
X00125*
Y00132*
X00125*
Y00133*
X00125*
Y00133*
X00124*
Y00133*
X00124*
Y00134*
X00123*
Y00134*
X00123*
Y00135*
X00122*
Y00136*
X00122*
Y00136*
X00121*
Y00137*
X00121*
Y00137*
X00121*
Y00138*
X0012*
Y00138*
X0012*
Y00139*
X00119*
Y0014*
X00119*
Y00141*
X00118*
Y00142*
X00118*
Y00142*
X00117*
Y00143*
X00117*
Y00144*
X00116*
Y00144*
X00116*
Y00145*
X00116*
Y00146*
X00115*
Y00147*
X00115*
Y00148*
X00114*
Y00149*
X00114*
Y0015*
X00113*
Y00151*
X00113*
Y00152*
X00112*
Y00153*
X00112*
Y00154*
X00111*
Y00155*
X00111*
Y00157*
X00111*
Y00159*
X0011*
Y00161*
X0011*
Y00169*
X00109*
Y00169*
G37*
G36*
X-00076Y00151D02*
X-00086D01*
Y00151*
X-00089*
Y0015*
X-00091*
Y0015*
X-00093*
Y00149*
X-00094*
Y00149*
X-00096*
Y00148*
X-00097*
Y00148*
X-00098*
Y00147*
X-00099*
Y00147*
X-001*
Y00147*
X-00101*
Y00146*
X-00102*
Y00146*
X-00103*
Y00145*
X-00103*
Y00145*
X-00104*
Y00144*
X-00105*
Y00144*
X-00106*
Y00143*
X-00106*
Y00143*
X-00107*
Y00142*
X-00108*
Y00142*
X-00108*
Y00142*
X-00109*
Y00141*
X-00109*
Y00141*
X-0011*
Y0014*
X-0011*
Y0014*
X-00111*
Y00139*
X-00112*
Y00139*
X-00112*
Y00138*
X-00113*
Y00138*
X-00113*
Y00138*
X-00113*
Y00137*
X-00114*
Y00137*
X-00114*
Y00136*
X-00115*
Y00136*
X-00115*
Y00135*
X-00116*
Y00135*
X-00116*
Y00134*
X-00117*
Y00134*
X-00117*
Y00133*
X-00117*
Y00133*
X-00118*
Y00132*
X-00118*
Y00132*
X-00119*
Y00131*
X-00119*
Y0013*
X-0012*
Y0013*
X-0012*
Y00129*
X-00121*
Y00128*
X-00121*
Y00128*
X-00122*
Y00128*
X-00122*
Y00127*
X-00122*
Y00126*
X-00123*
Y00125*
X-00123*
Y00125*
X-00124*
Y00124*
X-00124*
Y00123*
X-00125*
Y00123*
X-00125*
Y00122*
X-00126*
Y00121*
X-00126*
Y0012*
X-00127*
Y00119*
X-00127*
Y00119*
X-00127*
Y00118*
X-00128*
Y00117*
X-00128*
Y00115*
X-00129*
Y00114*
X-00129*
Y00114*
X-0013*
Y00113*
X-0013*
Y00112*
X-00131*
Y0011*
X-00131*
Y0011*
X-00131*
Y00108*
X-00132*
Y00107*
X-00132*
Y00106*
X-00133*
Y00105*
X-00133*
Y00104*
X-00134*
Y00102*
X-00134*
Y00101*
X-00135*
Y001*
X-00135*
Y00098*
X-00136*
Y00096*
X-00136*
Y00094*
X-00136*
Y00092*
X-00137*
Y0009*
X-00137*
Y00088*
X-00138*
Y00084*
X-00138*
Y00081*
X-00139*
Y00063*
X-00138*
Y0006*
X-00138*
Y00057*
X-00137*
Y00055*
X-00137*
Y00053*
X-00136*
Y00051*
X-00136*
Y00049*
X-00136*
Y00048*
X-00135*
Y00046*
X-00135*
Y00045*
X-00134*
Y00044*
X-00134*
Y00042*
X-00133*
Y00041*
X-00133*
Y0004*
X-00132*
Y00039*
X-00132*
Y00039*
X-00131*
Y00038*
X-00131*
Y00037*
X-00131*
Y00036*
X-0013*
Y00035*
X-0013*
Y00034*
X-00129*
Y00034*
X-00129*
Y00033*
X-00128*
Y00032*
X-00128*
Y00031*
X-00127*
Y0003*
X-00127*
Y0003*
X-00127*
Y00029*
X-00126*
Y00029*
X-00126*
Y00028*
X-00125*
Y00028*
X-00125*
Y00027*
X-00124*
Y00026*
X-00124*
Y00026*
X-00123*
Y00025*
X-00123*
Y00025*
X-00122*
Y00025*
X-00122*
Y00024*
X-00122*
Y00024*
X-00121*
Y00023*
X-00121*
Y00023*
X-0012*
Y00022*
X-0012*
Y00022*
X-00119*
Y00021*
X-00119*
Y00021*
X-00118*
Y00021*
X-00118*
Y0002*
X-00117*
Y0002*
X-00117*
Y00019*
X-00116*
Y00019*
X-00115*
Y00018*
X-00115*
Y00018*
X-00114*
Y00017*
X-00113*
Y00017*
X-00113*
Y00016*
X-00112*
Y00016*
X-00111*
Y00016*
X-0011*
Y00015*
X-00108*
Y00015*
X-00108*
Y00014*
X-00106*
Y00014*
X-00104*
Y00013*
X-00103*
Y00013*
X-00101*
Y00012*
X-00101*
Y00013*
X-001*
Y00013*
X-001*
Y00015*
X-00099*
Y00016*
X-00099*
Y00018*
X-00099*
Y00019*
X-00098*
Y00021*
X-00098*
Y00022*
X-00097*
Y00023*
X-00097*
Y00024*
X-00096*
Y00025*
X-00096*
Y00026*
X-00095*
Y00027*
X-00096*
Y00027*
X-00097*
Y00026*
X-00098*
Y00026*
X-00099*
Y00025*
X-00106*
Y00026*
X-00107*
Y00026*
X-00108*
Y00027*
X-00109*
Y00027*
X-0011*
Y00028*
X-0011*
Y00028*
X-00111*
Y00029*
X-00111*
Y00029*
X-00112*
Y0003*
X-00112*
Y0003*
X-00113*
Y00031*
X-00113*
Y00032*
X-00113*
Y00033*
X-00114*
Y00034*
X-00114*
Y00042*
X-00114*
Y00044*
X-00113*
Y00046*
X-00113*
Y00047*
X-00113*
Y00049*
X-00112*
Y0005*
X-00112*
Y00051*
X-00111*
Y00052*
X-00111*
Y00053*
X-0011*
Y00054*
X-0011*
Y00055*
X-00109*
Y00056*
X-00109*
Y00057*
X-00108*
Y00058*
X-00108*
Y00058*
X-00108*
Y00059*
X-00107*
Y0006*
X-00107*
Y00061*
X-00106*
Y00062*
X-00106*
Y00062*
X-00105*
Y00063*
X-00105*
Y00063*
X-00104*
Y00064*
X-00104*
Y00065*
X-00103*
Y00065*
X-00103*
Y00066*
X-00103*
Y00067*
X-00102*
Y00067*
X-00102*
Y00068*
X-00101*
Y00068*
X-00101*
Y00069*
X-001*
Y0007*
X-001*
Y0007*
X-00099*
Y00071*
X-00099*
Y00071*
X-00099*
Y00072*
X-00098*
Y00072*
X-00098*
Y00073*
X-00097*
Y00073*
X-00097*
Y00074*
X-00096*
Y00074*
X-00096*
Y00075*
X-00095*
Y00075*
X-00095*
Y00076*
X-00094*
Y00076*
X-00094*
Y00077*
X-00094*
Y00077*
X-00093*
Y00077*
X-00093*
Y00078*
X-00092*
Y00079*
X-00091*
Y00079*
X-00091*
Y0008*
X-0009*
Y0008*
X-0009*
Y00081*
X-00089*
Y00081*
X-00089*
Y00081*
X-00089*
Y00082*
X-00088*
Y00082*
X-00088*
Y00083*
X-00087*
Y00083*
X-00087*
Y00084*
X-00086*
Y00084*
X-00085*
Y00085*
X-00085*
Y00085*
X-00085*
Y00086*
X-00084*
Y00086*
X-00083*
Y00086*
X-00083*
Y00087*
X-00082*
Y00087*
X-00081*
Y00088*
X-00081*
Y00088*
X-0008*
Y00089*
X-0008*
Y00089*
X-00079*
Y0009*
X-00079*
Y0009*
X-00078*
Y00091*
X-00077*
Y00091*
X-00077*
Y00091*
X-00076*
Y00092*
X-00075*
Y00092*
X-00075*
Y00093*
X-00074*
Y00093*
X-00073*
Y00094*
X-00073*
Y00094*
X-00072*
Y00095*
X-00071*
Y00095*
X-00071*
Y00096*
X-0007*
Y00096*
X-00069*
Y00096*
X-00068*
Y00097*
X-00067*
Y00097*
X-00067*
Y00098*
X-00066*
Y00098*
X-00065*
Y00099*
X-00064*
Y00099*
X-00064*
Y001*
X-00062*
Y001*
X-00062*
Y001*
X-00061*
Y00101*
X-0006*
Y00101*
X-00059*
Y00102*
X-00058*
Y00102*
X-00057*
Y00103*
X-00056*
Y00103*
X-00055*
Y00104*
X-00054*
Y00104*
X-00053*
Y00105*
X-00052*
Y00105*
X-00051*
Y00105*
X-0005*
Y00106*
X-00049*
Y00106*
X-00048*
Y00107*
X-00047*
Y00107*
X-00046*
Y00108*
X-00044*
Y00108*
X-00042*
Y00109*
X-00042*
Y00109*
X-00041*
Y0011*
X-00042*
Y0011*
X-00042*
Y0011*
X-00043*
Y00111*
X-00044*
Y00111*
X-00045*
Y00112*
X-00045*
Y00112*
X-00046*
Y00113*
X-00047*
Y00113*
X-00047*
Y00114*
X-00047*
Y00114*
X-00048*
Y00114*
X-00049*
Y00115*
X-00049*
Y00115*
X-0005*
Y00116*
X-0005*
Y00117*
X-00051*
Y00117*
X-00051*
Y00118*
X-00052*
Y00119*
X-00052*
Y00119*
X-00052*
Y00121*
X-00053*
Y00123*
X-00053*
Y00125*
X-00053*
Y00127*
X-00052*
Y00128*
X-00052*
Y00129*
X-00052*
Y0013*
X-00051*
Y00131*
X-00051*
Y00132*
X-0005*
Y00132*
X-0005*
Y00133*
X-00049*
Y00133*
X-00049*
Y00133*
X-00048*
Y00134*
X-00048*
Y00134*
X-00047*
Y00136*
X-00047*
Y00136*
X-00048*
Y00137*
X-00048*
Y00137*
X-00049*
Y00138*
X-00049*
Y00138*
X-0005*
Y00138*
X-00051*
Y00139*
X-00051*
Y00139*
X-00052*
Y0014*
X-00052*
Y0014*
X-00052*
Y00141*
X-00053*
Y00141*
X-00054*
Y00142*
X-00054*
Y00142*
X-00055*
Y00142*
X-00056*
Y00143*
X-00056*
Y00143*
X-00057*
Y00144*
X-00057*
Y00144*
X-00058*
Y00145*
X-00059*
Y00145*
X-0006*
Y00146*
X-00061*
Y00146*
X-00061*
Y00147*
X-00062*
Y00147*
X-00063*
Y00147*
X-00065*
Y00148*
X-00066*
Y00148*
X-00067*
Y00149*
X-00068*
Y00149*
X-00069*
Y0015*
X-00071*
Y0015*
X-00073*
Y00151*
X-00076*
Y00151*
G37*
G36*
X00288Y00096D02*
X00277D01*
Y00096*
X00275*
Y00095*
X00273*
Y00095*
X00271*
Y00094*
X0027*
Y00094*
X00268*
Y00093*
X00267*
Y00093*
X00266*
Y00092*
X00265*
Y00092*
X00264*
Y00091*
X00263*
Y00091*
X00262*
Y00091*
X00261*
Y0009*
X00261*
Y0009*
X0026*
Y00089*
X00259*
Y00089*
X00258*
Y00088*
X00257*
Y00088*
X00257*
Y00087*
X00256*
Y00087*
X00256*
Y00086*
X00255*
Y00086*
X00254*
Y00086*
X00254*
Y00085*
X00253*
Y00085*
X00252*
Y00084*
X00252*
Y00084*
X00252*
Y00083*
X00251*
Y00083*
X00251*
Y00082*
X0025*
Y00082*
X0025*
Y00081*
X00249*
Y00081*
X00248*
Y00081*
X00248*
Y0008*
X00247*
Y0008*
X00247*
Y00079*
X00247*
Y00079*
X00246*
Y00078*
X00246*
Y00077*
X00245*
Y00077*
X00245*
Y00077*
X00244*
Y00076*
X00244*
Y00076*
X00243*
Y00075*
X00243*
Y00074*
X00242*
Y00074*
X00242*
Y00073*
X00242*
Y00072*
X00241*
Y00072*
X00241*
Y00072*
X0024*
Y00071*
X0024*
Y0007*
X00239*
Y00069*
X00239*
Y00069*
X00238*
Y00068*
X00238*
Y00067*
X00238*
Y00067*
X00237*
Y00066*
X00237*
Y00065*
X00236*
Y00065*
X00236*
Y00064*
X00235*
Y00063*
X00235*
Y00063*
X00234*
Y00062*
X00234*
Y00061*
X00233*
Y0006*
X00233*
Y0006*
X00233*
Y00059*
X00232*
Y00058*
X00232*
Y00057*
X00231*
Y00056*
X00231*
Y00056*
X0023*
Y00054*
X00231*
Y00054*
X00231*
Y00053*
X00232*
Y00053*
X00232*
Y00052*
X00233*
Y00052*
X00233*
Y00051*
X00233*
Y00051*
X00234*
Y0005*
X00234*
Y0005*
X00235*
Y00049*
X00235*
Y00049*
X00236*
Y00048*
X00236*
Y00048*
X00237*
Y00047*
X00237*
Y00047*
X00238*
Y00046*
X00238*
Y00046*
X00238*
Y00045*
X00239*
Y00045*
X00239*
Y00044*
X0024*
Y00044*
X00241*
Y00044*
X00241*
Y00043*
X00242*
Y00043*
X00242*
Y00042*
X00243*
Y00042*
X00243*
Y00041*
X00244*
Y00041*
X00245*
Y0004*
X00245*
Y0004*
X00246*
Y00039*
X00247*
Y00039*
X00247*
Y00039*
X00247*
Y00038*
X00248*
Y00038*
X00248*
Y00037*
X00249*
Y00037*
X00249*
Y00036*
X0025*
Y00036*
X0025*
Y00035*
X00251*
Y00034*
X00251*
Y00033*
X00252*
Y00032*
X00252*
Y00028*
X00252*
Y00027*
X00251*
Y00026*
X00251*
Y00025*
X0025*
Y00025*
X0025*
Y00024*
X00249*
Y00023*
X00249*
Y00023*
X00248*
Y00022*
X00248*
Y00022*
X00247*
Y00021*
X00247*
Y00021*
X00247*
Y00021*
X00246*
Y0002*
X00245*
Y0002*
X00245*
Y00019*
X00244*
Y00019*
X00243*
Y00018*
X00242*
Y00018*
X00242*
Y00017*
X00241*
Y00017*
X0024*
Y00016*
X00239*
Y00016*
X00237*
Y00016*
X00236*
Y00015*
X00234*
Y00013*
X00235*
Y00011*
X00235*
Y0001*
X00236*
Y00008*
X00236*
Y00006*
X00237*
Y00003*
X00237*
Y0*
X00238*
Y-00015*
X00237*
Y-00017*
X00237*
Y-00021*
X00236*
Y-00023*
X00236*
Y-00024*
X00235*
Y-00026*
X00235*
Y-00027*
X00235*
Y-00028*
X00236*
Y-00029*
X00237*
Y-00029*
X00237*
Y-0003*
X00238*
Y-0003*
X00238*
Y-0003*
X00239*
Y-00031*
X0024*
Y-00031*
X00241*
Y-00032*
X00241*
Y-00032*
X00242*
Y-00033*
X00243*
Y-00033*
X00245*
Y-00034*
X00246*
Y-00034*
X00248*
Y-00035*
X00251*
Y-00035*
X00255*
Y-00035*
X00261*
Y-00035*
X00265*
Y-00035*
X00268*
Y-00034*
X00269*
Y-00034*
X00271*
Y-00033*
X00273*
Y-00033*
X00274*
Y-00032*
X00276*
Y-00032*
X00277*
Y-00031*
X00278*
Y-00031*
X00279*
Y-0003*
X0028*
Y-0003*
X00281*
Y-0003*
X00282*
Y-00029*
X00283*
Y-00029*
X00284*
Y-00028*
X00284*
Y-00028*
X00285*
Y-00027*
X00286*
Y-00027*
X00286*
Y-00026*
X00287*
Y-00026*
X00288*
Y-00025*
X00289*
Y-00025*
X00289*
Y-00025*
X00289*
Y-00024*
X0029*
Y-00024*
X00291*
Y-00023*
X00292*
Y-00023*
X00292*
Y-00022*
X00293*
Y-00022*
X00293*
Y-00021*
X00294*
Y-00021*
X00294*
Y-00021*
X00294*
Y-0002*
X00295*
Y-00019*
X00296*
Y-00019*
X00297*
Y-00018*
X00297*
Y-00018*
X00298*
Y-00017*
X00298*
Y-00016*
X00299*
Y-00016*
X00299*
Y-00015*
X003*
Y-00015*
X003*
Y-00014*
X00301*
Y-00014*
X00301*
Y-00013*
X00302*
Y-00012*
X00302*
Y-00012*
X00303*
Y-00011*
X00303*
Y-00011*
X00303*
Y-0001*
X00304*
Y-0001*
X00304*
Y-00009*
X00305*
Y-00008*
X00305*
Y-00007*
X00306*
Y-00007*
X00306*
Y-00006*
X00307*
Y-00006*
X00307*
Y-00005*
X00308*
Y-00004*
X00308*
Y-00003*
X00308*
Y-00002*
X00309*
Y-00002*
X00309*
Y-00001*
X0031*
Y0*
X0031*
Y0*
X00311*
Y00001*
X00311*
Y00002*
X00312*
Y00003*
X00312*
Y00004*
X00313*
Y00005*
X00313*
Y00006*
X00313*
Y00007*
X00314*
Y00008*
X00314*
Y0001*
X00315*
Y00011*
X00315*
Y00012*
X00316*
Y00014*
X00316*
Y00015*
X00317*
Y00016*
X00317*
Y00018*
X00317*
Y0002*
X00318*
Y00022*
X00318*
Y00025*
X00319*
Y00027*
X00319*
Y00031*
X0032*
Y00035*
X0032*
Y00053*
X0032*
Y00057*
X00319*
Y0006*
X00319*
Y00062*
X00318*
Y00065*
X00318*
Y00067*
X00317*
Y00068*
X00317*
Y0007*
X00317*
Y00072*
X00316*
Y00072*
X00316*
Y00074*
X00315*
Y00075*
X00315*
Y00076*
X00314*
Y00077*
X00314*
Y00078*
X00313*
Y00079*
X00313*
Y00079*
X00313*
Y0008*
X00312*
Y00081*
Y00081*
X00312*
Y00081*
X00311*
Y00082*
X00311*
Y00083*
X0031*
Y00083*
X0031*
Y00084*
X00309*
Y00085*
X00309*
Y00085*
X00308*
Y00086*
X00308*
Y00086*
X00308*
Y00086*
X00307*
Y00087*
X00307*
Y00087*
X00306*
Y00088*
X00306*
Y00088*
X00305*
Y00089*
X00304*
Y00089*
X00304*
Y0009*
X00303*
Y0009*
X00303*
Y00091*
X00302*
Y00091*
X00301*
Y00091*
X003*
Y00092*
X00299*
Y00092*
X00298*
Y00093*
X00298*
Y00093*
X00297*
Y00094*
X00295*
Y00094*
X00294*
Y00095*
X00292*
Y00095*
X00291*
Y00096*
X00288*
Y00096*
G37*
G36*
X00294Y-00161D02*
X00293D01*
Y-00162*
X00293*
Y-00163*
X00293*
Y-00164*
X00294*
Y-00165*
X00294*
Y-00166*
X00294*
Y-00167*
X00295*
Y-00168*
Y-00168*
X00295*
Y-0017*
X00296*
Y-0017*
X00296*
Y-00172*
X00298*
Y-00171*
X003*
Y-00171*
X00301*
Y-0017*
X003*
Y-00169*
X003*
Y-00168*
X00299*
Y-00168*
X00299*
Y-00167*
X00298*
Y-00166*
X00298*
Y-00166*
X00298*
Y-00165*
X00297*
Y-00165*
X00297*
Y-00164*
X00296*
Y-00164*
X00296*
Y-00163*
X00295*
Y-00163*
X00295*
Y-00162*
X00294*
Y-00162*
X00294*
Y-00161*
G37*
G36*
X00303Y-00174D02*
X00302D01*
Y-00174*
X00301*
Y-00175*
X003*
Y-00175*
X00299*
Y-00175*
X00298*
Y-00176*
X00298*
Y-00177*
X00298*
Y-00178*
X00298*
Y-0018*
X00299*
Y-00182*
X00299*
Y-00183*
X00301*
Y-00183*
X00302*
Y-00182*
X00303*
Y-00182*
X00307*
Y-00181*
X00307*
Y-0018*
X00306*
Y-00179*
X00306*
Y-00178*
X00305*
Y-00177*
X00305*
Y-00176*
X00304*
Y-00175*
X00304*
Y-00175*
X00303*
Y-00174*
X00303*
Y-00174*
G37*
G36*
X00308Y-00185D02*
X00306D01*
Y-00186*
X00304*
Y-00186*
X00302*
Y-00187*
X00301*
Y-00187*
X00301*
Y-00188*
X00301*
Y-0019*
Y-0019*
Y-00193*
X00303*
Y-00192*
X00305*
Y-00192*
X00309*
Y-00191*
X0031*
Y-0019*
X00309*
Y-00189*
X00309*
Y-00188*
X00308*
Y-00186*
X00308*
Y-00186*
X00308*
Y-00185*
G37*
G36*
X00309Y-00195D02*
X00307D01*
Y-00196*
X00304*
Y-00196*
X00303*
Y-00197*
X00302*
Y-00197*
X00302*
Y-00198*
X00302*
Y-00201*
X00302*
Y-00202*
X00302*
Y-00202*
X00303*
Y-00202*
X00305*
Y-00201*
X00309*
Y-00202*
X00311*
Y-00202*
X00312*
Y-00202*
X00312*
Y-00201*
X00312*
Y-00199*
X00311*
Y-00199*
Y-00198*
X00311*
Y-00196*
X0031*
Y-00196*
X00309*
Y-00195*
G37*
G36*
X0031Y-00205D02*
X00304D01*
Y-00206*
X00303*
Y-00206*
X00302*
Y-00209*
X00302*
Y-00212*
X00302*
Y-00213*
X00303*
Y-00212*
X00307*
Y-00213*
X00308*
Y-00213*
X0031*
Y-00213*
X00311*
Y-00214*
X00312*
Y-00214*
X00313*
Y-00211*
X00313*
Y-00206*
X00312*
Y-00206*
X0031*
Y-00205*
G37*
G36*
X00307Y-00216D02*
X00302D01*
Y-00217*
X00301*
Y-00218*
X003*
Y-00219*
X003*
Y-00221*
X00299*
Y-00223*
X00303*
Y-00223*
X00305*
Y-00224*
X00306*
Y-00224*
X00307*
Y-00225*
X00308*
Y-00225*
X00308*
Y-00226*
X00309*
Y-00226*
X00309*
Y-00227*
X0031*
Y-00227*
X0031*
Y-00227*
X00311*
Y-00225*
X00312*
Y-00223*
X00312*
Y-00219*
X00313*
Y-00218*
X00312*
Y-00218*
X00311*
Y-00217*
X0031*
Y-00217*
X00308*
Y-00217*
X00307*
Y-00216*
G37*
G36*
X003Y-00226D02*
X00298D01*
Y-00227*
X00298*
Y-00228*
X00297*
Y-00229*
X00297*
Y-0023*
X00296*
Y-00231*
X00296*
Y-00232*
X00295*
Y-00233*
X00296*
Y-00233*
X00298*
Y-00234*
X00299*
Y-00234*
X00299*
Y-00235*
X003*
Y-00235*
X00301*
Y-00236*
X00302*
Y-00236*
X00303*
Y-00236*
X00303*
Y-00237*
X00303*
Y-00237*
X00304*
Y-00238*
X00304*
Y-00238*
X00305*
Y-00239*
X00305*
Y-00239*
X00306*
Y-0024*
X00306*
Y-0024*
X00307*
Y-0024*
X00308*
Y-00238*
X00308*
Y-00237*
X00308*
Y-00236*
X00309*
Y-00234*
X00309*
Y-00231*
X00308*
Y-0023*
X00308*
Y-0023*
X00307*
Y-00229*
X00307*
Y-00229*
X00306*
Y-00228*
X00305*
Y-00228*
X00304*
Y-00227*
X00303*
Y-00227*
X00302*
Y-00227*
X003*
Y-00226*
G37*
G36*
X00295Y-00236D02*
X00294D01*
Y-00237*
X00293*
Y-00237*
X00293*
Y-00238*
X00292*
Y-00239*
X00292*
Y-00239*
X00291*
Y-0024*
X00291*
Y-00241*
X0029*
Y-00241*
X0029*
Y-00242*
X00289*
Y-00243*
X00291*
Y-00244*
X00292*
Y-00244*
X00293*
Y-00245*
X00294*
Y-00245*
X00294*
Y-00245*
X00295*
Y-00246*
X00295*
Y-00246*
X00296*
Y-00247*
X00296*
Y-00247*
X00297*
Y-00248*
X00297*
Y-00248*
X00298*
Y-00249*
X00298*
Y-00249*
X00298*
Y-0025*
X00299*
Y-0025*
X00299*
Y-00251*
X003*
Y-00252*
X003*
Y-00252*
X00301*
Y-00252*
X00302*
Y-00251*
X00302*
Y-0025*
X00303*
Y-0025*
X00303*
Y-00249*
X00303*
Y-00248*
X00304*
Y-00247*
X00304*
Y-00246*
X00305*
Y-00243*
X00304*
Y-00243*
X00304*
Y-00242*
X00303*
Y-00242*
X00303*
Y-00241*
X00303*
Y-00241*
X00302*
Y-00241*
X00302*
Y-0024*
X00301*
Y-0024*
X003*
Y-00239*
X003*
Y-00239*
X00298*
Y-00238*
X00298*
Y-00238*
X00297*
Y-00237*
X00296*
Y-00237*
X00295*
Y-00236*
G37*
G36*
X00289Y-00246D02*
X00286D01*
Y-00247*
X00286*
Y-00247*
X00285*
Y-00248*
X00285*
Y-00248*
X00284*
Y-00249*
X00284*
Y-00249*
X00284*
Y-0025*
X00283*
Y-0025*
X00283*
Y-0025*
X00282*
Y-00251*
X00283*
Y-00251*
X00284*
Y-00252*
X00284*
Y-00252*
X00284*
Y-00253*
X00285*
Y-00253*
X00286*
Y-00254*
X00286*
Y-00254*
X00287*
Y-00255*
X00287*
Y-00255*
X00288*
Y-00255*
X00288*
Y-00256*
X00289*
Y-00256*
X00289*
Y-00257*
X00289*
Y-00258*
X0029*
Y-00258*
X0029*
Y-00259*
X00291*
Y-00259*
X00291*
Y-0026*
X00292*
Y-00261*
X00292*
Y-00263*
X00293*
Y-00264*
X00293*
Y-00263*
X00294*
Y-00263*
X00294*
Y-00262*
X00294*
Y-00261*
X00295*
Y-00261*
X00295*
Y-0026*
X00296*
Y-0026*
X00296*
Y-00259*
X00297*
Y-00259*
X00297*
Y-00258*
X00298*
Y-00257*
X00298*
Y-00256*
X00298*
Y-00255*
X00297*
Y-00255*
X00297*
Y-00254*
X00296*
Y-00253*
X00296*
Y-00252*
X00295*
Y-00252*
X00295*
Y-00251*
X00294*
Y-00251*
X00294*
Y-0025*
X00294*
Y-0025*
X00293*
Y-0025*
X00293*
Y-00249*
X00292*
Y-00249*
X00292*
Y-00248*
X00291*
Y-00248*
X0029*
Y-00247*
X00289*
Y-00247*
X00289*
Y-00246*
G37*
G36*
X0028Y-00253D02*
X00279D01*
Y-00254*
X00279*
Y-00254*
X00278*
Y-00255*
X00277*
Y-00255*
X00276*
Y-00255*
X00276*
Y-00256*
X00275*
Y-00256*
X00275*
Y-00257*
X00275*
Y-00258*
X00275*
Y-00258*
X00276*
Y-00259*
X00276*
Y-00259*
X00277*
Y-00259*
X00277*
Y-0026*
X00278*
Y-0026*
X00278*
Y-00261*
X00279*
Y-00262*
X00279*
Y-00262*
X0028*
Y-00263*
X0028*
Y-00264*
X0028*
Y-00264*
X00281*
Y-00266*
X00281*
Y-00267*
X00282*
Y-00269*
X00282*
Y-00273*
X00284*
Y-00273*
X00284*
Y-00272*
X00284*
Y-00272*
X00285*
Y-00271*
X00285*
Y-00271*
X00286*
Y-0027*
X00286*
Y-0027*
X00287*
Y-00269*
X00287*
Y-00269*
X00288*
Y-00269*
X00288*
Y-00268*
X00289*
Y-00267*
X00289*
Y-00266*
X00289*
Y-00264*
X00289*
Y-00263*
X00288*
Y-00262*
X00288*
Y-00261*
X00287*
Y-0026*
X00287*
Y-0026*
X00286*
Y-00259*
X00286*
Y-00259*
X00285*
Y-00258*
X00285*
Y-00258*
X00284*
Y-00257*
X00284*
Y-00257*
X00284*
Y-00256*
X00283*
Y-00256*
X00283*
Y-00255*
X00282*
Y-00255*
X00281*
Y-00255*
X00281*
Y-00254*
X0028*
Y-00254*
X0028*
Y-00253*
G37*
G36*
X00271Y-00259D02*
X00271D01*
Y-00259*
X0027*
Y-0026*
X0027*
Y-0026*
X00269*
Y-00261*
X00268*
Y-00261*
X00268*
Y-00262*
X00267*
Y-00262*
X00266*
Y-00263*
X00266*
Y-00264*
X00266*
Y-00264*
X00267*
Y-00264*
X00267*
Y-00265*
X00268*
Y-00265*
X00268*
Y-00266*
X00269*
Y-00267*
X00269*
Y-00268*
X0027*
Y-00269*
X0027*
Y-00269*
X0027*
Y-00271*
X00271*
Y-00273*
X00271*
Y-00274*
Y-00274*
Y-0028*
X00272*
Y-00279*
X00273*
Y-00279*
X00274*
Y-00278*
X00275*
Y-00278*
X00276*
Y-00278*
X00276*
Y-00277*
X00277*
Y-00277*
X00278*
Y-00276*
X00279*
Y-00271*
X00278*
Y-00269*
X00278*
Y-00268*
X00277*
Y-00266*
X00277*
Y-00265*
X00276*
Y-00265*
X00276*
Y-00264*
X00275*
Y-00264*
X00275*
Y-00263*
X00275*
Y-00262*
X00274*
Y-00262*
X00274*
Y-00261*
X00273*
Y-00261*
X00273*
Y-0026*
X00272*
Y-0026*
X00272*
Y-00259*
X00271*
Y-00259*
G37*
G36*
X00262Y-00264D02*
X00261D01*
Y-00264*
X0026*
Y-00265*
X00259*
Y-00265*
X00258*
Y-00266*
X00257*
Y-00267*
X00257*
Y-00268*
X00258*
Y-00269*
X00258*
Y-00269*
X00259*
Y-0027*
X00259*
Y-00271*
X0026*
Y-00272*
X0026*
Y-00274*
X00261*
Y-00277*
X00261*
Y-00277*
Y-00278*
Y-0028*
X00261*
Y-00283*
X00261*
Y-00284*
X00262*
Y-00283*
X00263*
Y-00283*
X00265*
Y-00283*
X00266*
Y-00282*
X00267*
Y-00282*
X00268*
Y-00275*
X00267*
Y-00273*
X00267*
Y-00271*
X00266*
Y-0027*
X00266*
Y-00269*
X00266*
Y-00269*
X00265*
Y-00267*
X00265*
Y-00267*
X00264*
Y-00266*
X00264*
Y-00266*
X00263*
Y-00265*
X00263*
Y-00265*
X00262*
Y-00264*
X00262*
Y-00264*
G37*
G36*
X00253Y-00267D02*
X00251D01*
Y-00268*
X00248*
Y-00268*
X00247*
Y-00269*
X00247*
Y-00269*
X00247*
Y-0027*
X00247*
Y-00271*
X00248*
Y-00273*
X00248*
Y-00274*
X00249*
Y-00277*
X00249*
Y-00284*
X00249*
Y-00286*
X00248*
Y-00287*
X00251*
Y-00287*
X00253*
Y-00286*
X00255*
Y-00286*
X00256*
Y-00285*
X00257*
Y-00284*
X00257*
Y-00279*
X00257*
Y-00276*
Y-00276*
X00256*
Y-00274*
X00256*
Y-00273*
X00256*
Y-00272*
X00255*
Y-00271*
X00255*
Y-0027*
X00254*
Y-00269*
X00254*
Y-00268*
X00253*
Y-00268*
X00253*
Y-00267*
G37*
G36*
X00242Y-00269D02*
X00237D01*
Y-0027*
X00237*
Y-0027*
X00238*
Y-00272*
X00238*
Y-00273*
X00238*
Y-00273*
Y-00274*
Y-00274*
X00239*
Y-00277*
X00239*
Y-00283*
X00239*
Y-00285*
X00238*
Y-00286*
X00238*
Y-00287*
X00238*
Y-00288*
X00242*
Y-00288*
X00244*
Y-00288*
X00244*
Y-00287*
X00245*
Y-00285*
X00245*
Y-00278*
X00245*
Y-00274*
X00244*
Y-00273*
X00244*
Y-00272*
X00243*
Y-00271*
X00243*
Y-00269*
X00242*
Y-00269*
X00242*
Y-00269*
G37*
G36*
X00229D02*
X00225D01*
Y-00269*
X00224*
Y-00269*
X00225*
Y-00273*
X00225*
Y-00273*
X00226*
Y-00274*
X00226*
Y-00274*
X00227*
Y-00275*
X00227*
Y-00275*
X00228*
Y-00276*
X00228*
Y-00277*
Y-00277*
X00228*
Y-00279*
X00229*
Y-00281*
X00228*
Y-00283*
X00228*
Y-00284*
X00228*
Y-00285*
X00227*
Y-00286*
X00227*
Y-00286*
X00226*
Y-00287*
X00225*
Y-00288*
X00225*
Y-00288*
X00224*
Y-00289*
X00232*
Y-00288*
X00233*
Y-00288*
X00233*
Y-00287*
X00233*
Y-00287*
X00234*
Y-00285*
X00234*
Y-00284*
X00235*
Y-00276*
X00234*
Y-00274*
X00234*
Y-00273*
X00233*
Y-00271*
X00233*
Y-0027*
X00233*
Y-00269*
X00232*
Y-00269*
X00229*
Y-00269*
G37*
G36*
X-00016Y-00305D02*
X-0002D01*
Y-00306*
X-00021*
Y-00308*
X-0002*
Y-0031*
X-0002*
Y-00311*
X-00019*
Y-00311*
X-00019*
Y-00312*
X-00019*
Y-00313*
X-00018*
Y-00314*
X-00018*
Y-00315*
X-00017*
Y-00315*
X-00017*
Y-00316*
X-00016*
Y-00316*
X-00016*
Y-00316*
X-00015*
Y-00317*
X-00015*
Y-00317*
X-00014*
Y-00318*
X-00014*
Y-00318*
X-00013*
Y-00319*
X-00012*
Y-00319*
X-0001*
Y-0032*
X-00009*
Y-0032*
X-00006*
Y-0032*
X0*
Y-0032*
X00003*
Y-0032*
X00004*
Y-00319*
X00006*
Y-00319*
X00007*
Y-00318*
X00008*
Y-00318*
X00008*
Y-00317*
X00009*
Y-00317*
X00009*
Y-00316*
X0001*
Y-00316*
X0001*
Y-00316*
X00011*
Y-00315*
X00011*
Y-00315*
X00012*
Y-00314*
X00012*
Y-00314*
X00013*
Y-00313*
X00013*
Y-00312*
X00012*
Y-00311*
X0001*
Y-00311*
X00009*
Y-00311*
X00008*
Y-0031*
X00006*
Y-0031*
X00005*
Y-00309*
X00003*
Y-00309*
X00002*
Y-00308*
X0*
Y-00308*
X-00001*
Y-00307*
X-00003*
Y-00307*
X-00005*
Y-00306*
X-00008*
Y-00306*
X-00011*
Y-00306*
X-00016*
Y-00305*
G37*
G36*
X00144Y-00312D02*
X00131D01*
Y-00312*
X00128*
Y-00313*
X00126*
Y-00313*
X00124*
Y-00314*
X00123*
Y-00314*
X00121*
Y-00315*
X0012*
Y-00315*
X00119*
Y-00316*
X00118*
Y-00316*
X00117*
Y-00316*
X00117*
Y-00317*
X00117*
Y-00318*
X00118*
Y-00318*
X00118*
Y-00319*
X00119*
Y-0032*
X00119*
Y-0032*
X0012*
Y-0032*
X0012*
Y-00321*
X00121*
Y-00321*
X00121*
Y-00322*
X00121*
Y-00322*
X00122*
Y-00323*
X00122*
Y-00323*
X00123*
Y-00324*
X00124*
Y-00324*
X00124*
Y-00325*
X00125*
Y-00325*
X00126*
Y-00325*
X00128*
Y-00326*
X0013*
Y-00326*
X00141*
Y-00326*
X00143*
Y-00325*
X00144*
Y-00325*
X00146*
Y-00325*
X00147*
Y-00324*
X00148*
Y-00324*
X00148*
Y-00323*
X00149*
Y-00323*
X00149*
Y-00322*
X0015*
Y-00322*
X0015*
Y-00321*
X00151*
Y-00321*
X00151*
Y-0032*
X00152*
Y-0032*
X00152*
Y-0032*
X00153*
Y-00319*
X00153*
Y-00318*
X00153*
Y-00318*
X00154*
Y-00317*
X00154*
Y-00316*
X00155*
Y-00315*
X00154*
Y-00315*
X00153*
Y-00314*
X00152*
Y-00314*
X0015*
Y-00313*
X00148*
Y-00313*
X00146*
Y-00312*
X00144*
Y-00312*
G37*
G36*
X00206Y-00325D02*
X00201D01*
Y-00325*
X00198*
Y-00326*
X00196*
Y-00326*
X00195*
Y-00327*
X00194*
Y-00326*
X00193*
Y-00326*
X00191*
Y-00326*
X0019*
Y-00327*
X00189*
Y-00328*
X00188*
Y-00329*
X00189*
Y-0033*
X00189*
Y-0033*
X0019*
Y-0033*
X00191*
Y-00331*
X00198*
Y-0033*
X00202*
Y-0033*
X00205*
Y-0033*
X00206*
Y-00329*
X00207*
Y-00329*
X00207*
Y-00328*
X00208*
Y-00327*
X00207*
Y-00326*
X00207*
Y-00325*
X00206*
Y-00325*
G37*
G36*
X-00018Y-00331D02*
X-00022D01*
Y-00331*
X-00023*
Y-00332*
X-00023*
Y-00332*
X-00024*
Y-00334*
X-00023*
Y-00334*
X-00023*
Y-00335*
X-00022*
Y-00335*
X-0002*
Y-00336*
X-00017*
Y-00336*
X-00001*
Y-00337*
X0*
Y-00336*
X00001*
Y-00337*
X00003*
Y-00336*
X00005*
Y-00336*
X00006*
Y-00335*
X00006*
Y-00333*
X00006*
Y-00333*
X00005*
Y-00332*
X00003*
Y-00332*
X00002*
Y-00332*
X-00008*
Y-00332*
X-00013*
Y-00331*
X-00018*
Y-00331*
G37*
%LNpcb1_legend_bot-3*%
%LPD*%
G36*
X00159Y00099D02*
X00159D01*
Y00099*
X00159*
Y00099*
G37*
G36*
X00142Y001D02*
X00143D01*
Y001*
X00143*
Y00099*
X00144*
Y00099*
X00144*
Y00097*
X00144*
Y00096*
X00144*
Y00095*
X00144*
Y00095*
X00143*
Y00094*
X00143*
Y00094*
X00142*
Y00093*
X0014*
Y00094*
X00139*
Y00094*
X00139*
Y00095*
X00138*
Y00095*
X00138*
Y00096*
X00137*
Y00097*
X00138*
Y00099*
X00138*
Y00099*
X00139*
Y001*
X00139*
Y001*
X0014*
Y001*
X00142*
Y001*
G37*
G36*
X0Y00096D02*
X0D01*
Y00096*
X00001*
Y00095*
X00002*
Y00095*
X00002*
Y00094*
X00003*
Y00094*
X00003*
Y00093*
X00003*
Y00092*
X00004*
Y00092*
X00004*
Y00091*
X00005*
Y00089*
X00005*
Y00086*
X00005*
Y00085*
X00004*
Y00084*
X00004*
Y00083*
X00003*
Y00083*
X00003*
Y00082*
X00003*
Y00082*
X00002*
Y00081*
X00001*
Y00081*
X0*
Y00081*
X0*
Y0008*
X-00003*
Y00081*
X-00005*
Y00081*
X-00006*
Y00081*
X-00006*
Y00082*
X-00007*
Y00082*
X-00008*
Y00083*
X-00008*
Y00084*
X-00009*
Y00084*
X-00009*
Y00085*
X-0001*
Y00086*
X-0001*
Y00091*
X-0001*
Y00091*
X-00009*
Y00092*
X-00009*
Y00093*
X-00008*
Y00094*
X-00007*
Y00095*
X-00006*
Y00095*
X-00006*
Y00096*
X-00005*
Y00096*
X-00004*
Y00096*
X0*
Y00096*
G37*
G36*
X00125Y00086D02*
X00126D01*
Y00086*
X00127*
Y00086*
X00128*
Y00085*
X00128*
Y00085*
X00129*
Y00084*
X00129*
Y00084*
X0013*
Y00083*
X0013*
Y00082*
X0013*
Y00077*
X0013*
Y00076*
X0013*
Y00076*
X00129*
Y00075*
X00129*
Y00074*
X00128*
Y00074*
X00127*
Y00073*
X00126*
Y00073*
X00125*
Y00072*
X00124*
Y00073*
X00121*
Y00073*
X0012*
Y00074*
X0012*
Y00074*
X00119*
Y00075*
X00119*
Y00075*
X00118*
Y00076*
X00118*
Y00077*
X00117*
Y00077*
X00117*
Y00082*
X00117*
Y00083*
X00118*
Y00084*
X00118*
Y00085*
X00119*
Y00085*
X00119*
Y00086*
X0012*
Y00086*
X00121*
Y00086*
X00122*
Y00087*
X00125*
Y00086*
G37*
G36*
X-00018Y0008D02*
X-00016D01*
Y00079*
X-00015*
Y00079*
X-00015*
Y00078*
X-00014*
Y00077*
X-00014*
Y00077*
X-00014*
Y00076*
X-00013*
Y00072*
X-00014*
Y00072*
X-00014*
Y00071*
X-00014*
Y0007*
X-00015*
Y0007*
X-00016*
Y00069*
X-0002*
Y0007*
X-00021*
Y0007*
X-00021*
Y00071*
X-00022*
Y00071*
X-00022*
Y00072*
X-00023*
Y00072*
X-00023*
Y00074*
X-00024*
Y00076*
X-00023*
Y00077*
X-00023*
Y00078*
X-00022*
Y00078*
X-00022*
Y00079*
X-00021*
Y00079*
X-0002*
Y0008*
X-00019*
Y0008*
X-00018*
Y0008*
G37*
G36*
X00066Y0011D02*
X00067D01*
Y00109*
X00066*
Y00109*
X00065*
Y00108*
X00063*
Y00108*
X00062*
Y00107*
X00061*
Y00107*
X0006*
Y00106*
X00059*
Y00106*
X00058*
Y00105*
X00057*
Y00105*
X00056*
Y00105*
X00055*
Y00104*
X00055*
Y00104*
X00054*
Y00103*
X00053*
Y00103*
X00052*
Y00102*
X00051*
Y00102*
X0005*
Y00101*
X0005*
Y00101*
X00049*
Y001*
X00048*
Y001*
X00048*
Y001*
X00047*
Y00099*
X00047*
Y00099*
X00046*
Y00098*
X00046*
Y00098*
X00045*
Y00097*
X00045*
Y00097*
X00044*
Y00096*
X00044*
Y00096*
X00043*
Y00096*
X00043*
Y00095*
X00042*
Y00095*
X00041*
Y00094*
X00041*
Y00094*
X00041*
Y00093*
X0004*
Y00093*
X0004*
Y00092*
X00039*
Y00092*
X00039*
Y00091*
X00038*
Y00091*
X00038*
Y0009*
X00037*
Y0009*
X00037*
Y00089*
X00036*
Y00089*
X00036*
Y00088*
X00036*
Y00087*
X00035*
Y00087*
X00035*
Y00086*
X00034*
Y00086*
X00034*
Y00085*
X00033*
Y00084*
X00033*
Y00083*
X00032*
Y00082*
X00032*
Y00082*
X00032*
Y00081*
X00031*
Y0008*
X00031*
Y00079*
X0003*
Y00078*
X0003*
Y00077*
X00029*
Y00076*
X00029*
Y00075*
X00028*
Y00073*
X00028*
Y00072*
X00027*
Y00069*
X00027*
Y00064*
X00027*
Y00062*
X00028*
Y00061*
X00028*
Y00061*
X00029*
Y0006*
X00029*
Y00059*
X0003*
Y00059*
X00032*
Y00058*
X00033*
Y00059*
X00035*
Y00059*
X00036*
Y0006*
X00036*
Y0006*
X00036*
Y00061*
X00037*
Y00062*
X00037*
Y00063*
X00038*
Y00063*
X00038*
Y00064*
X00039*
Y00065*
X00039*
Y00066*
X0004*
Y00067*
X0004*
Y00068*
X00041*
Y00068*
X00041*
Y00069*
X00041*
Y0007*
X00042*
Y00071*
X00042*
Y00072*
X00043*
Y00072*
X00043*
Y00072*
X00044*
Y00073*
X00044*
Y00074*
X00045*
Y00074*
X00045*
Y00075*
X00046*
Y00076*
X00046*
Y00076*
X00046*
Y00077*
X00047*
Y00077*
X00047*
Y00078*
X00048*
Y00078*
X00048*
Y00079*
X00049*
Y0008*
X00049*
Y0008*
X0005*
Y00081*
X0005*
Y00081*
X0005*
Y00081*
X00051*
Y00082*
X00051*
Y00082*
X00052*
Y00083*
X00052*
Y00083*
X00053*
Y00084*
X00053*
Y00084*
X00054*
Y00085*
X00054*
Y00085*
X00055*
Y00086*
X00055*
Y00086*
X00055*
Y00086*
X00056*
Y00087*
X00057*
Y00087*
X00057*
Y00088*
X00058*
Y00088*
X00059*
Y00089*
X00059*
Y00089*
X0006*
Y0009*
X0006*
Y0009*
X00061*
Y00091*
X00062*
Y00091*
X00062*
Y00091*
X00063*
Y00092*
X00064*
Y00092*
X00064*
Y00093*
X00065*
Y00093*
X00066*
Y00094*
X00067*
Y00094*
X00068*
Y00093*
X00068*
Y00093*
X00067*
Y00092*
X00067*
Y00091*
X00066*
Y00091*
X00066*
Y00091*
X00065*
Y0009*
X00065*
Y00089*
X00064*
Y00089*
X00064*
Y00088*
X00064*
Y00087*
X00063*
Y00087*
X00063*
Y00086*
X00062*
Y00086*
X00062*
Y00085*
X00061*
Y00084*
X00061*
Y00083*
X0006*
Y00083*
X0006*
Y00082*
X0006*
Y00081*
X00059*
Y00081*
X00059*
Y0008*
X00058*
Y00079*
X00058*
Y00078*
X00057*
Y00077*
X00057*
Y00076*
X00056*
Y00075*
X00056*
Y00074*
X00055*
Y00073*
X00055*
Y00072*
X00055*
Y00071*
X00054*
Y00069*
X00054*
Y00068*
X00053*
Y00067*
X00053*
Y00066*
X00052*
Y00064*
X00052*
Y00063*
X00051*
Y00062*
X00051*
Y0006*
X0005*
Y00059*
X0005*
Y00058*
X0005*
Y00057*
X00049*
Y00056*
X00049*
Y00055*
X00048*
Y00054*
X00048*
Y00053*
X00047*
Y00053*
X00047*
Y00052*
X00046*
Y00052*
X00046*
Y00051*
X00046*
Y0005*
X00045*
Y0005*
X00045*
Y00049*
X00044*
Y00049*
X00043*
Y00049*
X00043*
Y00048*
X00042*
Y00048*
X00041*
Y00047*
X00041*
Y00047*
X0004*
Y00046*
X00039*
Y00046*
X00038*
Y00045*
X00036*
Y00045*
X00034*
Y00044*
X0003*
Y00045*
X00027*
Y00045*
X00026*
Y00046*
X00025*
Y00046*
X00024*
Y00047*
X00023*
Y00047*
X00022*
Y00048*
X00022*
Y00048*
X00021*
Y00049*
X0002*
Y00049*
X0002*
Y00049*
X00019*
Y0005*
X00019*
Y0005*
X00018*
Y00051*
X00018*
Y00052*
X00017*
Y00052*
X00017*
Y00053*
X00017*
Y00053*
X00016*
Y00054*
X00016*
Y00055*
X00015*
Y00056*
X00015*
Y00058*
X00014*
Y00059*
X00014*
Y00061*
X00013*
Y00069*
X00014*
Y00072*
X00014*
Y00074*
X00015*
Y00075*
X00015*
Y00077*
X00016*
Y00078*
X00016*
Y00079*
X00017*
Y0008*
X00017*
Y00081*
X00017*
Y00082*
X00018*
Y00083*
X00018*
Y00083*
X00019*
Y00084*
X00019*
Y00085*
X0002*
Y00086*
X0002*
Y00086*
X00021*
Y00087*
X00021*
Y00087*
X00022*
Y00088*
X00022*
Y00089*
X00022*
Y00089*
X00023*
Y0009*
X00023*
Y00091*
X00024*
Y00091*
X00024*
Y00091*
X00025*
Y00092*
X00025*
Y00092*
X00026*
Y00093*
X00026*
Y00094*
X00027*
Y00094*
X00027*
Y00095*
X00027*
Y00095*
X00028*
Y00096*
X00029*
Y00096*
X00029*
Y00096*
X0003*
Y00097*
X0003*
Y00097*
X00031*
Y00098*
X00031*
Y00098*
X00032*
Y00099*
X00032*
Y00099*
X00033*
Y001*
X00034*
Y001*
X00034*
Y001*
X00035*
Y00101*
X00036*
Y00101*
X00036*
Y00102*
X00037*
Y00102*
X00038*
Y00103*
X00039*
Y00103*
X00039*
Y00104*
X0004*
Y00104*
X00041*
Y00105*
X00042*
Y00105*
X00043*
Y00105*
X00044*
Y00106*
X00045*
Y00106*
X00046*
Y00107*
X00048*
Y00107*
X00049*
Y00108*
X00051*
Y00108*
X00052*
Y00109*
X00055*
Y00109*
X00058*
Y0011*
X00064*
Y0011*
X00066*
Y0011*
G37*
G36*
X00157Y0006D02*
X00158D01*
Y0006*
X00158*
Y00059*
X00159*
Y00058*
X00159*
Y00057*
X0016*
Y00055*
X0016*
Y00054*
X00161*
Y00053*
X00161*
Y00051*
X00162*
Y0005*
X00162*
Y00049*
X00163*
Y00047*
X00163*
Y00045*
X00163*
Y00044*
X00164*
Y0004*
X00164*
Y00039*
X00164*
Y00036*
X00163*
Y00035*
X00163*
Y00034*
X00163*
Y00033*
X00162*
Y00032*
X00162*
Y00031*
X00161*
Y00031*
X00161*
Y0003*
X0016*
Y0003*
X00159*
Y0003*
X00159*
Y00029*
X00158*
Y00029*
X00157*
Y00028*
X00156*
Y00028*
X00154*
Y00027*
X00149*
Y00028*
X00148*
Y00028*
X00146*
Y00029*
X00145*
Y00029*
X00145*
Y0003*
X00144*
Y0003*
X00144*
Y0003*
X00143*
Y00031*
X00143*
Y00031*
X00142*
Y00032*
X00142*
Y00032*
X00141*
Y00033*
X00141*
Y00034*
X0014*
Y00035*
X0014*
Y00036*
X00139*
Y00038*
X00139*
Y00041*
X00139*
Y00044*
X0014*
Y00046*
X0014*
Y00048*
X00141*
Y00049*
X00141*
Y00051*
X00142*
Y00052*
X00142*
Y00053*
Y00054*
X00143*
Y00056*
X00143*
Y00057*
X00144*
Y00058*
X00144*
Y00058*
X00144*
Y00059*
X00145*
Y00059*
X00146*
Y00059*
X00147*
Y00058*
X00147*
Y00058*
X00148*
Y00057*
X00148*
Y00055*
X00148*
Y00051*
X00147*
Y00048*
X00147*
Y00045*
X00146*
Y00039*
X00147*
Y00038*
X00147*
Y00037*
X00148*
Y00037*
X00148*
Y00036*
X00149*
Y00036*
X0015*
Y00035*
X00153*
Y00036*
X00154*
Y00036*
X00155*
Y00037*
X00155*
Y00037*
X00156*
Y00038*
X00156*
Y00039*
X00157*
Y00045*
X00156*
Y00048*
X00156*
Y00049*
X00155*
Y00052*
X00155*
Y00054*
X00154*
Y00057*
X00154*
Y00058*
X00154*
Y00059*
X00155*
Y0006*
X00155*
Y0006*
X00156*
Y00061*
X00157*
Y0006*
G37*
G36*
X-0004Y00053D02*
X-00041D01*
Y00053*
X-00041*
Y00052*
X-00042*
Y00052*
X-00042*
Y00051*
X-00042*
Y00051*
X-00043*
Y0005*
X-00043*
Y0005*
Y00049*
X-00044*
Y00049*
X-00044*
Y00049*
X-00045*
Y00048*
X-00045*
Y00048*
X-00046*
Y00047*
X-00046*
Y00046*
X-00047*
Y00046*
X-00047*
Y00045*
X-00047*
Y00045*
X-00048*
Y00044*
X-00048*
Y00044*
X-00049*
Y00043*
X-00049*
Y00043*
X-0005*
Y00042*
X-0005*
Y00042*
X-00051*
Y00041*
X-00051*
Y0004*
X-00052*
Y0004*
X-00052*
Y00039*
X-00052*
Y00039*
X-00053*
Y00039*
X-00053*
Y00038*
X-00054*
Y00037*
X-00054*
Y00037*
X-00055*
Y00036*
X-00055*
Y00036*
X-00056*
Y00035*
X-00056*
Y00035*
X-00056*
Y00034*
X-00057*
Y00033*
X-00057*
Y00033*
X-00058*
Y00032*
X-00058*
Y00032*
X-00059*
Y00031*
X-00059*
Y00031*
X-0006*
Y0003*
X-00062*
Y00031*
X-00063*
Y00031*
X-00063*
Y00032*
X-00064*
Y00033*
X-00063*
Y00035*
X-00063*
Y00035*
X-00062*
Y00036*
X-00062*
Y00037*
X-00061*
Y00037*
X-00061*
Y00038*
X-00061*
Y00039*
X-0006*
Y00039*
X-0006*
Y00039*
X-00059*
Y0004*
X-00059*
Y0004*
X-00058*
Y00041*
X-00058*
Y00042*
X-00057*
Y00042*
X-00057*
Y00043*
X-00056*
Y00043*
X-00056*
Y00044*
X-00056*
Y00044*
X-00055*
Y00044*
X-00055*
Y00045*
X-00054*
Y00045*
X-00054*
Y00046*
X-00053*
Y00046*
X-00053*
Y00047*
X-00052*
Y00047*
X-00052*
Y00048*
X-00052*
Y00048*
X-00051*
Y00049*
X-00051*
Y00049*
X-0005*
Y00049*
X-00049*
Y0005*
X-00049*
Y0005*
X-00048*
Y00051*
X-00048*
Y00051*
X-00047*
Y00052*
X-00046*
Y00052*
X-00046*
Y00053*
X-00045*
Y00053*
X-00044*
Y00053*
X-00043*
Y00054*
X-00042*
Y00054*
X-0004*
Y00053*
G37*
G36*
X-0001Y00044D02*
X-00009D01*
Y00044*
X-00008*
Y00044*
X-00007*
Y00043*
X-00007*
Y00043*
X-00006*
Y00042*
X-00006*
Y00042*
X-00005*
Y00041*
X-00005*
Y0004*
X-00005*
Y00039*
X-00004*
Y00039*
X-00004*
Y00036*
X-00003*
Y00035*
X-00004*
Y00032*
X-00004*
Y0003*
X-00005*
Y0003*
X-00005*
Y00029*
X-00005*
Y00028*
X-00006*
Y00027*
X-00006*
Y00027*
X-00007*
Y00026*
X-00007*
Y00025*
X-00008*
Y00025*
X-00008*
Y00025*
X-00009*
Y00024*
X-00009*
Y00024*
X-0001*
Y00023*
X-0001*
Y00023*
X-00011*
Y00022*
X-00012*
Y00022*
X-00012*
Y00021*
X-00014*
Y00021*
X-00015*
Y00021*
X-00019*
Y00021*
X-00021*
Y00021*
X-00021*
Y00022*
X-00022*
Y00022*
X-00023*
Y00023*
X-00023*
Y00023*
X-00024*
Y00024*
X-00024*
Y00024*
X-00024*
Y00025*
X-00025*
Y00026*
X-00025*
Y00028*
X-00026*
Y00033*
X-00025*
Y00035*
X-00025*
Y00036*
X-00024*
Y00037*
X-00024*
Y00038*
X-00024*
Y00039*
X-00023*
Y00039*
X-00023*
Y0004*
X-00022*
Y0004*
X-00022*
Y00041*
X-00021*
Y00041*
X-00021*
Y00042*
X-0002*
Y00042*
X-0002*
Y00043*
X-00019*
Y00043*
X-00019*
Y00044*
X-00018*
Y00044*
X-00017*
Y00044*
X-00015*
Y00045*
X-0001*
Y00044*
G37*
G36*
X00117Y00034D02*
X0012D01*
Y00034*
X00121*
Y00033*
X00122*
Y00033*
X00123*
Y00032*
X00123*
Y00032*
X00124*
Y00031*
X00125*
Y00031*
X00125*
Y0003*
X00125*
Y0003*
X00126*
Y0003*
X00126*
Y00029*
X00127*
Y00028*
X00127*
Y00028*
X00128*
Y00027*
X00128*
Y00026*
X00129*
Y00025*
X00129*
Y00025*
X0013*
Y00023*
X0013*
Y00021*
X0013*
Y00017*
X0013*
Y00016*
X0013*
Y00015*
X00129*
Y00014*
X00129*
Y00013*
X00128*
Y00012*
X00128*
Y00012*
X00127*
Y00011*
X00127*
Y00011*
X00126*
Y00011*
X00125*
Y0001*
X00125*
Y0001*
X00124*
Y00009*
X00122*
Y00009*
X00119*
Y00009*
X00117*
Y0001*
X00116*
Y0001*
X00115*
Y00011*
X00114*
Y00011*
X00113*
Y00011*
X00113*
Y00012*
X00112*
Y00012*
X00111*
Y00013*
X00111*
Y00013*
X00111*
Y00014*
X0011*
Y00015*
X0011*
Y00015*
X00109*
Y00016*
X00109*
Y00016*
X00108*
Y00017*
X00108*
Y00018*
X00107*
Y00019*
X00107*
Y00021*
X00106*
Y00026*
X00107*
Y00028*
X00107*
Y00029*
X00108*
Y0003*
X00108*
Y0003*
X00109*
Y00031*
X00109*
Y00031*
X0011*
Y00032*
X00111*
Y00033*
X00111*
Y00033*
X00112*
Y00034*
X00113*
Y00034*
X00116*
Y00035*
X00117*
Y00034*
G37*
G36*
X-00037Y00007D02*
X-00033D01*
Y00007*
X-00031*
Y00006*
X-0003*
Y00006*
X-00028*
Y00005*
X-00027*
Y00005*
X-00026*
Y00004*
X-00025*
Y00004*
X-00024*
Y00003*
X-00023*
Y00003*
X-00023*
Y00002*
X-00022*
Y00002*
X-00021*
Y00002*
X-0002*
Y00001*
X-0002*
Y00001*
X-00019*
Y0*
X-00019*
Y0*
X-00018*
Y0*
X-00018*
Y0*
X-00017*
Y-00001*
X-00017*
Y-00001*
X-00016*
Y-00002*
X-00016*
Y-00002*
X-00015*
Y-00002*
X-00015*
Y-00003*
X-00014*
Y-00003*
X-00014*
Y-00004*
X-00014*
Y-00004*
X-00013*
Y-00005*
X-00013*
Y-00005*
X-00012*
Y-00006*
X-00012*
Y-00007*
X-00011*
Y-00007*
X-00011*
Y-00008*
X-0001*
Y-00008*
X-0001*
Y-00009*
X-0001*
Y-0001*
X-00009*
Y-00011*
X-00009*
Y-00012*
X-00008*
Y-00013*
X-00008*
Y-00013*
X-00007*
Y-00015*
X-00007*
Y-00016*
X-00006*
Y-00017*
X-00006*
Y-00019*
X-00005*
Y-0002*
X-00005*
Y-00022*
X-00005*
Y-00024*
X-00004*
Y-00028*
X-00004*
Y-00039*
X-00004*
Y-00043*
X-00005*
Y-00045*
X-00005*
Y-00047*
X-00005*
Y-00048*
X-00006*
Y-00049*
X-00006*
Y-00051*
X-00007*
Y-00052*
X-00007*
Y-00053*
X-00008*
Y-00054*
X-00008*
Y-00055*
X-00009*
Y-00056*
X-00009*
Y-00056*
X-0001*
Y-00057*
X-0001*
Y-00058*
X-0001*
Y-00059*
X-00011*
Y-00059*
X-00011*
Y-0006*
X-00012*
Y-00059*
X-00013*
Y-00059*
X-00013*
Y-00058*
X-00014*
Y-00057*
X-00014*
Y-00056*
X-00014*
Y-00055*
X-00015*
Y-00054*
X-00015*
Y-00054*
X-00016*
Y-00053*
X-00016*
Y-00053*
X-00017*
Y-00053*
X-00017*
Y-00052*
X-00018*
Y-00052*
X-00019*
Y-00051*
X-00019*
Y-00051*
X-0002*
Y-0005*
X-00021*
Y-0005*
X-00023*
Y-00049*
X-00025*
Y-00049*
X-00026*
Y-00049*
X-00029*
Y-0005*
X-0003*
Y-0005*
X-00031*
Y-00051*
X-00032*
Y-00051*
X-00033*
Y-00052*
X-00033*
Y-00052*
X-00034*
Y-00053*
X-00034*
Y-00053*
X-00035*
Y-00053*
X-00035*
Y-00054*
X-00036*
Y-00054*
X-00036*
Y-00055*
X-00037*
Y-00056*
X-00037*
Y-00057*
X-00038*
Y-00059*
X-00038*
Y-00062*
X-00038*
Y-00065*
X-00037*
Y-00066*
X-00037*
Y-00067*
X-00036*
Y-00067*
X-00036*
Y-00068*
X-00035*
Y-00069*
X-00035*
Y-00069*
X-00034*
Y-0007*
X-00033*
Y-0007*
X-00033*
Y-00071*
X-00033*
Y-00071*
X-00032*
Y-00072*
X-00031*
Y-00072*
X-00029*
Y-00072*
X-00023*
Y-00072*
X-00021*
Y-00072*
X-0002*
Y-00074*
X-00021*
Y-00074*
X-00021*
Y-00075*
X-00022*
Y-00075*
X-00022*
Y-00076*
X-00023*
Y-00076*
X-00023*
Y-00077*
X-00024*
Y-00077*
X-00024*
Y-00077*
X-00025*
Y-00078*
X-00026*
Y-00078*
X-00027*
Y-00079*
X-00028*
Y-00079*
X-00028*
Y-0008*
X-00029*
Y-0008*
X-00031*
Y-00081*
X-00032*
Y-00081*
X-00033*
Y-00081*
X-00034*
Y-00082*
X-00036*
Y-00082*
X-00039*
Y-00083*
X-00048*
Y-00083*
X-00049*
Y-00083*
X-00052*
Y-00082*
X-00054*
Y-00082*
X-00056*
Y-00081*
X-00058*
Y-00081*
X-00059*
Y-00081*
X-0006*
Y-0008*
X-00061*
Y-0008*
X-00062*
Y-00079*
X-00063*
Y-00079*
X-00064*
Y-00078*
X-00065*
Y-00078*
X-00066*
Y-00077*
X-00066*
Y-00077*
X-00067*
Y-00077*
X-00068*
Y-00076*
X-00068*
Y-00076*
X-00069*
Y-00075*
X-0007*
Y-00075*
X-0007*
Y-00074*
X-00071*
Y-00074*
X-00071*
Y-00073*
X-00072*
Y-00073*
X-00072*
Y-00072*
X-00073*
Y-00072*
X-00073*
Y-00072*
X-00074*
Y-00071*
X-00074*
Y-00071*
X-00075*
Y-0007*
X-00075*
Y-00069*
X-00075*
Y-00069*
X-00076*
Y-00068*
X-00076*
Y-00067*
X-00077*
Y-00067*
X-00077*
Y-00066*
X-00078*
Y-00066*
X-00078*
Y-00065*
X-00079*
Y-00064*
X-00079*
Y-00063*
X-0008*
Y-00063*
X-0008*
Y-00062*
X-0008*
Y-00061*
X-00081*
Y-00059*
X-00081*
Y-00058*
X-00082*
Y-00057*
X-00082*
Y-00055*
X-00083*
Y-00054*
X-00083*
Y-00052*
X-00084*
Y-00049*
X-00084*
Y-00044*
X-00085*
Y-00038*
X-00084*
Y-00034*
X-00084*
Y-0003*
X-00083*
Y-00028*
X-00083*
Y-00026*
X-00082*
Y-00025*
X-00082*
Y-00024*
X-00081*
Y-00022*
X-00081*
Y-00021*
X-0008*
Y-0002*
X-0008*
Y-00019*
X-0008*
Y-00018*
X-00079*
Y-00017*
X-00079*
Y-00016*
X-00078*
Y-00016*
X-00078*
Y-00015*
X-00077*
Y-00014*
X-00077*
Y-00013*
X-00076*
Y-00012*
X-00076*
Y-00012*
X-00075*
Y-00011*
X-00075*
Y-00011*
X-00075*
Y-0001*
X-00074*
Y-00009*
X-00074*
Y-00009*
X-00073*
Y-00008*
X-00073*
Y-00008*
X-00072*
Y-00007*
X-00072*
Y-00007*
X-00071*
Y-00006*
X-00071*
Y-00006*
X-00071*
Y-00005*
X-0007*
Y-00005*
X-0007*
Y-00004*
X-00069*
Y-00004*
X-00069*
Y-00003*
X-00068*
Y-00003*
X-00068*
Y-00002*
X-00067*
Y-00002*
X-00067*
Y-00002*
X-00066*
Y-00001*
X-00066*
Y-00001*
X-00065*
Y0*
X-00065*
Y0*
X-00064*
Y0*
X-00063*
Y0*
X-00063*
Y00001*
X-00062*
Y00001*
X-00061*
Y00002*
X-00061*
Y00002*
X-0006*
Y00002*
X-00059*
Y00003*
X-00058*
Y00003*
X-00057*
Y00004*
X-00056*
Y00004*
X-00055*
Y00005*
X-00054*
Y00005*
X-00053*
Y00006*
X-00052*
Y00006*
X-00051*
Y00007*
X-00048*
Y00007*
X-00046*
Y00007*
X-00045*
Y00007*
X-00045*
Y00007*
X-00037*
Y00007*
G37*
G36*
X00164Y00013D02*
X00165D01*
Y00013*
X00166*
Y00012*
X00166*
Y00012*
X00167*
Y00011*
X00167*
Y00011*
X00167*
Y00011*
X00168*
Y0001*
X00168*
Y0001*
X00169*
Y00009*
X00169*
Y00008*
X0017*
Y00008*
X0017*
Y00007*
X00171*
Y00007*
X00171*
Y00007*
X00172*
Y00006*
X00172*
Y00005*
X00172*
Y00004*
X00173*
Y00004*
X00173*
Y00003*
X00174*
Y00002*
X00174*
Y00002*
X00175*
Y00001*
X00175*
Y0*
X00176*
Y0*
X00176*
Y0*
X00177*
Y-00001*
X00177*
Y-00002*
X00177*
Y-00003*
X00177*
Y-00005*
X00176*
Y-00005*
X00175*
Y-00006*
X00174*
Y-00005*
X00173*
Y-00005*
X00173*
Y-00004*
X00172*
Y-00004*
X00172*
Y-00003*
X00172*
Y-00002*
X00171*
Y-00002*
X00171*
Y-00001*
X0017*
Y0*
X0017*
Y0*
X00169*
Y0*
X00169*
Y00001*
X00168*
Y00002*
X00168*
Y00002*
X00167*
Y00003*
X00167*
Y00004*
X00167*
Y00005*
X00166*
Y00006*
X00166*
Y00006*
X00165*
Y00007*
X00165*
Y00007*
X00164*
Y00008*
X00164*
Y00008*
X00163*
Y00009*
X00163*
Y0001*
X00163*
Y0001*
Y00011*
X00162*
Y00012*
X00163*
Y00013*
X00163*
Y00014*
X00164*
Y00013*
G37*
G36*
X-00096Y-00035D02*
X-00096D01*
Y-00036*
X-00095*
Y-00037*
X-00095*
Y-00038*
Y-00038*
Y-00039*
X-00095*
Y-00039*
X-00096*
Y-0004*
X-00096*
Y-0004*
X-00097*
Y-00041*
X-00099*
Y-0004*
X-001*
Y-0004*
X-001*
Y-00039*
X-00101*
Y-00039*
X-00101*
Y-00037*
X-00101*
Y-00036*
X-001*
Y-00035*
X-00099*
Y-00035*
X-00096*
Y-00035*
G37*
G36*
X00025Y-00053D02*
X00028D01*
Y-00053*
X0003*
Y-00054*
X00031*
Y-00054*
X00032*
Y-00055*
X00033*
Y-00055*
X00034*
Y-00056*
X00034*
Y-00056*
X00035*
Y-00057*
X00035*
Y-00058*
X00036*
Y-00058*
X00036*
Y-00063*
X00036*
Y-00063*
X00035*
Y-00064*
X00035*
Y-00065*
X00034*
Y-00065*
X00034*
Y-00066*
X00033*
Y-00066*
X00032*
Y-00067*
X00032*
Y-00067*
X00031*
Y-00067*
X00028*
Y-00068*
X00027*
Y-00071*
X00027*
Y-00072*
X00027*
Y-00074*
X00028*
Y-00075*
X00028*
Y-00076*
X00029*
Y-00077*
X00029*
Y-00077*
X0003*
Y-00078*
X0003*
Y-00078*
X00031*
Y-00079*
X00031*
Y-00079*
X00032*
Y-0008*
X00032*
Y-0008*
X00033*
Y-00081*
X00035*
Y-00081*
X00037*
Y-00081*
X00039*
Y-0008*
X00039*
Y-0008*
X0004*
Y-00079*
X0004*
Y-00079*
X00041*
Y-00078*
X00041*
Y-00077*
X00041*
Y-00076*
X00042*
Y-00075*
X00042*
Y-00074*
X00043*
Y-00073*
X00043*
Y-00073*
X00044*
Y-00072*
X00048*
Y-00073*
X00049*
Y-00073*
X00049*
Y-00074*
X0005*
Y-00074*
X0005*
Y-00075*
X0005*
Y-00077*
X00051*
Y-0008*
X0005*
Y-00082*
X0005*
Y-00083*
X0005*
Y-00084*
X00049*
Y-00085*
X00049*
Y-00086*
X00048*
Y-00086*
X00048*
Y-00087*
X00047*
Y-00087*
X00047*
Y-00088*
X00046*
Y-00088*
X00046*
Y-00089*
X00045*
Y-00089*
X00044*
Y-0009*
X00043*
Y-0009*
X00042*
Y-00091*
X00041*
Y-00091*
X00039*
Y-00091*
X00034*
Y-00091*
X00032*
Y-00091*
X0003*
Y-0009*
X00029*
Y-0009*
X00028*
Y-00089*
X00027*
Y-00089*
X00027*
Y-00088*
X00026*
Y-00088*
X00026*
Y-00087*
X00025*
Y-00087*
X00024*
Y-00086*
X00024*
Y-00086*
X00023*
Y-00085*
X00023*
Y-00085*
X00022*
Y-00084*
X00022*
Y-00085*
X00021*
Y-00085*
X00021*
Y-00086*
X0002*
Y-00086*
X00019*
Y-00086*
X00019*
Y-00087*
X00018*
Y-00087*
X00017*
Y-00088*
X00016*
Y-00088*
X00015*
Y-00089*
X00012*
Y-00089*
X00011*
Y-00089*
X00008*
Y-00088*
X00007*
Y-00088*
X00005*
Y-00087*
X00004*
Y-00087*
X00004*
Y-00086*
X00003*
Y-00086*
X00003*
Y-00086*
X00002*
Y-00085*
X00002*
Y-00085*
X00001*
Y-00084*
X00001*
Y-00084*
X0*
Y-00083*
X0*
Y-00082*
X0*
Y-00082*
X0*
Y-00081*
X0*
Y-0008*
X-00001*
Y-00078*
X-00001*
Y-00073*
X-00001*
Y-00072*
X0*
Y-00071*
X0*
Y-0007*
X0*
Y-0007*
X0*
Y-00069*
X00002*
Y-00069*
X00003*
Y-00069*
X00004*
Y-0007*
X00005*
Y-0007*
X00006*
Y-00071*
X00006*
Y-00072*
X00007*
Y-00072*
X00007*
Y-00075*
X00008*
Y-00077*
X00008*
Y-00078*
X00008*
Y-00078*
X00009*
Y-00079*
X00013*
Y-00078*
X00014*
Y-00078*
X00015*
Y-00077*
X00015*
Y-00077*
X00016*
Y-00077*
X00016*
Y-00076*
X00017*
Y-00075*
X00017*
Y-00073*
X00017*
Y-00072*
X00018*
Y-0007*
X00018*
Y-00069*
X00019*
Y-00067*
X00018*
Y-00067*
X00017*
Y-00067*
X00016*
Y-00066*
X00015*
Y-00066*
X00014*
Y-00065*
X00014*
Y-00065*
X00013*
Y-00064*
X00013*
Y-00063*
X00013*
Y-00063*
X00012*
Y-00061*
X00012*
Y-00059*
X00012*
Y-00057*
X00013*
Y-00056*
X00013*
Y-00056*
X00013*
Y-00055*
X00014*
Y-00054*
X00015*
Y-00054*
X00015*
Y-00053*
X00017*
Y-00053*
X00018*
Y-00053*
X00025*
Y-00053*
G37*
G36*
X00138Y-00007D02*
X00141D01*
Y-00007*
X00144*
Y-00008*
X00145*
Y-00008*
X00147*
Y-00009*
X00148*
Y-00009*
X00149*
Y-0001*
X0015*
Y-0001*
X00151*
Y-00011*
X00153*
Y-00011*
X00153*
Y-00011*
X00154*
Y-00012*
X00155*
Y-00012*
X00156*
Y-00013*
X00157*
Y-00013*
X00157*
Y-00014*
X00158*
Y-00014*
X00159*
Y-00015*
X00159*
Y-00015*
X0016*
Y-00016*
X00161*
Y-00016*
X00161*
Y-00016*
X00162*
Y-00017*
X00163*
Y-00017*
X00163*
Y-00018*
X00163*
Y-00018*
X00164*
Y-00019*
X00164*
Y-00019*
X00165*
Y-0002*
X00165*
Y-0002*
X00166*
Y-00021*
X00166*
Y-00021*
X00167*
Y-00021*
X00167*
Y-00022*
X00167*
Y-00022*
X00168*
Y-00023*
X00168*
Y-00023*
X00169*
Y-00024*
X00169*
Y-00025*
X0017*
Y-00025*
X0017*
Y-00026*
X00171*
Y-00026*
X00171*
Y-00027*
X00172*
Y-00028*
X00172*
Y-00029*
X00172*
Y-00029*
X00173*
Y-0003*
X00173*
Y-00031*
X00174*
Y-00032*
X00174*
Y-00033*
X00175*
Y-00034*
X00175*
Y-00035*
X00176*
Y-00036*
X00176*
Y-00037*
X00177*
Y-00038*
X00177*
Y-0004*
X00177*
Y-00041*
X00178*
Y-00043*
X00178*
Y-00045*
X00179*
Y-00048*
X00179*
Y-00051*
X0018*
Y-0006*
X00179*
Y-00063*
X00179*
Y-00066*
X00178*
Y-00068*
X00178*
Y-0007*
X00177*
Y-00071*
X00177*
Y-00073*
X00177*
Y-00074*
X00176*
Y-00075*
X00176*
Y-00076*
X00175*
Y-00077*
X00175*
Y-00078*
X00174*
Y-00078*
X00174*
Y-00079*
X00173*
Y-0008*
X00173*
Y-00081*
X00172*
Y-00081*
X00172*
Y-00082*
X00172*
Y-00082*
X00171*
Y-00082*
X0017*
Y-00081*
X0017*
Y-00078*
X00169*
Y-00077*
X00169*
Y-00076*
X00168*
Y-00075*
X00168*
Y-00074*
X00167*
Y-00073*
X00167*
Y-00073*
X00167*
Y-00072*
X00166*
Y-00072*
X00166*
Y-00072*
X00165*
Y-00071*
X00165*
Y-00071*
X00164*
Y-0007*
X00163*
Y-0007*
X00162*
Y-00069*
X00161*
Y-00069*
X0016*
Y-00068*
X00154*
Y-00069*
X00153*
Y-00069*
X00151*
Y-0007*
X0015*
Y-0007*
X00149*
Y-00071*
X00149*
Y-00071*
X00148*
Y-00072*
X00148*
Y-00072*
X00147*
Y-00072*
X00147*
Y-00073*
X00146*
Y-00073*
X00146*
Y-00074*
X00145*
Y-00075*
X00145*
Y-00076*
X00144*
Y-00077*
X00144*
Y-00079*
X00144*
Y-00083*
X00144*
Y-00085*
X00144*
Y-00086*
X00145*
Y-00087*
X00145*
Y-00088*
X00146*
Y-00088*
X00146*
Y-00089*
X00147*
Y-00089*
X00147*
Y-0009*
X00148*
Y-0009*
X00149*
Y-00091*
X00149*
Y-00091*
X0015*
Y-00091*
X00151*
Y-00092*
X00152*
Y-00092*
X00158*
Y-00092*
X0016*
Y-00091*
X00162*
Y-00091*
X00163*
Y-00091*
X00163*
Y-0009*
X00165*
Y-00091*
X00166*
Y-00091*
X00165*
Y-00091*
X00165*
Y-00092*
X00164*
Y-00092*
X00164*
Y-00093*
X00163*
Y-00094*
X00163*
Y-00094*
X00163*
Y-00095*
X00162*
Y-00095*
X00161*
Y-00096*
X00161*
Y-00096*
X0016*
Y-00096*
X00159*
Y-00097*
X00158*
Y-00097*
X00158*
Y-00098*
X00157*
Y-00098*
X00156*
Y-00099*
X00156*
Y-00099*
X00155*
Y-001*
X00154*
Y-001*
X00153*
Y-001*
X00152*
Y-00101*
X00151*
Y-00101*
X0015*
Y-00102*
X00149*
Y-00102*
X00148*
Y-00103*
X00147*
Y-00103*
X00144*
Y-00104*
X00143*
Y-00104*
X00141*
Y-00105*
X00136*
Y-00105*
X00128*
Y-00105*
X00125*
Y-00104*
X00122*
Y-00104*
X0012*
Y-00103*
X00118*
Y-00103*
X00117*
Y-00102*
X00116*
Y-00102*
X00114*
Y-00101*
X00113*
Y-00101*
X00112*
Y-001*
X00111*
Y-001*
X00111*
Y-001*
X0011*
Y-00099*
X00109*
Y-00099*
X00108*
Y-00098*
X00107*
Y-00098*
X00106*
Y-00097*
X00106*
Y-00097*
X00105*
Y-00096*
X00105*
Y-00096*
X00104*
Y-00096*
X00103*
Y-00095*
X00103*
Y-00095*
X00102*
Y-00094*
X00102*
Y-00094*
X00101*
Y-00093*
X00101*
Y-00093*
X001*
Y-00092*
X001*
Y-00092*
X00099*
Y-00091*
X00099*
Y-00091*
X00098*
Y-00091*
X00098*
Y-0009*
X00097*
Y-00089*
X00097*
Y-00089*
X00097*
Y-00088*
X00096*
Y-00088*
X00096*
Y-00087*
X00095*
Y-00086*
X00095*
Y-00086*
X00094*
Y-00086*
X00094*
Y-00085*
X00093*
Y-00084*
X00093*
Y-00084*
X00092*
Y-00083*
X00092*
Y-00082*
X00092*
Y-00081*
X00091*
Y-00081*
X00091*
Y-0008*
X0009*
Y-00079*
X0009*
Y-00078*
X00089*
Y-00077*
X00089*
Y-00076*
X00088*
Y-00076*
X00088*
Y-00074*
X00088*
Y-00073*
X00087*
Y-00072*
X00087*
Y-0007*
X00086*
Y-00069*
X00086*
Y-00067*
X00085*
Y-00064*
X00085*
Y-00061*
X00084*
Y-00052*
X00085*
Y-00048*
X00085*
Y-00045*
X00086*
Y-00043*
X00086*
Y-00042*
X00087*
Y-0004*
X00087*
Y-00039*
X00088*
Y-00038*
X00088*
Y-00036*
X00088*
Y-00035*
X00089*
Y-00035*
X00089*
Y-00034*
X0009*
Y-00033*
X0009*
Y-00032*
X00091*
Y-00031*
X00091*
Y-0003*
X00092*
Y-00029*
X00092*
Y-00029*
X00092*
Y-00028*
X00093*
Y-00027*
X00093*
Y-00027*
X00094*
Y-00026*
X00094*
Y-00025*
X00095*
Y-00025*
X00095*
Y-00024*
X00096*
Y-00024*
X00096*
Y-00023*
X00097*
Y-00023*
X00097*
Y-00022*
X00097*
Y-00022*
X00098*
Y-00021*
X00098*
Y-00021*
X00099*
Y-00021*
X00099*
Y-0002*
X001*
Y-0002*
X001*
Y-00019*
X00101*
Y-00019*
X00101*
Y-00018*
X00102*
Y-00018*
X00102*
Y-00017*
X00102*
Y-00017*
X00103*
Y-00016*
X00104*
Y-00016*
X00104*
Y-00016*
X00105*
Y-00015*
X00106*
Y-00015*
X00106*
Y-00014*
X00107*
Y-00014*
X00107*
Y-00013*
X00108*
Y-00013*
X00109*
Y-00012*
X0011*
Y-00012*
X00111*
Y-00011*
X00111*
Y-00011*
X00112*
Y-00011*
X00113*
Y-0001*
X00114*
Y-0001*
X00116*
Y-00009*
X00117*
Y-00009*
X00118*
Y-00008*
X0012*
Y-00008*
X00122*
Y-00007*
X00124*
Y-00007*
X00127*
Y-00007*
X00138*
Y-00007*
G37*
G36*
X-00085Y-00073D02*
X-00082D01*
Y-00073*
X-0008*
Y-00074*
X-0008*
Y-00074*
X-00078*
Y-00075*
X-00077*
Y-00075*
X-00077*
Y-00076*
X-00076*
Y-00076*
X-00075*
Y-00077*
X-00075*
Y-00077*
X-00075*
Y-00078*
X-00074*
Y-00079*
X-00074*
Y-00081*
X-00074*
Y-00082*
X-00075*
Y-00083*
X-00075*
Y-00084*
X-00075*
Y-00084*
X-00076*
Y-00085*
X-00077*
Y-00085*
X-00078*
Y-00086*
X-00079*
Y-00086*
X-00082*
Y-00086*
X-00086*
Y-00086*
X-0009*
Y-00086*
X-00092*
Y-00085*
X-00094*
Y-00085*
X-00094*
Y-00084*
X-00095*
Y-00084*
X-00096*
Y-00083*
X-00097*
Y-00083*
X-00098*
Y-00082*
X-00098*
Y-00082*
X-00099*
Y-00081*
X-00099*
Y-0008*
X-00099*
Y-00078*
X-00099*
Y-00077*
X-00099*
Y-00076*
X-00098*
Y-00076*
X-00098*
Y-00075*
X-00097*
Y-00075*
X-00097*
Y-00074*
X-00096*
Y-00074*
X-00095*
Y-00073*
X-00094*
Y-00073*
X-00091*
Y-00072*
X-00085*
Y-00073*
G37*
G36*
X0023Y-00077D02*
X00231D01*
Y-00078*
X00231*
Y-00079*
X00232*
Y-0008*
X00232*
Y-00081*
X00233*
Y-00082*
X00233*
Y-00084*
X00233*
Y-00085*
X00234*
Y-00087*
X00234*
Y-00089*
X00235*
Y-00096*
X00234*
Y-00096*
X00234*
Y-00098*
X00233*
Y-00098*
X00233*
Y-00099*
X00233*
Y-001*
X00232*
Y-001*
X00232*
Y-001*
X00231*
Y-00101*
X0023*
Y-00101*
X00229*
Y-00102*
X00228*
Y-00102*
X00227*
Y-00103*
X00222*
Y-00102*
X00221*
Y-00102*
X00219*
Y-00101*
X00219*
Y-00101*
X00218*
Y-001*
X00218*
Y-001*
X00217*
Y-001*
X00216*
Y-00099*
X00216*
Y-00098*
X00215*
Y-00097*
X00215*
Y-00097*
X00214*
Y-00095*
X00214*
Y-0009*
X00214*
Y-00087*
X00215*
Y-00087*
Y-00086*
Y-00086*
X00215*
Y-00084*
X00216*
Y-00081*
X00216*
Y-0008*
X00217*
Y-00079*
X00217*
Y-00079*
X0022*
Y-00079*
X0022*
Y-0008*
X00221*
Y-00086*
X0022*
Y-00093*
X00221*
Y-00094*
X00221*
Y-00095*
X00222*
Y-00095*
X00223*
Y-00096*
X00226*
Y-00095*
X00227*
Y-00095*
X00228*
Y-00094*
X00228*
Y-00093*
X00228*
Y-00092*
X00229*
Y-00088*
X00228*
Y-00086*
X00228*
Y-00084*
X00228*
Y-00081*
X00227*
Y-00078*
X00228*
Y-00077*
X00228*
Y-00077*
X0023*
Y-00077*
G37*
G36*
X00182Y-00097D02*
X00186D01*
Y-00097*
X00188*
Y-00098*
X0019*
Y-00098*
X00191*
Y-00099*
X00191*
Y-00099*
X00191*
Y-001*
X00192*
Y-001*
X00192*
Y-001*
X00193*
Y-00101*
X00193*
Y-00103*
X00194*
Y-00105*
X00193*
Y-00106*
X00193*
Y-00106*
X00192*
Y-00107*
X00192*
Y-00107*
X00191*
Y-00108*
X00191*
Y-00108*
X0019*
Y-00109*
X00189*
Y-00109*
X00188*
Y-0011*
X00186*
Y-0011*
X00182*
Y-0011*
X00177*
Y-0011*
X00173*
Y-0011*
X00171*
Y-00109*
X0017*
Y-00109*
X00169*
Y-00108*
X00168*
Y-00108*
X00167*
Y-00107*
X00167*
Y-00107*
X00167*
Y-00106*
X00166*
Y-00105*
X00166*
Y-00104*
X00165*
Y-00103*
X00166*
Y-00102*
X00166*
Y-00101*
X00167*
Y-001*
X00167*
Y-001*
X00168*
Y-00099*
X00168*
Y-00099*
X00169*
Y-00098*
X0017*
Y-00098*
X00172*
Y-00097*
X00174*
Y-00097*
X00179*
Y-00096*
X00182*
Y-00097*
G37*
G36*
X0016Y-0011D02*
X00161D01*
Y-00111*
X00161*
Y-00112*
X00162*
Y-00113*
X00162*
Y-00114*
X00163*
Y-00115*
X00163*
Y-00117*
X00163*
Y-00119*
X00164*
Y-00125*
X00163*
Y-00126*
X00163*
Y-00127*
X00163*
Y-00128*
X00162*
Y-00128*
X00162*
Y-00129*
X00161*
Y-00129*
X00161*
Y-0013*
X0016*
Y-0013*
X00159*
Y-00131*
X00158*
Y-00131*
X00157*
Y-00132*
X00153*
Y-00131*
X00151*
Y-00131*
X0015*
Y-0013*
X00149*
Y-0013*
X00149*
Y-00129*
X00148*
Y-00129*
X00148*
Y-00128*
X00147*
Y-00128*
X00147*
Y-00127*
X00146*
Y-00126*
X00146*
Y-00125*
X00145*
Y-00119*
X00146*
Y-00117*
X00146*
Y-00116*
X00147*
Y-00114*
X00147*
Y-00113*
X00148*
Y-00112*
X00148*
Y-00112*
X00149*
Y-00111*
X00149*
Y-00111*
X0015*
Y-00111*
X00151*
Y-00112*
X00151*
Y-00113*
X00152*
Y-00114*
X00151*
Y-00118*
X00151*
Y-00121*
Y-00121*
Y-00123*
X00151*
Y-00124*
X00152*
Y-00124*
X00152*
Y-00124*
X00153*
Y-00125*
X00156*
Y-00124*
X00157*
Y-00124*
X00158*
Y-00123*
X00158*
Y-00122*
X00158*
Y-00118*
X00158*
Y-00114*
X00158*
Y-00111*
X00158*
Y-0011*
X00158*
Y-0011*
X0016*
Y-0011*
G37*
G36*
X00116Y-00154D02*
X00117D01*
Y-00155*
X00117*
Y-00155*
X00118*
Y-00156*
X00118*
Y-00159*
Y-00159*
X00118*
Y-0016*
X00117*
Y-0016*
X00116*
Y-00161*
X00114*
Y-0016*
X00113*
Y-0016*
X00113*
Y-00159*
X00112*
Y-00158*
X00112*
Y-00156*
X00112*
Y-00156*
X00113*
Y-00155*
X00113*
Y-00155*
X00114*
Y-00154*
X00115*
Y-00154*
X00116*
Y-00154*
G37*
G36*
X00101Y-00161D02*
X00102D01*
Y-00161*
X00102*
Y-00162*
X00103*
Y-00162*
X00103*
Y-00166*
X00103*
Y-00166*
X00102*
Y-00167*
X00102*
Y-00167*
X00101*
Y-00168*
X00099*
Y-00167*
X00098*
Y-00167*
X00098*
Y-00166*
X00097*
Y-00166*
X00097*
Y-00164*
Y-00164*
Y-00163*
X00097*
Y-00162*
X00098*
Y-00161*
X00098*
Y-00161*
X001*
Y-00161*
X00101*
Y-00161*
G37*
G36*
X-00014Y-00164D02*
X-00013D01*
Y-00165*
X-00013*
Y-00166*
X-00013*
Y-00167*
X-00014*
Y-00168*
X-00014*
Y-00168*
X-00015*
Y-00169*
X-00015*
Y-00169*
X-00017*
Y-00169*
X-00018*
Y-00168*
X-00018*
Y-00167*
X-00018*
Y-00166*
X-00017*
Y-00166*
X-00017*
Y-00165*
X-00016*
Y-00165*
X-00016*
Y-00164*
X-00015*
Y-00164*
X-00014*
Y-00164*
G37*
G36*
X-00018Y-00161D02*
X-00018D01*
Y-00161*
X-00017*
Y-00163*
X-00018*
Y-00163*
X-00018*
Y-00164*
X-00019*
Y-00164*
X-00019*
Y-00165*
X-00019*
Y-00166*
X-0002*
Y-00166*
X-0002*
Y-00166*
X-00021*
Y-00167*
X-00021*
Y-00167*
X-00022*
Y-00168*
X-00022*
Y-00168*
X-00023*
Y-00169*
X-00024*
Y-00169*
X-00025*
Y-00169*
X-00026*
Y-00168*
X-00026*
Y-00166*
X-00026*
Y-00166*
X-00025*
Y-00165*
X-00025*
Y-00164*
X-00024*
Y-00164*
X-00024*
Y-00163*
X-00024*
Y-00163*
X-00023*
Y-00162*
X-00023*
Y-00162*
X-00022*
Y-00161*
X-00021*
Y-00161*
X-00021*
Y-00161*
X-00018*
Y-00161*
G37*
G36*
X00167Y-00165D02*
X00168D01*
Y-00166*
X00169*
Y-00166*
X00169*
Y-00169*
X00169*
Y-0017*
X00168*
Y-0017*
X00168*
Y-00171*
X00167*
Y-00171*
X00166*
Y-00171*
X00164*
Y-0017*
X00164*
Y-00169*
X00163*
Y-00168*
X00163*
Y-00167*
X00163*
Y-00166*
X00164*
Y-00165*
X00164*
Y-00165*
X00167*
Y-00165*
G37*
G36*
X00147Y-0017D02*
X00148D01*
Y-0017*
X00149*
Y-00176*
X00148*
Y-00177*
X00148*
Y-00177*
X00147*
Y-00178*
X00145*
Y-00177*
X00144*
Y-00176*
X00144*
Y-00172*
X00144*
Y-0017*
X00145*
Y-0017*
X00146*
Y-00169*
X00147*
Y-0017*
G37*
G36*
X00153Y-00169D02*
X00154D01*
Y-0017*
X00154*
Y-00171*
X00155*
Y-00172*
X00155*
Y-00175*
X00156*
Y-00177*
Y-00177*
Y-00178*
X00155*
Y-00179*
X00154*
Y-00179*
X00153*
Y-00179*
X00152*
Y-00178*
X00152*
Y-00178*
X00151*
Y-00175*
X00151*
Y-0017*
X00151*
Y-00169*
X00152*
Y-00169*
X00153*
Y-00169*
G37*
G36*
X00192Y-00196D02*
X00193D01*
Y-00196*
X00193*
Y-00197*
X00194*
Y-00198*
X00194*
Y-00199*
X00195*
Y-002*
X00195*
Y-00201*
X00195*
Y-00203*
X00196*
Y-00208*
X00195*
Y-00208*
X00195*
Y-00209*
X00195*
Y-0021*
X00194*
Y-00211*
X00193*
Y-00211*
X00193*
Y-00212*
X00192*
Y-00212*
X00191*
Y-00213*
X00187*
Y-00212*
X00186*
Y-00212*
X00185*
Y-00211*
X00185*
Y-00211*
X00184*
Y-0021*
X00184*
Y-0021*
X00183*
Y-00209*
X00183*
Y-00208*
X00182*
Y-00207*
X00182*
Y-00204*
X00182*
Y-00203*
X00183*
Y-00203*
X00183*
Y-00202*
X00186*
Y-00203*
X00186*
Y-00203*
X00186*
Y-00205*
X00187*
Y-00206*
X00187*
Y-00206*
X00188*
Y-00207*
X00188*
Y-00207*
X0019*
Y-00207*
X00191*
Y-00206*
X00191*
Y-00201*
X00191*
Y-00199*
X0019*
Y-00196*
X00191*
Y-00196*
X00191*
Y-00195*
X00192*
Y-00196*
G37*
G36*
X00027Y-00152D02*
X00027D01*
Y-00152*
X00028*
Y-00153*
X00027*
Y-00153*
X00027*
Y-00154*
X00027*
Y-00154*
X00026*
Y-00155*
X00025*
Y-00155*
X00025*
Y-00156*
X00024*
Y-00156*
X00023*
Y-00156*
X00023*
Y-00157*
X00022*
Y-00157*
X00022*
Y-00158*
X00021*
Y-00158*
X00021*
Y-00159*
X0002*
Y-00159*
X0002*
Y-0016*
X00019*
Y-0016*
X00019*
Y-00161*
X00018*
Y-00161*
X00018*
Y-00161*
X00017*
Y-00162*
X00017*
Y-00163*
X00017*
Y-00163*
X00016*
Y-00164*
X00016*
Y-00165*
X00015*
Y-00165*
X00015*
Y-00166*
X00014*
Y-00167*
X00014*
Y-00168*
X00013*
Y-00169*
X00013*
Y-0017*
X00013*
Y-00171*
X00012*
Y-00174*
X00012*
Y-00176*
X00012*
Y-00177*
X00017*
Y-00177*
X00019*
Y-00176*
X0002*
Y-00176*
X00022*
Y-00175*
X00022*
Y-00175*
X00024*
Y-00175*
X00025*
Y-00174*
X00026*
Y-00174*
X00027*
Y-00173*
X00027*
Y-00173*
X00029*
Y-00172*
X00029*
Y-00172*
X0003*
Y-00171*
X00031*
Y-00171*
X00032*
Y-0017*
X00033*
Y-0017*
X00034*
Y-0017*
X00035*
Y-00169*
X00036*
Y-00169*
X00037*
Y-00168*
X00038*
Y-00168*
X00039*
Y-00167*
X0004*
Y-00167*
X00041*
Y-00166*
X00043*
Y-00166*
X00046*
Y-00166*
X00045*
Y-00167*
X00044*
Y-00168*
X00044*
Y-00168*
X00043*
Y-00169*
X00043*
Y-0017*
X00042*
Y-0017*
X00042*
Y-0017*
X00041*
Y-00171*
X00041*
Y-00172*
X00041*
Y-00173*
X0004*
Y-00173*
X0004*
Y-00174*
X00039*
Y-00175*
X00039*
Y-00176*
X00038*
Y-00177*
X00038*
Y-00178*
X00037*
Y-0018*
X00037*
Y-00181*
X00036*
Y-00185*
X00036*
Y-00189*
X00036*
Y-00193*
X00037*
Y-00194*
X00037*
Y-00194*
X00038*
Y-00194*
X00041*
Y-00194*
X00043*
Y-00194*
X00044*
Y-00193*
X00046*
Y-00193*
X00047*
Y-00192*
X00048*
Y-00192*
X00049*
Y-00191*
X0005*
Y-00191*
X0005*
Y-0019*
X00052*
Y-0019*
X00053*
Y-00189*
X00054*
Y-00189*
X00055*
Y-00189*
X00055*
Y-00188*
X00056*
Y-00188*
X00057*
Y-00187*
X00058*
Y-00187*
X00058*
Y-00186*
X00059*
Y-00186*
X0006*
Y-00185*
X0006*
Y-00185*
X00061*
Y-00185*
X00062*
Y-00184*
X00065*
Y-00185*
X00066*
Y-00185*
X00067*
Y-00185*
X00067*
Y-00186*
X00068*
Y-00187*
X00068*
Y-0019*
X00068*
Y-00191*
X00067*
Y-00192*
X00067*
Y-00192*
X00066*
Y-00193*
X00066*
Y-00193*
X00065*
Y-00194*
X00065*
Y-00194*
X00064*
Y-00194*
X00064*
Y-00195*
X00064*
Y-00195*
X00063*
Y-00196*
X00063*
Y-00196*
X00062*
Y-00197*
X00062*
Y-00197*
X00061*
Y-00198*
X0006*
Y-00198*
X0006*
Y-00199*
X0006*
Y-00199*
X00059*
Y-00199*
X00059*
Y-002*
X00058*
Y-002*
X00057*
Y-00201*
X00057*
Y-00201*
X00056*
Y-00202*
X00055*
Y-00202*
X00055*
Y-00203*
X00054*
Y-00203*
X00053*
Y-00203*
X00052*
Y-00204*
X00051*
Y-00204*
X0005*
Y-00205*
X0005*
Y-00205*
X00049*
Y-00206*
X00048*
Y-00206*
X00046*
Y-00207*
X00046*
Y-00207*
X00044*
Y-00208*
X00042*
Y-00208*
X00035*
Y-00208*
X00033*
Y-00207*
X00032*
Y-00207*
X00031*
Y-00206*
X0003*
Y-00206*
X0003*
Y-00205*
X00029*
Y-00205*
X00028*
Y-00204*
X00028*
Y-00203*
X00027*
Y-00203*
X00027*
Y-00203*
X00027*
Y-00202*
X00026*
Y-00201*
X00026*
Y-002*
X00025*
Y-00199*
X00025*
Y-00199*
X00024*
Y-00197*
X00024*
Y-00194*
X00023*
Y-0019*
X00021*
Y-0019*
X00019*
Y-00191*
X00016*
Y-00191*
X0001*
Y-00191*
X00008*
Y-0019*
X00007*
Y-0019*
X00006*
Y-00189*
X00005*
Y-00189*
X00004*
Y-00189*
X00003*
Y-00188*
X00003*
Y-00188*
X00003*
Y-00187*
X00002*
Y-00187*
X00002*
Y-00186*
X00001*
Y-00185*
X00001*
Y-00185*
X0*
Y-00184*
X0*
Y-00183*
X0*
Y-00182*
X0*
Y-00178*
X0*
Y-00178*
X0*
Y-00173*
X0*
Y-00171*
X0*
Y-0017*
X0*
Y-00169*
X00001*
Y-00168*
X00001*
Y-00167*
X00002*
Y-00166*
X00002*
Y-00166*
X00003*
Y-00165*
X00003*
Y-00164*
X00003*
Y-00163*
X00004*
Y-00163*
X00004*
Y-00162*
X00005*
Y-00162*
X00005*
Y-00161*
X00006*
Y-00161*
X00006*
Y-00161*
X00007*
Y-0016*
X00007*
Y-0016*
X00008*
Y-00159*
X00008*
Y-00159*
X00009*
Y-00158*
X00009*
Y-00158*
X0001*
Y-00157*
X00011*
Y-00157*
X00012*
Y-00156*
X00013*
Y-00156*
X00013*
Y-00156*
X00014*
Y-00155*
X00015*
Y-00155*
X00016*
Y-00154*
X00017*
Y-00154*
X00018*
Y-00153*
X00019*
Y-00153*
X0002*
Y-00152*
X00022*
Y-00152*
X00024*
Y-00152*
X00027*
Y-00152*
G37*
G36*
X00116Y-00175D02*
X00118D01*
Y-00175*
X00119*
Y-00175*
X00119*
Y-00176*
X0012*
Y-00176*
X0012*
Y-00177*
X00121*
Y-00178*
X00121*
Y-00178*
X00121*
Y-0018*
X00122*
Y-00182*
X00121*
Y-00184*
X00121*
Y-00184*
X00121*
Y-00185*
X0012*
Y-00185*
X0012*
Y-00186*
X00119*
Y-00187*
X00119*
Y-00188*
X00118*
Y-00188*
X00118*
Y-00189*
X00117*
Y-00189*
X00117*
Y-0019*
X00116*
Y-00191*
X00116*
Y-00191*
X00116*
Y-00192*
X00115*
Y-00193*
X00115*
Y-00194*
X00114*
Y-00194*
X00114*
Y-00195*
X00113*
Y-00196*
X00113*
Y-00197*
X00112*
Y-00198*
X00112*
Y-00199*
X00111*
Y-002*
X00111*
Y-00201*
X00111*
Y-00203*
X0011*
Y-00204*
X0011*
Y-00206*
X00109*
Y-00208*
X00109*
Y-00212*
X00109*
Y-00214*
X0011*
Y-00215*
X0011*
Y-00215*
X00111*
Y-00216*
X00111*
Y-00216*
X00111*
Y-00217*
X00112*
Y-00217*
X00113*
Y-00217*
X00115*
Y-00218*
X00123*
Y-00217*
X00125*
Y-00217*
X00127*
Y-00217*
X00129*
Y-00216*
X0013*
Y-00216*
X00131*
Y-00215*
X00132*
Y-00215*
X00133*
Y-00214*
X00134*
Y-00214*
X00135*
Y-00213*
X00135*
Y-00213*
X00136*
Y-00213*
X00137*
Y-00212*
X00138*
Y-00212*
X00139*
Y-00211*
X00139*
Y-00211*
X0014*
Y-0021*
X0014*
Y-0021*
X00141*
Y-00209*
X00142*
Y-00209*
X00142*
Y-00208*
X00143*
Y-00208*
X00144*
Y-00208*
X00144*
Y-00207*
X00144*
Y-00207*
X00145*
Y-00206*
X00146*
Y-00206*
X00146*
Y-00205*
X00147*
Y-00205*
X00147*
Y-00204*
X00148*
Y-00204*
X00148*
Y-00203*
X00149*
Y-00203*
X00149*
Y-00203*
X0015*
Y-00202*
X00151*
Y-00202*
X00152*
Y-00201*
X00155*
Y-00202*
X00156*
Y-00202*
X00157*
Y-00203*
X00157*
Y-00203*
X00158*
Y-00203*
X00158*
Y-00204*
X00158*
Y-00205*
X00159*
Y-00206*
X00159*
Y-0021*
X00159*
Y-00211*
X00158*
Y-00212*
X00158*
Y-00213*
X00158*
Y-00213*
X00157*
Y-00214*
X00157*
Y-00214*
X00156*
Y-00215*
X00156*
Y-00215*
X00155*
Y-00216*
X00155*
Y-00216*
X00154*
Y-00217*
X00154*
Y-00217*
X00153*
Y-00217*
X00153*
Y-00218*
X00153*
Y-00218*
X00152*
Y-00219*
X00151*
Y-00219*
X00151*
Y-0022*
X0015*
Y-0022*
X0015*
Y-00221*
X00149*
Y-00221*
X00149*
Y-00222*
X00148*
Y-00222*
X00147*
Y-00222*
X00147*
Y-00223*
X00146*
Y-00223*
X00145*
Y-00224*
X00144*
Y-00224*
X00144*
Y-00225*
X00143*
Y-00225*
X00142*
Y-00226*
X00141*
Y-00226*
X0014*
Y-00227*
X00139*
Y-00227*
X00138*
Y-00227*
X00137*
Y-00228*
X00136*
Y-00228*
X00135*
Y-00229*
X00134*
Y-00229*
X00132*
Y-0023*
X0013*
Y-0023*
X00129*
Y-00231*
X00127*
Y-00231*
X00124*
Y-00231*
X00121*
Y-00232*
X00116*
Y-00231*
X00113*
Y-00231*
X00111*
Y-00231*
X00109*
Y-0023*
X00108*
Y-0023*
X00107*
Y-00229*
X00106*
Y-00229*
X00105*
Y-00228*
X00104*
Y-00228*
X00104*
Y-00227*
X00103*
Y-00227*
X00102*
Y-00227*
X00102*
Y-00226*
X00102*
Y-00226*
X00101*
Y-00225*
X00101*
Y-00225*
X001*
Y-00224*
X001*
Y-00224*
X00099*
Y-00223*
X00099*
Y-00222*
X00098*
Y-00222*
X00098*
Y-00222*
X00097*
Y-0022*
X00097*
Y-0022*
X00097*
Y-00219*
X00096*
Y-00217*
X00096*
Y-00216*
X00095*
Y-00214*
X00095*
Y-00207*
X00095*
Y-00204*
X00096*
Y-00203*
X00096*
Y-00201*
X00097*
Y-00199*
X00097*
Y-00198*
X00097*
Y-00196*
X00098*
Y-00195*
X00098*
Y-00194*
X00099*
Y-00193*
X00099*
Y-00192*
X001*
Y-00191*
X001*
Y-0019*
X00101*
Y-00189*
X00101*
Y-00189*
X00102*
Y-00188*
X00102*
Y-00187*
X00102*
Y-00186*
X00103*
Y-00185*
X00103*
Y-00185*
X00104*
Y-00184*
X00104*
Y-00183*
X00105*
Y-00183*
X00105*
Y-00182*
X00106*
Y-00181*
X00106*
Y-00181*
X00106*
Y-0018*
X00107*
Y-0018*
X00107*
Y-00179*
X00108*
Y-00179*
X00108*
Y-00178*
X00109*
Y-00178*
X00109*
Y-00177*
X0011*
Y-00177*
X0011*
Y-00176*
X00111*
Y-00176*
X00111*
Y-00175*
X00112*
Y-00175*
X00113*
Y-00175*
X00114*
Y-00174*
X00116*
Y-00175*
G37*
G36*
X00195Y-00224D02*
X00195D01*
Y-00225*
X00196*
Y-00226*
X00196*
Y-00227*
X00197*
Y-00228*
X00197*
Y-0023*
X00198*
Y-00231*
X00198*
Y-00232*
X00199*
Y-00239*
X00198*
Y-0024*
X00198*
Y-00241*
X00197*
Y-00241*
X00197*
Y-00242*
X00196*
Y-00243*
X00196*
Y-00243*
X00195*
Y-00244*
X00195*
Y-00244*
X00194*
Y-00245*
X00191*
Y-00245*
X0019*
Y-00245*
X00187*
Y-00244*
X00186*
Y-00244*
X00186*
Y-00243*
X00185*
Y-00243*
X00185*
Y-00242*
X00184*
Y-00242*
X00184*
Y-00241*
X00183*
Y-00241*
X00183*
Y-0024*
X00182*
Y-00237*
X00182*
Y-00236*
X00182*
Y-00233*
X00183*
Y-00231*
X00183*
Y-00229*
X00184*
Y-00228*
X00184*
Y-00227*
X00185*
Y-00227*
X00187*
Y-00227*
X00187*
Y-00229*
X00188*
Y-0023*
Y-0023*
Y-00231*
X00187*
Y-00236*
X00188*
Y-00238*
X00188*
Y-00238*
X00189*
Y-00239*
X0019*
Y-00239*
X0019*
Y-00239*
X00191*
Y-00238*
X00192*
Y-00238*
X00193*
Y-00237*
X00193*
Y-00231*
X00193*
Y-0023*
X00192*
Y-00224*
X00193*
Y-00224*
X00195*
Y-00224*
G37*
G36*
X-00032Y-00231D02*
X-00031D01*
Y-00231*
X-00031*
Y-00234*
X-00031*
Y-00236*
X-0003*
Y-00235*
X-00029*
Y-00233*
X-00029*
Y-00232*
X-00027*
Y-00233*
X-00026*
Y-00233*
X-00026*
Y-00234*
X-00025*
Y-00236*
X-00026*
Y-00236*
Y-00236*
X-00026*
Y-00237*
X-00027*
Y-00237*
X-00027*
Y-00238*
X-00028*
Y-00238*
X-00028*
Y-00239*
X-00029*
Y-00239*
X-00031*
Y-00239*
X-00032*
Y-00238*
X-00033*
Y-00238*
X-00033*
Y-00237*
X-00034*
Y-00237*
X-00034*
Y-00236*
X-00035*
Y-00235*
X-00035*
Y-00233*
X-00035*
Y-00232*
X-00034*
Y-00231*
X-00034*
Y-00231*
X-00032*
Y-00231*
G37*
G36*
X00079Y-00229D02*
X0008D01*
Y-00229*
X0008*
Y-0023*
X00081*
Y-00231*
Y-00231*
X00081*
Y-00233*
X00082*
Y-00234*
X00082*
Y-00236*
X00083*
Y-00238*
X00083*
Y-00244*
X00083*
Y-00245*
X00082*
Y-00246*
X00082*
Y-00247*
X00081*
Y-00247*
X00081*
Y-00248*
X0008*
Y-00249*
X00079*
Y-00249*
X00079*
Y-0025*
X00078*
Y-0025*
X00077*
Y-0025*
X00071*
Y-0025*
X0007*
Y-0025*
X00069*
Y-00249*
X00069*
Y-00249*
X00068*
Y-00248*
X00068*
Y-00248*
X00067*
Y-00247*
X00067*
Y-00247*
X00066*
Y-00246*
X00066*
Y-00245*
X00065*
Y-00244*
X00065*
Y-0024*
X00065*
Y-00238*
X00066*
Y-00236*
X00066*
Y-00235*
X00067*
Y-00233*
X00067*
Y-00232*
X00068*
Y-00231*
X00068*
Y-00231*
X00069*
Y-0023*
X00069*
Y-0023*
X0007*
Y-0023*
X00071*
Y-00231*
X00071*
Y-00236*
X00071*
Y-00242*
X00071*
Y-00243*
X00072*
Y-00244*
X00073*
Y-00244*
X00074*
Y-00245*
X00074*
Y-00244*
X00076*
Y-00244*
X00076*
Y-00243*
X00077*
Y-00243*
X00077*
Y-00241*
X00078*
Y-00237*
X00077*
Y-00234*
X00077*
Y-00232*
X00076*
Y-00229*
X00077*
Y-00229*
X00077*
Y-00228*
X00079*
Y-00229*
G37*
G36*
X00148Y-00241D02*
X00149D01*
Y-00241*
X00149*
Y-00242*
X00149*
Y-00243*
X0015*
Y-00244*
X0015*
Y-00245*
X00151*
Y-00247*
X00151*
Y-00248*
X00152*
Y-0025*
X00152*
Y-00252*
X00153*
Y-00254*
X00153*
Y-00256*
X00153*
Y-00263*
X00153*
Y-00264*
X00153*
Y-00265*
X00152*
Y-00266*
X00152*
Y-00266*
X00151*
Y-00267*
X00151*
Y-00268*
X0015*
Y-00268*
X0015*
Y-00269*
X00149*
Y-00269*
X00148*
Y-00269*
X00147*
Y-0027*
X00146*
Y-0027*
X00144*
Y-00271*
X0014*
Y-0027*
X00138*
Y-0027*
X00137*
Y-00269*
X00136*
Y-00269*
X00135*
Y-00269*
X00135*
Y-00268*
X00134*
Y-00268*
X00133*
Y-00267*
X00133*
Y-00266*
X00132*
Y-00266*
X00132*
Y-00265*
X00131*
Y-00264*
X00131*
Y-00262*
X0013*
Y-00257*
X00131*
Y-00255*
X00131*
Y-00253*
X00132*
Y-00251*
X00132*
Y-0025*
X00133*
Y-00248*
X00133*
Y-00246*
X00134*
Y-00245*
X00134*
Y-00245*
X00135*
Y-00245*
X00136*
Y-00245*
X00137*
Y-00245*
X00137*
Y-00246*
X00138*
Y-00251*
X00137*
Y-0026*
X00138*
Y-00261*
X00138*
Y-00262*
X00139*
Y-00262*
X00139*
Y-00263*
X0014*
Y-00263*
X00144*
Y-00263*
X00145*
Y-00262*
X00145*
Y-00262*
X00146*
Y-00261*
X00146*
Y-0026*
X00147*
Y-00255*
Y-00255*
X00146*
Y-00251*
X00146*
Y-00249*
X00145*
Y-00245*
X00145*
Y-00242*
X00145*
Y-00241*
X00146*
Y-00241*
X00146*
Y-0024*
X00148*
Y-00241*
G37*
G36*
X-00009Y-00239D02*
X-00009D01*
Y-00239*
X-00008*
Y-0024*
X-00008*
Y-00245*
X-00008*
Y-00248*
X-00009*
Y-0025*
X-00009*
Y-00256*
X-00009*
Y-00257*
Y-00257*
X-00008*
Y-00258*
X-00008*
Y-00258*
X-00007*
Y-00259*
X-00007*
Y-00259*
X-00006*
Y-00259*
X-00003*
Y-00259*
X-00002*
Y-00259*
X-00001*
Y-00258*
X-00001*
Y-00258*
X0*
Y-00257*
X0*
Y-00256*
X0*
Y-00251*
X0*
Y-00247*
X0*
Y-00243*
X-00001*
Y-00241*
X0*
Y-0024*
X0*
Y-0024*
X0*
Y-00239*
X0*
Y-00239*
X00001*
Y-00239*
X00002*
Y-0024*
X00002*
Y-0024*
X00003*
Y-00241*
X00003*
Y-00242*
X00003*
Y-00244*
X00004*
Y-00246*
X00004*
Y-00247*
X00005*
Y-0025*
X00005*
Y-00251*
X00006*
Y-00254*
X00006*
Y-00258*
X00006*
Y-0026*
X00005*
Y-00261*
X00005*
Y-00262*
X00004*
Y-00262*
X00004*
Y-00263*
X00003*
Y-00264*
X00003*
Y-00264*
X00003*
Y-00264*
X00002*
Y-00265*
X00001*
Y-00265*
X0*
Y-00266*
X0*
Y-00266*
X-00001*
Y-00267*
X-00007*
Y-00266*
X-00009*
Y-00266*
X-0001*
Y-00265*
X-0001*
Y-00265*
X-00011*
Y-00264*
X-00012*
Y-00264*
X-00012*
Y-00264*
X-00013*
Y-00263*
X-00013*
Y-00263*
X-00014*
Y-00262*
X-00014*
Y-00261*
X-00014*
Y-0026*
X-00015*
Y-00259*
X-00015*
Y-00257*
X-00016*
Y-00254*
X-00015*
Y-00251*
X-00015*
Y-00249*
X-00014*
Y-00247*
X-00014*
Y-00246*
X-00014*
Y-00244*
X-00013*
Y-00242*
X-00013*
Y-00241*
X-00012*
Y-0024*
X-00012*
Y-00239*
X-00011*
Y-00239*
X-00011*
Y-00238*
X-00009*
Y-00239*
G37*
G36*
X00183Y-00251D02*
X00184D01*
Y-00252*
X00185*
Y-00253*
X00185*
Y-00254*
X00186*
Y-00255*
X00186*
Y-00256*
X00186*
Y-00258*
X00187*
Y-00259*
X00187*
Y-00261*
X00188*
Y-00263*
X00188*
Y-00264*
Y-00267*
X00188*
Y-00269*
X00187*
Y-0027*
X00187*
Y-00271*
X00186*
Y-00272*
X00186*
Y-00272*
X00186*
Y-00273*
X00185*
Y-00273*
X00185*
Y-00273*
X00184*
Y-00274*
X00183*
Y-00274*
X00182*
Y-00275*
X00181*
Y-00275*
X00177*
Y-00275*
X00175*
Y-00274*
X00174*
Y-00274*
X00173*
Y-00273*
X00173*
Y-00273*
X00172*
Y-00273*
X00172*
Y-00272*
X00172*
Y-00272*
X00171*
Y-00271*
X00171*
Y-0027*
X0017*
Y-00269*
X0017*
Y-00268*
X00169*
Y-00262*
X0017*
Y-0026*
X0017*
Y-00258*
X00171*
Y-00256*
X00171*
Y-00254*
X00172*
Y-00253*
X00172*
Y-00253*
X00172*
Y-00252*
X00173*
Y-00252*
X00174*
Y-00252*
X00175*
Y-00253*
X00175*
Y-00254*
X00176*
Y-00259*
X00175*
Y-00262*
X00175*
Y-00264*
X00175*
Y-00266*
X00176*
Y-00267*
X00176*
Y-00268*
X00177*
Y-00268*
X00177*
Y-00269*
X0018*
Y-00268*
X00181*
Y-00268*
X00181*
Y-00267*
X00182*
Y-00266*
X00182*
Y-00264*
X00183*
Y-00263*
X00182*
Y-00259*
X00182*
Y-00258*
X00181*
Y-00255*
X00181*
Y-00252*
X00181*
Y-00251*
X00182*
Y-00251*
X00183*
Y-00251*
G37*
G36*
X00041Y-00257D02*
X00041D01*
Y-00259*
X00041*
Y-0026*
X00041*
Y-00263*
X00041*
Y-00266*
X0004*
Y-00269*
X0004*
Y-0027*
X0004*
Y-00272*
X00041*
Y-00273*
X00041*
Y-00273*
X00041*
Y-00274*
X00042*
Y-00274*
X00045*
Y-00274*
X00046*
Y-00273*
X00046*
Y-00273*
X00046*
Y-00273*
X00047*
Y-00272*
X00047*
Y-00268*
X00047*
Y-00263*
X00046*
Y-0026*
X00047*
Y-00259*
X00047*
Y-00259*
X00049*
Y-00259*
X0005*
Y-0026*
X0005*
Y-00261*
X0005*
Y-00262*
X00051*
Y-00263*
X00051*
Y-00265*
X00052*
Y-00266*
X00052*
Y-00268*
X00053*
Y-0027*
X00053*
Y-00273*
X00053*
Y-00274*
X00052*
Y-00275*
X00052*
Y-00276*
X00051*
Y-00277*
X00051*
Y-00278*
X0005*
Y-00278*
X0005*
Y-00278*
X0005*
Y-00279*
X00049*
Y-00279*
X00048*
Y-0028*
X00047*
Y-0028*
X00044*
Y-00281*
X00043*
Y-0028*
X0004*
Y-0028*
X00039*
Y-00279*
X00038*
Y-00279*
X00037*
Y-00278*
X00037*
Y-00278*
X00036*
Y-00278*
X00036*
Y-00277*
X00036*
Y-00276*
X00035*
Y-00275*
X00035*
Y-00273*
X00034*
Y-00269*
X00035*
Y-00266*
X00035*
Y-00264*
X00036*
Y-00263*
X00036*
Y-00261*
X00036*
Y-0026*
X00037*
Y-00259*
X00037*
Y-00258*
X00038*
Y-00257*
X00038*
Y-00257*
X00041*
Y-00257*
G37*
%LNpcb1_legend_bot-4*%
%LPC*%
G36*
X0Y00092D02*
X-00004D01*
Y00091*
X-00004*
Y00091*
X-00005*
Y00091*
X-00005*
Y0009*
X-00005*
Y00087*
X-00005*
Y00086*
X-00005*
Y00086*
X-00004*
Y00086*
X-00004*
Y00085*
X-00002*
Y00085*
X-00001*
Y00085*
X0*
Y00086*
X0*
Y00086*
X0*
Y00087*
X0*
Y0009*
X0*
Y00091*
X0*
Y00091*
X0*
Y00092*
G37*
G36*
X00125Y00082D02*
X00122D01*
Y00082*
X00122*
Y00081*
X00121*
Y00081*
X00121*
Y00079*
X00121*
Y00078*
X00122*
Y00078*
X00122*
Y00077*
X00125*
Y00078*
X00125*
Y00079*
X00126*
Y00081*
X00125*
Y00082*
X00125*
Y00082*
G37*
G36*
X-00018Y00076D02*
X-00019D01*
Y00076*
X-00019*
Y00074*
X-00019*
Y00073*
X-00018*
Y00074*
X-00017*
Y00075*
X-00017*
Y00075*
X-00017*
Y00076*
X-00018*
Y00076*
G37*
G36*
X-00028Y-00009D02*
X-00034D01*
Y-0001*
X-00036*
Y-0001*
X-00038*
Y-00011*
X-00039*
Y-00011*
X-0004*
Y-00011*
X-0004*
Y-00012*
X-00041*
Y-00012*
X-00042*
Y-00013*
X-00042*
Y-00013*
X-00042*
Y-00014*
X-00043*
Y-00014*
X-00043*
Y-00015*
X-00044*
Y-00015*
X-00044*
Y-00016*
X-00045*
Y-00016*
X-00045*
Y-00017*
X-00046*
Y-00018*
X-00046*
Y-00019*
X-00047*
Y-0002*
X-00047*
Y-00021*
X-00047*
Y-00029*
X-00047*
Y-0003*
X-00047*
Y-00031*
X-00046*
Y-00033*
X-00046*
Y-00034*
X-00045*
Y-00034*
X-00045*
Y-00035*
X-00044*
Y-00035*
X-00044*
Y-00036*
X-00043*
Y-00036*
X-00043*
Y-00037*
X-00042*
Y-00037*
X-00042*
Y-00038*
X-00042*
Y-00038*
X-00041*
Y-00039*
X-0004*
Y-00039*
X-0004*
Y-00039*
X-00039*
Y-0004*
X-00038*
Y-0004*
X-00037*
Y-00041*
X-00035*
Y-00041*
X-00028*
Y-00041*
X-00026*
Y-0004*
X-00025*
Y-0004*
X-00024*
Y-00039*
X-00023*
Y-00039*
X-00022*
Y-00039*
X-00021*
Y-00038*
X-00021*
Y-00038*
X-0002*
Y-00037*
X-0002*
Y-00037*
X-00019*
Y-00036*
X-00019*
Y-00036*
X-00019*
Y-00035*
X-00018*
Y-00035*
X-00018*
Y-00034*
X-00017*
Y-00033*
X-00017*
Y-00032*
X-00016*
Y-00032*
X-00016*
Y-0003*
X-00015*
Y-00028*
X-00015*
Y-00023*
X-00015*
Y-00021*
X-00016*
Y-0002*
X-00016*
Y-00019*
X-00017*
Y-00018*
X-00017*
Y-00017*
X-00018*
Y-00016*
X-00018*
Y-00016*
X-00019*
Y-00015*
X-00019*
Y-00015*
X-00019*
Y-00014*
X-0002*
Y-00013*
X-00021*
Y-00013*
X-00021*
Y-00012*
X-00022*
Y-00012*
X-00023*
Y-00011*
X-00024*
Y-00011*
X-00024*
Y-00011*
X-00025*
Y-0001*
X-00027*
Y-0001*
X-00028*
Y-00009*
G37*
G36*
X00151Y-00026D02*
X00144D01*
Y-00027*
X00143*
Y-00027*
X00141*
Y-00028*
X0014*
Y-00028*
X00139*
Y-00029*
X00138*
Y-00029*
X00138*
Y-0003*
X00137*
Y-0003*
X00136*
Y-0003*
X00136*
Y-00031*
X00135*
Y-00031*
X00135*
Y-00032*
X00135*
Y-00032*
X00134*
Y-00033*
X00134*
Y-00034*
X00133*
Y-00034*
X00133*
Y-00035*
X00132*
Y-00036*
X00132*
Y-00037*
X00131*
Y-00038*
X00131*
Y-0004*
X0013*
Y-00047*
X00131*
Y-00049*
X00131*
Y-0005*
X00132*
Y-00051*
X00132*
Y-00052*
X00133*
Y-00052*
X00133*
Y-00053*
X00134*
Y-00053*
X00134*
Y-00054*
X00135*
Y-00054*
X00135*
Y-00055*
X00135*
Y-00056*
X00136*
Y-00056*
X00137*
Y-00057*
X00137*
Y-00057*
X00138*
Y-00058*
X00139*
Y-00058*
X00139*
Y-00058*
X0014*
Y-00059*
X00141*
Y-00059*
X00142*
Y-0006*
X00144*
Y-0006*
X00151*
Y-0006*
X00153*
Y-00059*
X00154*
Y-00059*
X00155*
Y-00058*
X00156*
Y-00058*
X00157*
Y-00058*
X00158*
Y-00057*
X00158*
Y-00057*
X00159*
Y-00056*
X00159*
Y-00056*
X0016*
Y-00055*
X0016*
Y-00055*
X00161*
Y-00054*
X00161*
Y-00054*
X00162*
Y-00053*
X00162*
Y-00053*
X00163*
Y-00052*
X00163*
Y-00051*
X00163*
Y-0005*
X00164*
Y-00049*
X00164*
Y-00048*
X00165*
Y-00045*
X00165*
Y-00042*
X00165*
Y-00039*
X00164*
Y-00038*
X00164*
Y-00037*
X00163*
Y-00036*
X00163*
Y-00035*
X00163*
Y-00034*
X00162*
Y-00034*
X00162*
Y-00033*
X00161*
Y-00032*
X00161*
Y-00032*
X0016*
Y-00031*
X0016*
Y-00031*
X00159*
Y-0003*
X00158*
Y-0003*
X00158*
Y-0003*
X00158*
Y-00029*
X00157*
Y-00029*
X00156*
Y-00028*
X00155*
Y-00028*
X00154*
Y-00027*
X00153*
Y-00027*
X00151*
Y-00026*
G37*
%LNpcb1_legend_bot-5*%
%LPD*%
G36*
X-00067Y00113D02*
X-00066D01*
Y00112*
X-00066*
Y00112*
X-00065*
Y00111*
X-00065*
Y00111*
X-00064*
Y0011*
X-00063*
Y0011*
X-00063*
Y0011*
X-00062*
Y00109*
X-00061*
Y00109*
X-00061*
Y00108*
X-00061*
Y00108*
X-0006*
Y00107*
X-0006*
Y00106*
X-0006*
Y00105*
X-00061*
Y00104*
X-00061*
Y00104*
X-00062*
Y00104*
X-00063*
Y00105*
X-00064*
Y00105*
X-00065*
Y00105*
X-00065*
Y00106*
X-00066*
Y00106*
X-00066*
Y00107*
X-00067*
Y00107*
X-00068*
Y00108*
X-00069*
Y00108*
X-00069*
Y00109*
X-0007*
Y00109*
X-00071*
Y0011*
X-00071*
Y00111*
X-00071*
Y00112*
X-0007*
Y00113*
X-00069*
Y00113*
X-00067*
Y00113*
G37*
G36*
X00266Y00057D02*
X00266D01*
Y00057*
X00266*
Y00056*
X00267*
Y00055*
X00266*
Y00053*
X00266*
Y00053*
X00265*
Y00053*
X00265*
Y00052*
X00264*
Y00052*
X00264*
Y00051*
X00263*
Y00051*
X00262*
Y0005*
X00261*
Y0005*
X0026*
Y00049*
X00259*
Y0005*
X00258*
Y0005*
X00257*
Y00051*
X00257*
Y00052*
X00257*
Y00053*
X00258*
Y00053*
X00258*
Y00054*
X00259*
Y00054*
X00259*
Y00055*
X0026*
Y00055*
X00261*
Y00056*
X00261*
Y00056*
X00262*
Y00057*
X00262*
Y00057*
X00264*
Y00058*
X00266*
Y00057*
G37*
G36*
X0027Y00047D02*
X00271D01*
Y00047*
X00271*
Y00044*
X00271*
Y00044*
X0027*
Y00044*
X00269*
Y00043*
X00267*
Y00044*
X00266*
Y00044*
X00266*
Y00045*
X00266*
Y00046*
X00267*
Y00047*
X00267*
Y00047*
X00268*
Y00048*
X0027*
Y00047*
G37*
G36*
X00244Y-00007D02*
X00246D01*
Y-00008*
X00247*
Y-00008*
X00249*
Y-00009*
X0025*
Y-00009*
X0025*
Y-0001*
X00251*
Y-00012*
X0025*
Y-00013*
X00249*
Y-00013*
X00248*
Y-00014*
X00247*
Y-00013*
X00245*
Y-00013*
X00243*
Y-00012*
X00242*
Y-00012*
X00241*
Y-00011*
X0024*
Y-00011*
X00239*
Y-00008*
X0024*
Y-00007*
X0024*
Y-00007*
X00244*
Y-00007*
G37*
%LNpcb1_legend_bot-6*%
%LPC*%
G36*
X00262Y-00317D02*
X00254D01*
Y-00317*
X00252*
Y-00318*
X00251*
Y-00318*
X0025*
Y-00319*
X0025*
Y-00319*
X00249*
Y-0032*
X00249*
Y-0032*
X00249*
Y-00321*
X0025*
Y-00321*
X00251*
Y-00322*
X00252*
Y-00322*
X00263*
Y-00322*
X00265*
Y-00321*
X00266*
Y-00321*
X00266*
Y-0032*
X00267*
Y-00319*
X00266*
Y-00318*
X00266*
Y-00318*
X00264*
Y-00317*
X00262*
Y-00317*
G37*
%LNpcb1_legend_bot-7*%
%LPD*%
G54D24*
X00345Y00341D02*
Y00301D01*
X00331Y00315*
X00318Y00301*
Y00341*
X00278D02*
X00305D01*
Y00301*
X00278*
X00305Y00321D02*
X00291D01*
X00265Y00341D02*
X00238D01*
X00251*
Y00301*
X00185D02*
Y00341D01*
X00165*
X00158Y00335*
Y00321*
X00165Y00315*
X00185*
X00171D02*
X00158Y00301D01*
X00145D02*
Y00328D01*
X00131Y00341*
X00118Y00328*
Y00301*
Y00321*
X00145*
X00105Y00341D02*
X00078D01*
X00091*
Y00301*
X00345Y0023D02*
Y00269D01*
X00325*
X00318Y00263*
Y00249*
X00325Y00243*
X00345*
X00305Y0023D02*
Y00269D01*
X00285*
X00278Y00263*
Y00249*
X00285Y00243*
X00305*
X00291D02*
X00278Y0023D01*
X00245Y00269D02*
X00258D01*
X00265Y00263*
Y00236*
X00258Y0023*
X00245*
X00238Y00236*
Y00263*
X00245Y00269*
X00225D02*
Y0023D01*
X00205*
X00198Y00236*
Y00263*
X00205Y00269*
X00225*
X00185D02*
Y00236D01*
X00178Y0023*
X00165*
X00158Y00236*
Y00269*
X00118Y00263D02*
X00125Y00269D01*
X00138*
X00145Y00263*
Y00236*
X00138Y0023*
X00125*
X00118Y00236*
X00105Y00269D02*
X00078D01*
X00091*
Y0023*
X00065Y00269D02*
X00051D01*
X00058*
Y0023*
X00065*
X00051*
X00011Y00269D02*
X00025D01*
X00031Y00263*
Y00236*
X00025Y0023*
X00011*
X00005Y00236*
Y00263*
X00011Y00269*
X-00008Y0023D02*
Y00269D01*
X-00034Y0023*
Y00269*
X-00074Y00263D02*
X-00068Y00269D01*
X-00054*
X-00048Y00263*
Y00256*
X-00054Y00249*
X-00068*
X-00074Y00243*
Y00236*
X-00068Y0023*
X-00054*
X-00048Y00236*
M02*