%FSTAX23Y23*%
%MOIN*%
%SFA1B1*%

%IPPOS*%
%AMD10*
4,1,8,0.008400,0.009800,-0.008400,0.009800,-0.010800,0.007400,-0.010800,-0.007400,-0.008400,-0.009800,0.008400,-0.009800,0.010800,-0.007400,0.010800,0.007400,0.008400,0.009800,0.0*
1,1,0.004921,0.008400,0.007400*
1,1,0.004921,-0.008400,0.007400*
1,1,0.004921,-0.008400,-0.007400*
1,1,0.004921,0.008400,-0.007400*
%
%AMD12*
4,1,8,-0.009800,0.008400,-0.009800,-0.008400,-0.007400,-0.010800,0.007400,-0.010800,0.009800,-0.008400,0.009800,0.008400,0.007400,0.010800,-0.007400,0.010800,-0.009800,0.008400,0.0*
1,1,0.004921,-0.007400,0.008400*
1,1,0.004921,-0.007400,-0.008400*
1,1,0.004921,0.007400,-0.008400*
1,1,0.004921,0.007400,0.008400*
%
G04~CAMADD=10~8~0.0~0.0~216.5~196.9~24.6~0.0~15~0.0~0.0~0.0~0.0~0~0.0~0.0~0.0~0.0~0~0.0~0.0~0.0~0.0~216.5~196.9*
%ADD10D10*%
%ADD11R,0.135039X0.070079*%
G04~CAMADD=12~8~0.0~0.0~216.5~196.9~24.6~0.0~15~0.0~0.0~0.0~0.0~0~0.0~0.0~0.0~0.0~0~0.0~0.0~0.0~90.0~196.0~216.0*
%ADD12D12*%
%ADD13O,0.049212X0.021654*%
%ADD14C,0.010000*%
%ADD15C,0.015000*%
%ADD16R,0.061024X0.061024*%
%ADD17C,0.061024*%
%ADD18C,0.023622*%
%ADD19C,0.031496*%
%LNpcb1_copper_signal_top-1*%
%LPD*%
G36*
X00355Y00384D02*
X00363Y0038D01*
X0037Y00376*
X00376Y0037*
X0038Y00363*
X00384Y00355*
X00385Y00347*
Y00343*
Y-00343*
Y-00347*
X00384Y-00355*
X0038Y-00363*
X00376Y-0037*
X0037Y-00376*
X00363Y-0038*
X00355Y-00384*
X00347Y-00385*
X-00347*
X-00355Y-00384*
X-00363Y-0038*
X-0037Y-00376*
X-00376Y-0037*
X-0038Y-00363*
X-00384Y-00355*
X-00385Y-00347*
Y-00343*
Y00351*
Y00354*
X-00384Y00361*
X-00381Y00367*
X-00378Y00373*
X-00373Y00378*
X-00367Y00381*
X-00361Y00384*
X-00354Y00385*
X00347*
X00355Y00384*
G37*
%LNpcb1_copper_signal_top-2*%
%LPC*%
G36*
X-0031Y00185D02*
X-00312D01*
Y00152*
X-00279*
Y00154*
X-00281Y00163*
X-00286Y00171*
X-00293Y00178*
X-00301Y00183*
X-0031Y00185*
G37*
G36*
X-00317D02*
X-00319D01*
X-00328Y00183*
X-00336Y00178*
X-00343Y00171*
X-00348Y00163*
X-0035Y00154*
Y00152*
X-00317*
Y00185*
G37*
G36*
X00025Y0015D02*
X0002D01*
Y00137*
X00032*
Y00143*
X00032Y00146*
X0003Y00148*
X00028Y0015*
X00025Y0015*
G37*
G36*
X00015D02*
X0001D01*
X00007Y0015*
X00004Y00148*
X00003Y00146*
X00002Y00143*
Y00137*
X00015*
Y0015*
G37*
G36*
X00032Y00132D02*
X0002D01*
Y00119*
X00025*
X00028Y00119*
X0003Y00121*
X00032Y00123*
X00032Y00126*
Y00132*
G37*
G36*
X00015D02*
X00002D01*
Y00126*
X00003Y00123*
X00004Y00121*
X00007Y00119*
X0001Y00119*
X00015*
Y00132*
G37*
G36*
X-00279Y00285D02*
X-0035D01*
Y00214*
X-00306*
Y00208*
X-00305Y00203*
X-00302Y00199*
X-00169Y00065*
X-00167Y00065*
X-00169Y0006*
X-0028*
X-00281Y00063*
X-00286Y00071*
X-00293Y00078*
X-00301Y00083*
X-0031Y00085*
X-00319*
X-00328Y00083*
X-00336Y00078*
X-00343Y00071*
X-00348Y00063*
X-0035Y00054*
Y00045*
X-00348Y00036*
X-00343Y00028*
X-00336Y00021*
X-00328Y00016*
X-00319Y00014*
X-0031*
X-00301Y00016*
X-00293Y00021*
X-00286Y00028*
X-00281Y00036*
X-0028Y00039*
X-00162*
X-00161Y00034*
X-00163Y00034*
X-00167Y00032*
X-00312Y-00113*
X-00313Y-00114*
X-00319*
X-00328Y-00116*
X-00336Y-00121*
X-00343Y-00128*
X-00348Y-00136*
X-0035Y-00145*
Y-00154*
X-00348Y-00163*
X-00343Y-00171*
X-00336Y-00178*
X-00328Y-00183*
X-00322Y-00184*
X-00322Y-00189*
X-00339*
X-00359Y-00169*
Y-00109*
X-00331Y-00081*
X-00328Y-00083*
X-00319Y-00085*
X-0031*
X-00301Y-00083*
X-00293Y-00078*
X-00286Y-00071*
X-00281Y-00063*
X-00279Y-00054*
Y-00045*
X-00281Y-00036*
X-00286Y-00028*
X-00293Y-00021*
X-00301Y-00016*
X-0031Y-00014*
X-00319*
X-00328Y-00016*
X-00336Y-00021*
X-00343Y-00028*
X-00348Y-00036*
X-0035Y-00045*
Y-00054*
X-00348Y-00063*
X-00346Y-00066*
X-00377Y-00097*
X-00379Y-00101*
X-0038Y-00105*
Y-00174*
X-00379Y-00178*
X-00377Y-00181*
X-00351Y-00207*
X-00348Y-00209*
X-00344Y-0021*
X-00322*
X-00322Y-00215*
X-00328Y-00216*
X-00336Y-00221*
X-00343Y-00228*
X-00348Y-00236*
X-0035Y-00245*
Y-00254*
X-00348Y-00263*
X-00343Y-00271*
X-00336Y-00278*
X-00328Y-00283*
X-00319Y-00285*
X-0031*
X-00301Y-00283*
X-00293Y-00278*
X-00286Y-00271*
X-00281Y-00263*
X-0028Y-0026*
X-00125*
X-00121Y-00259*
X-00117Y-00257*
X-00087Y-00226*
X-00083Y-00229*
X-00085Y-00235*
Y-00244*
X-00082Y-00251*
X-00076Y-00257*
X-00069Y-0026*
X-0006*
X-00053Y-00257*
X-00047Y-00251*
X-00047Y-00251*
X00009*
X00009Y-00252*
X00011Y-00255*
X00013Y-00256*
X00016Y-00257*
X00033*
X00036Y-00256*
X00038Y-00255*
X0004Y-00252*
X0004Y-00252*
X00127*
Y-0028*
X00272*
Y-00199*
X00127*
Y-00232*
X0004*
X0004Y-00231*
X00038Y-00229*
X00036Y-00227*
X00033Y-00227*
X00016*
X00013Y-00227*
X00011Y-00229*
X0001Y-0023*
X-00046*
X-00047Y-00228*
X-00053Y-00222*
X-0006Y-00219*
X-00069*
X-00075Y-00221*
X-00078Y-00217*
X00054Y-00085*
X00077*
X00078Y-00086*
X00083Y-00089*
X00089Y-00091*
X00117*
X00123Y-00089*
X00128Y-00086*
X00132Y-00081*
X00133Y-00075*
X00132Y-00068*
X00128Y-00063*
X00123Y-0006*
X00117Y-00058*
X00103*
Y-00041*
X00117*
X00123Y-00039*
X00128Y-00036*
X00132Y-00031*
X00133Y-00025*
X00132Y-00018*
X00128Y-00013*
X00123Y-0001*
X00117Y-00008*
X00089*
X00083Y-0001*
X00078Y-00013*
X00077Y-00014*
X00012*
X00008Y-00015*
X00004Y-00017*
X-00167Y-00189*
X-00307*
X-00307Y-00184*
X-00301Y-00183*
X-00293Y-00178*
X-00286Y-00171*
X-00281Y-00163*
X-00279Y-00154*
Y-00145*
X-00281Y-00136*
X-00286Y-00128*
X-00292Y-00122*
X-00155Y00014*
X-00129*
X-00128Y00013*
X-00123Y0001*
X-00117Y00008*
X-00089*
X-00083Y0001*
X-00078Y00013*
X-00074Y00018*
X-00073Y00025*
X-00073Y00026*
X-00069Y00028*
X-00065Y00024*
Y-00036*
X-00088Y-00059*
X-00089Y-00058*
X-00117*
X-00123Y-0006*
X-00128Y-00063*
X-00132Y-00068*
X-00133Y-00075*
X-00132Y-00081*
X-00128Y-00086*
X-00123Y-00089*
X-00117Y-00091*
X-00089*
X-00083Y-00089*
X-00078Y-00086*
X-00074Y-00081*
X-00073Y-00075*
X-00073Y-00073*
X-00047Y-00047*
X-00045Y-00044*
X-00044Y-0004*
Y00029*
X-00045Y00033*
X-00047Y00036*
X-00068Y00057*
X-00071Y00059*
X-00074Y0006*
X-00075Y0006*
X-00076Y00062*
X-00077Y00065*
X-00074Y00068*
X-00073Y00075*
X-00074Y00081*
X-00078Y00086*
X-00083Y00089*
X-00089Y00091*
X-0009*
Y0012*
X-00089Y00122*
X-00031*
X-0003Y00121*
X-00028Y00119*
X-00025Y00119*
X-0001*
X-00007Y00119*
X-00004Y00121*
X-00003Y00123*
X-00002Y00126*
Y00143*
X-00003Y00146*
X-00004Y00148*
X-00007Y0015*
X-0001Y0015*
X-00025*
X-00028Y0015*
X-0003Y00148*
X-00031Y00147*
X-00094*
X-00099Y00146*
X-00103Y00144*
X-00112Y00135*
X-00115Y00131*
X-00116Y00126*
Y00091*
X-00117*
X-00123Y00089*
X-00126Y00087*
X-00154*
X-00277Y0021*
X-00279Y00214*
Y00285*
G37*
G36*
Y00147D02*
X-00312D01*
Y00114*
X-0031*
X-00301Y00116*
X-00293Y00121*
X-00286Y00128*
X-00281Y00136*
X-00279Y00145*
Y00147*
G37*
G36*
X-00317D02*
X-0035D01*
Y00145*
X-00348Y00136*
X-00343Y00128*
X-00336Y00121*
X-00328Y00116*
X-00319Y00114*
X-00317*
Y00147*
G37*
G36*
X00117Y00091D02*
X00105D01*
Y00077*
X00132*
X00132Y00081*
X00128Y00086*
X00123Y00089*
X00117Y00091*
G37*
G36*
X001D02*
X00089D01*
X00083Y00089*
X00078Y00086*
X00074Y00081*
X00073Y00077*
X001*
Y00091*
G37*
G36*
X00178Y0008D02*
X00172D01*
Y00067*
X00185*
Y00072*
X00185Y00075*
X00183Y00078*
X00181Y00079*
X00178Y0008*
G37*
G36*
X00167D02*
X00161D01*
X00158Y00079*
X00156Y00078*
X00154Y00075*
X00154Y00072*
Y00067*
X00167*
Y0008*
G37*
G36*
X00132Y00072D02*
X00105D01*
Y00058*
X00117*
X00123Y0006*
X00128Y00063*
X00132Y00068*
X00132Y00072*
G37*
G36*
X001D02*
X00073D01*
X00074Y00068*
X00078Y00063*
X00083Y0006*
X00089Y00058*
X001*
Y00072*
G37*
G36*
X00185Y00062D02*
X00172D01*
Y0005*
X00178*
X00181Y00051*
X00183Y00052*
X00185Y00055*
X00185Y00058*
Y00062*
G37*
G36*
X00167D02*
X00154D01*
Y00058*
X00154Y00055*
X00156Y00052*
X00158Y00051*
X00161Y0005*
X00167*
Y00062*
G37*
G36*
X00178Y00044D02*
X00161D01*
X00158Y00044*
X00156Y00042*
X00154Y0004*
X00154Y00037*
X00127*
X00123Y00039*
X00117Y00041*
X00089*
X00083Y00039*
X00078Y00036*
X00074Y00031*
X00073Y00025*
X00074Y00018*
X00078Y00013*
X00083Y0001*
X00089Y00008*
X00117*
X00123Y0001*
X00128Y00013*
X0013Y00017*
X00156*
X00158Y00015*
X00161Y00015*
X00178*
X00181Y00015*
X00183Y00017*
X00185Y00019*
X00185Y00022*
Y00037*
X00185Y0004*
X00183Y00042*
X00181Y00044*
X00178Y00044*
G37*
G36*
X-00089Y-00008D02*
X-00117D01*
X-00123Y-0001*
X-00128Y-00013*
X-00129Y-00014*
X-00155*
X-00158Y-00015*
X-00162Y-00017*
X-00198Y-00053*
X-002Y-00056*
X-00201Y-0006*
Y-00112*
X-00201Y-00112*
X-00207Y-00118*
X-0021Y-00125*
Y-00134*
X-00207Y-00141*
X-00201Y-00147*
X-00194Y-0015*
X-00185*
X-00178Y-00147*
X-00172Y-00141*
X-00169Y-00134*
Y-00125*
X-00172Y-00118*
X-00178Y-00112*
X-0018Y-00111*
Y-00065*
X-0015Y-00035*
X-00129*
X-00128Y-00036*
X-00123Y-00039*
X-00117Y-00041*
X-00089*
X-00083Y-00039*
X-00078Y-00036*
X-00074Y-00031*
X-00073Y-00025*
X-00074Y-00018*
X-00078Y-00013*
X-00083Y-0001*
X-00089Y-00008*
G37*
G36*
X00033Y-00262D02*
X00027D01*
Y-00275*
X0004*
Y-0027*
X0004Y-00267*
X00038Y-00264*
X00036Y-00263*
X00033Y-00262*
G37*
G36*
X00022D02*
X00016D01*
X00013Y-00263*
X00011Y-00264*
X00009Y-00267*
X00009Y-0027*
Y-00275*
X00022*
Y-00262*
G37*
G36*
X0004Y-0028D02*
X00027D01*
Y-00292*
X00033*
X00036Y-00292*
X00038Y-0029*
X0004Y-00288*
X0004Y-00285*
Y-0028*
G37*
G36*
X00022D02*
X00009D01*
Y-00285*
X00009Y-00288*
X00011Y-0029*
X00013Y-00292*
X00016Y-00292*
X00022*
Y-0028*
G37*
%LNpcb1_copper_signal_top-3*%
%LPD*%
G54D10*
X00025Y-00242D03*
Y-00277D03*
X0017Y0003D03*
Y00065D03*
G54D11*
X002Y-0024D03*
G54D12*
X00017Y00135D03*
X-00017D03*
G54D13*
X-00103Y00075D03*
Y00025D03*
Y-00025D03*
Y-00075D03*
X00103Y00075D03*
Y00025D03*
Y-00025D03*
Y-00075D03*
G54D14*
X-00162Y-002D02*
X00012Y-00025D01*
X-00344Y-002D02*
X-00162D01*
X-0037Y-00174D02*
X-00344Y-002D01*
X-0037Y-00105D02*
X-00315Y-0005D01*
X-0037Y-00174D02*
Y-00105D01*
X00012Y-00025D02*
X00103D01*
X-00055Y-0004D02*
Y00029D01*
X-00089Y-00075D02*
X-00055Y-0004D01*
X-00105Y-00077D02*
X-00103Y-00075D01*
X-00089*
X-00075Y0005D02*
X-00055Y00029D01*
X-00315Y0005D02*
X-00075D01*
X-00315Y-0015D02*
X-00305Y-0014D01*
Y-0012*
X-0016Y00025*
X-00315Y-0025D02*
X-00125D01*
X0005Y-00075D02*
X00103D01*
X-00125Y-0025D02*
X0005Y-00075D01*
X-00065Y-0024D02*
X-00063Y-00241D01*
X00023*
X00025Y-00242*
X00197*
X002Y-0024*
X-0019Y-00129D02*
X-0019Y-0013D01*
X-0019Y-00129D02*
Y-0006D01*
X-00155Y-00025D02*
X-00103D01*
X-0019Y-0006D02*
X-00155Y-00025D01*
X00105Y00027D02*
X00167D01*
X00103Y00025D02*
X00105Y00027D01*
X00167D02*
X0017Y0003D01*
X-0016Y00025D02*
X-00103D01*
G54D15*
X-0016Y00075D02*
X-00103D01*
X-00293Y00208D02*
X-0016Y00075D01*
X-00315Y0025D02*
X-00293Y00228D01*
Y00208D02*
Y00228D01*
X-00103Y00075D02*
Y00126D01*
X-00094Y00135D02*
X-00017D01*
X-00103Y00126D02*
X-00094Y00135D01*
G54D16*
X-00315Y0025D03*
G54D17*
X-00315Y0015D03*
Y0005D03*
Y-0005D03*
Y-0015D03*
Y-0025D03*
G54D18*
X-00207Y00023D03*
X-00204Y-00319D03*
X-00236Y003D03*
X-00244Y-00109D03*
X-00129Y-00134D03*
X00146Y-00055D03*
X00303Y00259D03*
X00264Y0018D03*
X00303Y00102D03*
X00264Y00023D03*
X00303Y-00055D03*
X00264Y-00134D03*
X00225Y00259D03*
X00185Y0018D03*
X00225Y00102D03*
Y-00055D03*
X00185Y-00134D03*
X00146Y00259D03*
X00106Y0018D03*
X00146Y00102D03*
X00067Y00259D03*
X00028Y0018D03*
X-00011Y00259D03*
X-0005Y0018D03*
X-00089Y00259D03*
X-00129Y0018D03*
Y-00291D03*
X-00168Y00259D03*
X-00207Y0018D03*
X-00247Y00102D03*
G54D19*
X-00065Y-0024D03*
X-0019Y-0013D03*
M02*